<?xml version="1.0" standalone="no"?>
 <!DOCTYPE svg PUBLIC "-//W3C//DTD SVG 1.1//EN" 
 "http://www.w3.org/Graphics/SVG/1.1/DTD/svg11.dtd"> 
<svg
  xmlns:svg="http://www.w3.org/2000/svg"
  xmlns="http://www.w3.org/2000/svg"
  xmlns:xlink="http://www.w3.org/1999/xlink"
  version="1.1"
  width="96.3930mm" height="64.1858mm" viewBox="0.0000 0.0000 96.3930 64.1858">
<title>SVG Image created as Credit Card PCB V1-B_Silkscreen.svg date 2023/03/23 18:54:26 </title>
  <desc>Image generated by PCBNEW </desc>
<g style="fill:#000000; fill-opacity:1.0000;stroke:#000000; stroke-opacity:1.0000;
stroke-linecap:round; stroke-linejoin:round;"
 transform="translate(0 0) scale(1 1)">
</g>
<g style="fill:#000000; fill-opacity:0.0; 
stroke:#000000; stroke-width:0.0000; stroke-opacity:1; 
stroke-linecap:round; stroke-linejoin:round;">
</g>
<g style="fill:#E8B2A7; fill-opacity:0.0; 
stroke:#E8B2A7; stroke-width:0.0000; stroke-opacity:1; 
stroke-linecap:round; stroke-linejoin:round;">
</g>
<g style="fill:#E8B2A7; fill-opacity:0.0; 
stroke:#E8B2A7; stroke-width:0.1500; stroke-opacity:1; 
stroke-linecap:round; stroke-linejoin:round;">
<g transform="rotate(-180.000000 48.2000 12.4750)">
<text x="48.2000" y="12.9750"
transform="scale(-1 1) translate(-96.400000 0)"
textLength="1.8893" font-size="1.3333" lengthAdjust="spacingAndGlyphs"
text-anchor="middle" opacity="0">J1</text>
</g>
<g class="stroked-text"><desc>J1</desc>
<path d="M47.8667 13.1076
L47.8667 12.3933
" />
<path d="M47.8667 12.3933
L47.8190 12.2505
" />
<path d="M47.8190 12.2505
L47.7238 12.1552
" />
<path d="M47.7238 12.1552
L47.5810 12.1076
" />
<path d="M47.5810 12.1076
L47.4857 12.1076
" />
<path d="M48.8667 12.1076
L48.2952 12.1076
" />
<path d="M48.5810 12.1076
L48.5810 13.1076
" />
<path d="M48.5810 13.1076
L48.4857 12.9648
" />
<path d="M48.4857 12.9648
L48.3905 12.8695
" />
<path d="M48.3905 12.8695
L48.2952 12.8219
" />
</g><text x="60.4500" y="12.4000"
transform="scale(-1 1) translate(-120.900000 0)"
textLength="3.2226" font-size="1.3333" lengthAdjust="spacingAndGlyphs"
text-anchor="middle" opacity="0">SW0</text>
<g class="stroked-text"><desc>SW0</desc>
<path d="M61.7833 12.2198
L61.6405 12.2674
" />
<path d="M61.6405 12.2674
L61.4024 12.2674
" />
<path d="M61.4024 12.2674
L61.3071 12.2198
" />
<path d="M61.3071 12.2198
L61.2595 12.1721
" />
<path d="M61.2595 12.1721
L61.2119 12.0769
" />
<path d="M61.2119 12.0769
L61.2119 11.9817
" />
<path d="M61.2119 11.9817
L61.2595 11.8864
" />
<path d="M61.2595 11.8864
L61.3071 11.8388
" />
<path d="M61.3071 11.8388
L61.4024 11.7912
" />
<path d="M61.4024 11.7912
L61.5929 11.7436
" />
<path d="M61.5929 11.7436
L61.6881 11.6960
" />
<path d="M61.6881 11.6960
L61.7357 11.6483
" />
<path d="M61.7357 11.6483
L61.7833 11.5531
" />
<path d="M61.7833 11.5531
L61.7833 11.4579
" />
<path d="M61.7833 11.4579
L61.7357 11.3626
" />
<path d="M61.7357 11.3626
L61.6881 11.3150
" />
<path d="M61.6881 11.3150
L61.5929 11.2674
" />
<path d="M61.5929 11.2674
L61.3548 11.2674
" />
<path d="M61.3548 11.2674
L61.2119 11.3150
" />
<path d="M60.8786 11.2674
L60.6405 12.2674
" />
<path d="M60.6405 12.2674
L60.4500 11.5531
" />
<path d="M60.4500 11.5531
L60.2595 12.2674
" />
<path d="M60.2595 12.2674
L60.0214 11.2674
" />
<path d="M59.4500 11.2674
L59.3548 11.2674
" />
<path d="M59.3548 11.2674
L59.2595 11.3150
" />
<path d="M59.2595 11.3150
L59.2119 11.3626
" />
<path d="M59.2119 11.3626
L59.1643 11.4579
" />
<path d="M59.1643 11.4579
L59.1167 11.6483
" />
<path d="M59.1167 11.6483
L59.1167 11.8864
" />
<path d="M59.1167 11.8864
L59.1643 12.0769
" />
<path d="M59.1643 12.0769
L59.2119 12.1721
" />
<path d="M59.2119 12.1721
L59.2595 12.2198
" />
<path d="M59.2595 12.2198
L59.3548 12.2674
" />
<path d="M59.3548 12.2674
L59.4500 12.2674
" />
<path d="M59.4500 12.2674
L59.5452 12.2198
" />
<path d="M59.5452 12.2198
L59.5929 12.1721
" />
<path d="M59.5929 12.1721
L59.6405 12.0769
" />
<path d="M59.6405 12.0769
L59.6881 11.8864
" />
<path d="M59.6881 11.8864
L59.6881 11.6483
" />
<path d="M59.6881 11.6483
L59.6405 11.4579
" />
<path d="M59.6405 11.4579
L59.5929 11.3626
" />
<path d="M59.5929 11.3626
L59.5452 11.3150
" />
<path d="M59.5452 11.3150
L59.4500 11.2674
" />
</g><text x="62.2000" y="49.8000"
transform="scale(-1 1) translate(-124.400000 0)"
textLength="3.2226" font-size="1.3333" lengthAdjust="spacingAndGlyphs"
text-anchor="middle" opacity="0">MX9</text>
<g class="stroked-text"><desc>MX9</desc>
<path d="M63.4857 49.6674
L63.4857 48.6674
" />
<path d="M63.4857 48.6674
L63.1524 49.3817
" />
<path d="M63.1524 49.3817
L62.8190 48.6674
" />
<path d="M62.8190 48.6674
L62.8190 49.6674
" />
<path d="M62.4381 48.6674
L61.7714 49.6674
" />
<path d="M61.7714 48.6674
L62.4381 49.6674
" />
<path d="M61.3429 49.6674
L61.1524 49.6674
" />
<path d="M61.1524 49.6674
L61.0571 49.6198
" />
<path d="M61.0571 49.6198
L61.0095 49.5721
" />
<path d="M61.0095 49.5721
L60.9143 49.4293
" />
<path d="M60.9143 49.4293
L60.8667 49.2388
" />
<path d="M60.8667 49.2388
L60.8667 48.8579
" />
<path d="M60.8667 48.8579
L60.9143 48.7626
" />
<path d="M60.9143 48.7626
L60.9619 48.7150
" />
<path d="M60.9619 48.7150
L61.0571 48.6674
" />
<path d="M61.0571 48.6674
L61.2476 48.6674
" />
<path d="M61.2476 48.6674
L61.3429 48.7150
" />
<path d="M61.3429 48.7150
L61.3905 48.7626
" />
<path d="M61.3905 48.7626
L61.4381 48.8579
" />
<path d="M61.4381 48.8579
L61.4381 49.0960
" />
<path d="M61.4381 49.0960
L61.3905 49.1912
" />
<path d="M61.3905 49.1912
L61.3429 49.2388
" />
<path d="M61.3429 49.2388
L61.2476 49.2864
" />
<path d="M61.2476 49.2864
L61.0571 49.2864
" />
<path d="M61.0571 49.2864
L60.9619 49.2388
" />
<path d="M60.9619 49.2388
L60.9143 49.1912
" />
<path d="M60.9143 49.1912
L60.8667 49.0960
" />
</g><text x="34.2000" y="28.8000"
transform="scale(-1 1) translate(-68.400000 0)"
textLength="3.2226" font-size="1.3333" lengthAdjust="spacingAndGlyphs"
text-anchor="middle" opacity="0">MX4</text>
<g class="stroked-text"><desc>MX4</desc>
<path d="M35.4857 28.6674
L35.4857 27.6674
" />
<path d="M35.4857 27.6674
L35.1524 28.3817
" />
<path d="M35.1524 28.3817
L34.8190 27.6674
" />
<path d="M34.8190 27.6674
L34.8190 28.6674
" />
<path d="M34.4381 27.6674
L33.7714 28.6674
" />
<path d="M33.7714 27.6674
L34.4381 28.6674
" />
<path d="M32.9619 28.0007
L32.9619 28.6674
" />
<path d="M33.2000 27.6198
L33.4381 28.3340
" />
<path d="M33.4381 28.3340
L32.8190 28.3340
" />
</g><text x="52.2000" y="28.8000"
transform="scale(-1 1) translate(-104.400000 0)"
textLength="3.2226" font-size="1.3333" lengthAdjust="spacingAndGlyphs"
text-anchor="middle" opacity="0">MX5</text>
<g class="stroked-text"><desc>MX5</desc>
<path d="M53.4857 28.6674
L53.4857 27.6674
" />
<path d="M53.4857 27.6674
L53.1524 28.3817
" />
<path d="M53.1524 28.3817
L52.8190 27.6674
" />
<path d="M52.8190 27.6674
L52.8190 28.6674
" />
<path d="M52.4381 27.6674
L51.7714 28.6674
" />
<path d="M51.7714 27.6674
L52.4381 28.6674
" />
<path d="M50.9143 27.6674
L51.3905 27.6674
" />
<path d="M51.3905 27.6674
L51.4381 28.1436
" />
<path d="M51.4381 28.1436
L51.3905 28.0960
" />
<path d="M51.3905 28.0960
L51.2952 28.0483
" />
<path d="M51.2952 28.0483
L51.0571 28.0483
" />
<path d="M51.0571 28.0483
L50.9619 28.0960
" />
<path d="M50.9619 28.0960
L50.9143 28.1436
" />
<path d="M50.9143 28.1436
L50.8667 28.2388
" />
<path d="M50.8667 28.2388
L50.8667 28.4769
" />
<path d="M50.8667 28.4769
L50.9143 28.5721
" />
<path d="M50.9143 28.5721
L50.9619 28.6198
" />
<path d="M50.9619 28.6198
L51.0571 28.6674
" />
<path d="M51.0571 28.6674
L51.2952 28.6674
" />
<path d="M51.2952 28.6674
L51.3905 28.6198
" />
<path d="M51.3905 28.6198
L51.4381 28.5721
" />
</g><text x="70.2000" y="28.8000"
transform="scale(-1 1) translate(-140.400000 0)"
textLength="3.2226" font-size="1.3333" lengthAdjust="spacingAndGlyphs"
text-anchor="middle" opacity="0">MX6</text>
<g class="stroked-text"><desc>MX6</desc>
<path d="M71.4857 28.6674
L71.4857 27.6674
" />
<path d="M71.4857 27.6674
L71.1524 28.3817
" />
<path d="M71.1524 28.3817
L70.8190 27.6674
" />
<path d="M70.8190 27.6674
L70.8190 28.6674
" />
<path d="M70.4381 27.6674
L69.7714 28.6674
" />
<path d="M69.7714 27.6674
L70.4381 28.6674
" />
<path d="M68.9619 27.6674
L69.1524 27.6674
" />
<path d="M69.1524 27.6674
L69.2476 27.7150
" />
<path d="M69.2476 27.7150
L69.2952 27.7626
" />
<path d="M69.2952 27.7626
L69.3905 27.9055
" />
<path d="M69.3905 27.9055
L69.4381 28.0960
" />
<path d="M69.4381 28.0960
L69.4381 28.4769
" />
<path d="M69.4381 28.4769
L69.3905 28.5721
" />
<path d="M69.3905 28.5721
L69.3429 28.6198
" />
<path d="M69.3429 28.6198
L69.2476 28.6674
" />
<path d="M69.2476 28.6674
L69.0571 28.6674
" />
<path d="M69.0571 28.6674
L68.9619 28.6198
" />
<path d="M68.9619 28.6198
L68.9143 28.5721
" />
<path d="M68.9143 28.5721
L68.8667 28.4769
" />
<path d="M68.8667 28.4769
L68.8667 28.2388
" />
<path d="M68.8667 28.2388
L68.9143 28.1436
" />
<path d="M68.9143 28.1436
L68.9619 28.0960
" />
<path d="M68.9619 28.0960
L69.0571 28.0483
" />
<path d="M69.0571 28.0483
L69.2476 28.0483
" />
<path d="M69.2476 28.0483
L69.3429 28.0960
" />
<path d="M69.3429 28.0960
L69.3905 28.1436
" />
<path d="M69.3905 28.1436
L69.4381 28.2388
" />
</g><text x="54.9500" y="11.8000"
transform="scale(-1 1) translate(-109.900000 0)"
textLength="3.2226" font-size="1.3333" lengthAdjust="spacingAndGlyphs"
text-anchor="middle" opacity="0">MX2</text>
<g class="stroked-text"><desc>MX2</desc>
<path d="M56.2357 11.6674
L56.2357 10.6674
" />
<path d="M56.2357 10.6674
L55.9024 11.3817
" />
<path d="M55.9024 11.3817
L55.5690 10.6674
" />
<path d="M55.5690 10.6674
L55.5690 11.6674
" />
<path d="M55.1881 10.6674
L54.5214 11.6674
" />
<path d="M54.5214 10.6674
L55.1881 11.6674
" />
<path d="M54.1881 10.7626
L54.1405 10.7150
" />
<path d="M54.1405 10.7150
L54.0452 10.6674
" />
<path d="M54.0452 10.6674
L53.8071 10.6674
" />
<path d="M53.8071 10.6674
L53.7119 10.7150
" />
<path d="M53.7119 10.7150
L53.6643 10.7626
" />
<path d="M53.6643 10.7626
L53.6167 10.8579
" />
<path d="M53.6167 10.8579
L53.6167 10.9531
" />
<path d="M53.6167 10.9531
L53.6643 11.0960
" />
<path d="M53.6643 11.0960
L54.2357 11.6674
" />
<path d="M54.2357 11.6674
L53.6167 11.6674
" />
</g><text x="34.2000" y="11.8000"
transform="scale(-1 1) translate(-68.400000 0)"
textLength="3.2226" font-size="1.3333" lengthAdjust="spacingAndGlyphs"
text-anchor="middle" opacity="0">MX1</text>
<g class="stroked-text"><desc>MX1</desc>
<path d="M35.4857 11.6674
L35.4857 10.6674
" />
<path d="M35.4857 10.6674
L35.1524 11.3817
" />
<path d="M35.1524 11.3817
L34.8190 10.6674
" />
<path d="M34.8190 10.6674
L34.8190 11.6674
" />
<path d="M34.4381 10.6674
L33.7714 11.6674
" />
<path d="M33.7714 10.6674
L34.4381 11.6674
" />
<path d="M32.8667 11.6674
L33.4381 11.6674
" />
<path d="M33.1524 11.6674
L33.1524 10.6674
" />
<path d="M33.1524 10.6674
L33.2476 10.8102
" />
<path d="M33.2476 10.8102
L33.3429 10.9055
" />
<path d="M33.3429 10.9055
L33.4381 10.9531
" />
</g><text x="80.2000" y="49.8000"
transform="scale(-1 1) translate(-160.400000 0)"
textLength="4.1750" font-size="1.3333" lengthAdjust="spacingAndGlyphs"
text-anchor="middle" opacity="0">MX10</text>
<g class="stroked-text"><desc>MX10</desc>
<path d="M81.9619 49.6674
L81.9619 48.6674
" />
<path d="M81.9619 48.6674
L81.6286 49.3817
" />
<path d="M81.6286 49.3817
L81.2952 48.6674
" />
<path d="M81.2952 48.6674
L81.2952 49.6674
" />
<path d="M80.9143 48.6674
L80.2476 49.6674
" />
<path d="M80.2476 48.6674
L80.9143 49.6674
" />
<path d="M79.3429 49.6674
L79.9143 49.6674
" />
<path d="M79.6286 49.6674
L79.6286 48.6674
" />
<path d="M79.6286 48.6674
L79.7238 48.8102
" />
<path d="M79.7238 48.8102
L79.8190 48.9055
" />
<path d="M79.8190 48.9055
L79.9143 48.9531
" />
<path d="M78.7238 48.6674
L78.6286 48.6674
" />
<path d="M78.6286 48.6674
L78.5333 48.7150
" />
<path d="M78.5333 48.7150
L78.4857 48.7626
" />
<path d="M78.4857 48.7626
L78.4381 48.8579
" />
<path d="M78.4381 48.8579
L78.3905 49.0483
" />
<path d="M78.3905 49.0483
L78.3905 49.2864
" />
<path d="M78.3905 49.2864
L78.4381 49.4769
" />
<path d="M78.4381 49.4769
L78.4857 49.5721
" />
<path d="M78.4857 49.5721
L78.5333 49.6198
" />
<path d="M78.5333 49.6198
L78.6286 49.6674
" />
<path d="M78.6286 49.6674
L78.7238 49.6674
" />
<path d="M78.7238 49.6674
L78.8190 49.6198
" />
<path d="M78.8190 49.6198
L78.8667 49.5721
" />
<path d="M78.8667 49.5721
L78.9143 49.4769
" />
<path d="M78.9143 49.4769
L78.9619 49.2864
" />
<path d="M78.9619 49.2864
L78.9619 49.0483
" />
<path d="M78.9619 49.0483
L78.9143 48.8579
" />
<path d="M78.9143 48.8579
L78.8667 48.7626
" />
<path d="M78.8667 48.7626
L78.8190 48.7150
" />
<path d="M78.8190 48.7150
L78.7238 48.6674
" />
</g><text x="16.2000" y="11.8000"
transform="scale(-1 1) translate(-32.400000 0)"
textLength="3.2226" font-size="1.3333" lengthAdjust="spacingAndGlyphs"
text-anchor="middle" opacity="0">MX0</text>
<g class="stroked-text"><desc>MX0</desc>
<path d="M17.4857 11.6674
L17.4857 10.6674
" />
<path d="M17.4857 10.6674
L17.1524 11.3817
" />
<path d="M17.1524 11.3817
L16.8190 10.6674
" />
<path d="M16.8190 10.6674
L16.8190 11.6674
" />
<path d="M16.4381 10.6674
L15.7714 11.6674
" />
<path d="M15.7714 10.6674
L16.4381 11.6674
" />
<path d="M15.2000 10.6674
L15.1048 10.6674
" />
<path d="M15.1048 10.6674
L15.0095 10.7150
" />
<path d="M15.0095 10.7150
L14.9619 10.7626
" />
<path d="M14.9619 10.7626
L14.9143 10.8579
" />
<path d="M14.9143 10.8579
L14.8667 11.0483
" />
<path d="M14.8667 11.0483
L14.8667 11.2864
" />
<path d="M14.8667 11.2864
L14.9143 11.4769
" />
<path d="M14.9143 11.4769
L14.9619 11.5721
" />
<path d="M14.9619 11.5721
L15.0095 11.6198
" />
<path d="M15.0095 11.6198
L15.1048 11.6674
" />
<path d="M15.1048 11.6674
L15.2000 11.6674
" />
<path d="M15.2000 11.6674
L15.2952 11.6198
" />
<path d="M15.2952 11.6198
L15.3429 11.5721
" />
<path d="M15.3429 11.5721
L15.3905 11.4769
" />
<path d="M15.3905 11.4769
L15.4381 11.2864
" />
<path d="M15.4381 11.2864
L15.4381 11.0483
" />
<path d="M15.4381 11.0483
L15.3905 10.8579
" />
<path d="M15.3905 10.8579
L15.3429 10.7626
" />
<path d="M15.3429 10.7626
L15.2952 10.7150
" />
<path d="M15.2952 10.7150
L15.2000 10.6674
" />
</g><text x="16.2000" y="28.8000"
transform="scale(-1 1) translate(-32.400000 0)"
textLength="3.2226" font-size="1.3333" lengthAdjust="spacingAndGlyphs"
text-anchor="middle" opacity="0">MX3</text>
<g class="stroked-text"><desc>MX3</desc>
<path d="M17.4857 28.6674
L17.4857 27.6674
" />
<path d="M17.4857 27.6674
L17.1524 28.3817
" />
<path d="M17.1524 28.3817
L16.8190 27.6674
" />
<path d="M16.8190 27.6674
L16.8190 28.6674
" />
<path d="M16.4381 27.6674
L15.7714 28.6674
" />
<path d="M15.7714 27.6674
L16.4381 28.6674
" />
<path d="M15.4857 27.6674
L14.8667 27.6674
" />
<path d="M14.8667 27.6674
L15.2000 28.0483
" />
<path d="M15.2000 28.0483
L15.0571 28.0483
" />
<path d="M15.0571 28.0483
L14.9619 28.0960
" />
<path d="M14.9619 28.0960
L14.9143 28.1436
" />
<path d="M14.9143 28.1436
L14.8667 28.2388
" />
<path d="M14.8667 28.2388
L14.8667 28.4769
" />
<path d="M14.8667 28.4769
L14.9143 28.5721
" />
<path d="M14.9143 28.5721
L14.9619 28.6198
" />
<path d="M14.9619 28.6198
L15.0571 28.6674
" />
<path d="M15.0571 28.6674
L15.3429 28.6674
" />
<path d="M15.3429 28.6674
L15.4381 28.6198
" />
<path d="M15.4381 28.6198
L15.4857 28.5721
" />
</g><text x="26.2000" y="49.8000"
transform="scale(-1 1) translate(-52.400000 0)"
textLength="3.2226" font-size="1.3333" lengthAdjust="spacingAndGlyphs"
text-anchor="middle" opacity="0">MX7</text>
<g class="stroked-text"><desc>MX7</desc>
<path d="M27.4857 49.6674
L27.4857 48.6674
" />
<path d="M27.4857 48.6674
L27.1524 49.3817
" />
<path d="M27.1524 49.3817
L26.8190 48.6674
" />
<path d="M26.8190 48.6674
L26.8190 49.6674
" />
<path d="M26.4381 48.6674
L25.7714 49.6674
" />
<path d="M25.7714 48.6674
L26.4381 49.6674
" />
<path d="M25.4857 48.6674
L24.8190 48.6674
" />
<path d="M24.8190 48.6674
L25.2476 49.6674
" />
</g><text x="44.2000" y="49.8000"
transform="scale(-1 1) translate(-88.400000 0)"
textLength="3.2226" font-size="1.3333" lengthAdjust="spacingAndGlyphs"
text-anchor="middle" opacity="0">MX8</text>
<g class="stroked-text"><desc>MX8</desc>
<path d="M45.4857 49.6674
L45.4857 48.6674
" />
<path d="M45.4857 48.6674
L45.1524 49.3817
" />
<path d="M45.1524 49.3817
L44.8190 48.6674
" />
<path d="M44.8190 48.6674
L44.8190 49.6674
" />
<path d="M44.4381 48.6674
L43.7714 49.6674
" />
<path d="M43.7714 48.6674
L44.4381 49.6674
" />
<path d="M43.2476 49.0960
L43.3429 49.0483
" />
<path d="M43.3429 49.0483
L43.3905 49.0007
" />
<path d="M43.3905 49.0007
L43.4381 48.9055
" />
<path d="M43.4381 48.9055
L43.4381 48.8579
" />
<path d="M43.4381 48.8579
L43.3905 48.7626
" />
<path d="M43.3905 48.7626
L43.3429 48.7150
" />
<path d="M43.3429 48.7150
L43.2476 48.6674
" />
<path d="M43.2476 48.6674
L43.0571 48.6674
" />
<path d="M43.0571 48.6674
L42.9619 48.7150
" />
<path d="M42.9619 48.7150
L42.9143 48.7626
" />
<path d="M42.9143 48.7626
L42.8667 48.8579
" />
<path d="M42.8667 48.8579
L42.8667 48.9055
" />
<path d="M42.8667 48.9055
L42.9143 49.0007
" />
<path d="M42.9143 49.0007
L42.9619 49.0483
" />
<path d="M42.9619 49.0483
L43.0571 49.0960
" />
<path d="M43.0571 49.0960
L43.2476 49.0960
" />
<path d="M43.2476 49.0960
L43.3429 49.1436
" />
<path d="M43.3429 49.1436
L43.3905 49.1912
" />
<path d="M43.3905 49.1912
L43.4381 49.2864
" />
<path d="M43.4381 49.2864
L43.4381 49.4769
" />
<path d="M43.4381 49.4769
L43.3905 49.5721
" />
<path d="M43.3905 49.5721
L43.3429 49.6198
" />
<path d="M43.3429 49.6198
L43.2476 49.6674
" />
<path d="M43.2476 49.6674
L43.0571 49.6674
" />
<path d="M43.0571 49.6674
L42.9619 49.6198
" />
<path d="M42.9619 49.6198
L42.9143 49.5721
" />
<path d="M42.9143 49.5721
L42.8667 49.4769
" />
<path d="M42.8667 49.4769
L42.8667 49.2864
" />
<path d="M42.8667 49.2864
L42.9143 49.1912
" />
<path d="M42.9143 49.1912
L42.9619 49.1436
" />
<path d="M42.9619 49.1436
L43.0571 49.0960
" />
</g><g transform="rotate(-90.000000 50.7000 20.8000)">
<text x="50.7000" y="21.3000"
transform="scale(-1 1) translate(-101.400000 0)"
textLength="2.1274" font-size="1.3333" lengthAdjust="spacingAndGlyphs"
text-anchor="middle" opacity="0">D2</text>
</g>
<g class="stroked-text"><desc>D2</desc>
<path d="M51.0674 20.0619
L50.0674 20.0619
" />
<path d="M50.0674 20.0619
L50.0674 20.3000
" />
<path d="M50.0674 20.3000
L50.1150 20.4429
" />
<path d="M50.1150 20.4429
L50.2102 20.5381
" />
<path d="M50.2102 20.5381
L50.3055 20.5857
" />
<path d="M50.3055 20.5857
L50.4960 20.6333
" />
<path d="M50.4960 20.6333
L50.6388 20.6333
" />
<path d="M50.6388 20.6333
L50.8293 20.5857
" />
<path d="M50.8293 20.5857
L50.9245 20.5381
" />
<path d="M50.9245 20.5381
L51.0198 20.4429
" />
<path d="M51.0198 20.4429
L51.0674 20.3000
" />
<path d="M51.0674 20.3000
L51.0674 20.0619
" />
<path d="M50.1626 21.0143
L50.1150 21.0619
" />
<path d="M50.1150 21.0619
L50.0674 21.1571
" />
<path d="M50.0674 21.1571
L50.0674 21.3952
" />
<path d="M50.0674 21.3952
L50.1150 21.4905
" />
<path d="M50.1150 21.4905
L50.1626 21.5381
" />
<path d="M50.1626 21.5381
L50.2579 21.5857
" />
<path d="M50.2579 21.5857
L50.3531 21.5857
" />
<path d="M50.3531 21.5857
L50.4960 21.5381
" />
<path d="M50.4960 21.5381
L51.0674 20.9667
" />
<path d="M51.0674 20.9667
L51.0674 21.5857
" />
</g><g transform="rotate(-45.000000 89.3000 35.9000)">
<text x="89.3000" y="36.4000"
transform="scale(-1 1) translate(-178.600000 0)"
textLength="3.0798" font-size="1.3333" lengthAdjust="spacingAndGlyphs"
text-anchor="middle" opacity="0">C10</text>
</g>
<g class="stroked-text"><desc>C10</desc>
<path d="M89.9470 35.6379
L90.0143 35.6379
" />
<path d="M90.0143 35.6379
L90.1490 35.5705
" />
<path d="M90.1490 35.5705
L90.2164 35.5032
" />
<path d="M90.2164 35.5032
L90.2837 35.3685
" />
<path d="M90.2837 35.3685
L90.2837 35.2338
" />
<path d="M90.2837 35.2338
L90.2500 35.1328
" />
<path d="M90.2500 35.1328
L90.1490 34.9644
" />
<path d="M90.1490 34.9644
L90.0480 34.8634
" />
<path d="M90.0480 34.8634
L89.8797 34.7624
" />
<path d="M89.8797 34.7624
L89.7786 34.7287
" />
<path d="M89.7786 34.7287
L89.6440 34.7287
" />
<path d="M89.6440 34.7287
L89.5093 34.7961
" />
<path d="M89.5093 34.7961
L89.4419 34.8634
" />
<path d="M89.4419 34.8634
L89.3746 34.9981
" />
<path d="M89.3746 34.9981
L89.3746 35.0654
" />
<path d="M89.3409 36.3786
L89.7450 35.9746
" />
<path d="M89.5429 36.1766
L88.8358 35.4695
" />
<path d="M88.8358 35.4695
L89.0042 35.5032
" />
<path d="M89.0042 35.5032
L89.1389 35.5032
" />
<path d="M89.1389 35.5032
L89.2399 35.4695
" />
<path d="M88.1961 36.1093
L88.1287 36.1766
" />
<path d="M88.1287 36.1766
L88.0951 36.2776
" />
<path d="M88.0951 36.2776
L88.0951 36.3450
" />
<path d="M88.0951 36.3450
L88.1287 36.4460
" />
<path d="M88.1287 36.4460
L88.2297 36.6143
" />
<path d="M88.2297 36.6143
L88.3981 36.7827
" />
<path d="M88.3981 36.7827
L88.5665 36.8837
" />
<path d="M88.5665 36.8837
L88.6675 36.9174
" />
<path d="M88.6675 36.9174
L88.7348 36.9174
" />
<path d="M88.7348 36.9174
L88.8358 36.8837
" />
<path d="M88.8358 36.8837
L88.9032 36.8164
" />
<path d="M88.9032 36.8164
L88.9368 36.7154
" />
<path d="M88.9368 36.7154
L88.9368 36.6480
" />
<path d="M88.9368 36.6480
L88.9032 36.5470
" />
<path d="M88.9032 36.5470
L88.8022 36.3786
" />
<path d="M88.8022 36.3786
L88.6338 36.2103
" />
<path d="M88.6338 36.2103
L88.4654 36.1093
" />
<path d="M88.4654 36.1093
L88.3644 36.0756
" />
<path d="M88.3644 36.0756
L88.2971 36.0756
" />
<path d="M88.2971 36.0756
L88.1961 36.1093
" />
</g><text x="85.4500" y="11.0000"
transform="scale(-1 1) translate(-170.900000 0)"
textLength="2.1274" font-size="1.3333" lengthAdjust="spacingAndGlyphs"
text-anchor="middle" opacity="0">C8</text>
<g class="stroked-text"><desc>C8</desc>
<path d="M85.6167 10.7721
L85.6643 10.8198
" />
<path d="M85.6643 10.8198
L85.8071 10.8674
" />
<path d="M85.8071 10.8674
L85.9024 10.8674
" />
<path d="M85.9024 10.8674
L86.0452 10.8198
" />
<path d="M86.0452 10.8198
L86.1405 10.7245
" />
<path d="M86.1405 10.7245
L86.1881 10.6293
" />
<path d="M86.1881 10.6293
L86.2357 10.4388
" />
<path d="M86.2357 10.4388
L86.2357 10.2960
" />
<path d="M86.2357 10.2960
L86.1881 10.1055
" />
<path d="M86.1881 10.1055
L86.1405 10.0102
" />
<path d="M86.1405 10.0102
L86.0452 9.9150
" />
<path d="M86.0452 9.9150
L85.9024 9.8674
" />
<path d="M85.9024 9.8674
L85.8071 9.8674
" />
<path d="M85.8071 9.8674
L85.6643 9.9150
" />
<path d="M85.6643 9.9150
L85.6167 9.9626
" />
<path d="M85.0452 10.2960
L85.1405 10.2483
" />
<path d="M85.1405 10.2483
L85.1881 10.2007
" />
<path d="M85.1881 10.2007
L85.2357 10.1055
" />
<path d="M85.2357 10.1055
L85.2357 10.0579
" />
<path d="M85.2357 10.0579
L85.1881 9.9626
" />
<path d="M85.1881 9.9626
L85.1405 9.9150
" />
<path d="M85.1405 9.9150
L85.0452 9.8674
" />
<path d="M85.0452 9.8674
L84.8548 9.8674
" />
<path d="M84.8548 9.8674
L84.7595 9.9150
" />
<path d="M84.7595 9.9150
L84.7119 9.9626
" />
<path d="M84.7119 9.9626
L84.6643 10.0579
" />
<path d="M84.6643 10.0579
L84.6643 10.1055
" />
<path d="M84.6643 10.1055
L84.7119 10.2007
" />
<path d="M84.7119 10.2007
L84.7595 10.2483
" />
<path d="M84.7595 10.2483
L84.8548 10.2960
" />
<path d="M84.8548 10.2960
L85.0452 10.2960
" />
<path d="M85.0452 10.2960
L85.1405 10.3436
" />
<path d="M85.1405 10.3436
L85.1881 10.3912
" />
<path d="M85.1881 10.3912
L85.2357 10.4864
" />
<path d="M85.2357 10.4864
L85.2357 10.6769
" />
<path d="M85.2357 10.6769
L85.1881 10.7721
" />
<path d="M85.1881 10.7721
L85.1405 10.8198
" />
<path d="M85.1405 10.8198
L85.0452 10.8674
" />
<path d="M85.0452 10.8674
L84.8548 10.8674
" />
<path d="M84.8548 10.8674
L84.7595 10.8198
" />
<path d="M84.7595 10.8198
L84.7119 10.7721
" />
<path d="M84.7119 10.7721
L84.6643 10.6769
" />
<path d="M84.6643 10.6769
L84.6643 10.4864
" />
<path d="M84.6643 10.4864
L84.7119 10.3912
" />
<path d="M84.7119 10.3912
L84.7595 10.3436
" />
<path d="M84.7595 10.3436
L84.8548 10.2960
" />
</g><g transform="rotate(-90.000000 85.1000 40.3000)">
<text x="85.1000" y="40.8000"
transform="scale(-1 1) translate(-170.200000 0)"
textLength="3.0798" font-size="1.3333" lengthAdjust="spacingAndGlyphs"
text-anchor="middle" opacity="0">D10</text>
</g>
<g class="stroked-text"><desc>D10</desc>
<path d="M85.4674 39.0857
L84.4674 39.0857
" />
<path d="M84.4674 39.0857
L84.4674 39.3238
" />
<path d="M84.4674 39.3238
L84.5150 39.4667
" />
<path d="M84.5150 39.4667
L84.6102 39.5619
" />
<path d="M84.6102 39.5619
L84.7055 39.6095
" />
<path d="M84.7055 39.6095
L84.8960 39.6571
" />
<path d="M84.8960 39.6571
L85.0388 39.6571
" />
<path d="M85.0388 39.6571
L85.2293 39.6095
" />
<path d="M85.2293 39.6095
L85.3245 39.5619
" />
<path d="M85.3245 39.5619
L85.4198 39.4667
" />
<path d="M85.4198 39.4667
L85.4674 39.3238
" />
<path d="M85.4674 39.3238
L85.4674 39.0857
" />
<path d="M85.4674 40.6095
L85.4674 40.0381
" />
<path d="M85.4674 40.3238
L84.4674 40.3238
" />
<path d="M84.4674 40.3238
L84.6102 40.2286
" />
<path d="M84.6102 40.2286
L84.7055 40.1333
" />
<path d="M84.7055 40.1333
L84.7531 40.0381
" />
<path d="M84.4674 41.2286
L84.4674 41.3238
" />
<path d="M84.4674 41.3238
L84.5150 41.4190
" />
<path d="M84.5150 41.4190
L84.5626 41.4667
" />
<path d="M84.5626 41.4667
L84.6579 41.5143
" />
<path d="M84.6579 41.5143
L84.8483 41.5619
" />
<path d="M84.8483 41.5619
L85.0864 41.5619
" />
<path d="M85.0864 41.5619
L85.2769 41.5143
" />
<path d="M85.2769 41.5143
L85.3721 41.4667
" />
<path d="M85.3721 41.4667
L85.4198 41.4190
" />
<path d="M85.4198 41.4190
L85.4674 41.3238
" />
<path d="M85.4674 41.3238
L85.4674 41.2286
" />
<path d="M85.4674 41.2286
L85.4198 41.1333
" />
<path d="M85.4198 41.1333
L85.3721 41.0857
" />
<path d="M85.3721 41.0857
L85.2769 41.0381
" />
<path d="M85.2769 41.0381
L85.0864 40.9905
" />
<path d="M85.0864 40.9905
L84.8483 40.9905
" />
<path d="M84.8483 40.9905
L84.6579 41.0381
" />
<path d="M84.6579 41.0381
L84.5626 41.0857
" />
<path d="M84.5626 41.0857
L84.5150 41.1333
" />
<path d="M84.5150 41.1333
L84.4674 41.2286
" />
</g><text x="82.5000" y="9.5000"
transform="scale(-1 1) translate(-165.000000 0)"
textLength="2.1274" font-size="1.3333" lengthAdjust="spacingAndGlyphs"
text-anchor="middle" opacity="0">C3</text>
<g class="stroked-text"><desc>C3</desc>
<path d="M82.6667 9.2721
L82.7143 9.3198
" />
<path d="M82.7143 9.3198
L82.8571 9.3674
" />
<path d="M82.8571 9.3674
L82.9524 9.3674
" />
<path d="M82.9524 9.3674
L83.0952 9.3198
" />
<path d="M83.0952 9.3198
L83.1905 9.2245
" />
<path d="M83.1905 9.2245
L83.2381 9.1293
" />
<path d="M83.2381 9.1293
L83.2857 8.9388
" />
<path d="M83.2857 8.9388
L83.2857 8.7960
" />
<path d="M83.2857 8.7960
L83.2381 8.6055
" />
<path d="M83.2381 8.6055
L83.1905 8.5102
" />
<path d="M83.1905 8.5102
L83.0952 8.4150
" />
<path d="M83.0952 8.4150
L82.9524 8.3674
" />
<path d="M82.9524 8.3674
L82.8571 8.3674
" />
<path d="M82.8571 8.3674
L82.7143 8.4150
" />
<path d="M82.7143 8.4150
L82.6667 8.4626
" />
<path d="M82.3333 8.3674
L81.7143 8.3674
" />
<path d="M81.7143 8.3674
L82.0476 8.7483
" />
<path d="M82.0476 8.7483
L81.9048 8.7483
" />
<path d="M81.9048 8.7483
L81.8095 8.7960
" />
<path d="M81.8095 8.7960
L81.7619 8.8436
" />
<path d="M81.7619 8.8436
L81.7143 8.9388
" />
<path d="M81.7143 8.9388
L81.7143 9.1769
" />
<path d="M81.7143 9.1769
L81.7619 9.2721
" />
<path d="M81.7619 9.2721
L81.8095 9.3198
" />
<path d="M81.8095 9.3198
L81.9048 9.3674
" />
<path d="M81.9048 9.3674
L82.1905 9.3674
" />
<path d="M82.1905 9.3674
L82.2857 9.3198
" />
<path d="M82.2857 9.3198
L82.3333 9.2721
" />
</g><g transform="rotate(45.000000 79.4500 16.3000)">
<text x="79.4500" y="16.8000"
transform="scale(-1 1) translate(-158.900000 0)"
textLength="2.1274" font-size="1.3333" lengthAdjust="spacingAndGlyphs"
text-anchor="middle" opacity="0">R3</text>
</g>
<g class="stroked-text"><desc>R3</desc>
<path d="M79.3081 16.6776
L79.8805 16.5766
" />
<path d="M79.7121 17.0817
L80.4192 16.3746
" />
<path d="M80.4192 16.3746
L80.1499 16.1052
" />
<path d="M80.1499 16.1052
L80.0489 16.0715
" />
<path d="M80.0489 16.0715
L79.9815 16.0715
" />
<path d="M79.9815 16.0715
L79.8805 16.1052
" />
<path d="M79.8805 16.1052
L79.7795 16.2062
" />
<path d="M79.7795 16.2062
L79.7458 16.3072
" />
<path d="M79.7458 16.3072
L79.7458 16.3746
" />
<path d="M79.7458 16.3746
L79.7795 16.4756
" />
<path d="M79.7795 16.4756
L80.0489 16.7450
" />
<path d="M79.7795 15.7348
L79.3417 15.2971
" />
<path d="M79.3417 15.2971
L79.3081 15.8022
" />
<path d="M79.3081 15.8022
L79.2071 15.7011
" />
<path d="M79.2071 15.7011
L79.1060 15.6675
" />
<path d="M79.1060 15.6675
L79.0387 15.6675
" />
<path d="M79.0387 15.6675
L78.9377 15.7011
" />
<path d="M78.9377 15.7011
L78.7693 15.8695
" />
<path d="M78.7693 15.8695
L78.7357 15.9705
" />
<path d="M78.7357 15.9705
L78.7357 16.0379
" />
<path d="M78.7357 16.0379
L78.7693 16.1389
" />
<path d="M78.7693 16.1389
L78.9714 16.3409
" />
<path d="M78.9714 16.3409
L79.0724 16.3746
" />
<path d="M79.0724 16.3746
L79.1397 16.3746
" />
</g><g transform="rotate(-90.000000 46.4500 15.5500)">
<text x="46.4500" y="16.0500"
transform="scale(-1 1) translate(-92.900000 0)"
textLength="2.1274" font-size="1.3333" lengthAdjust="spacingAndGlyphs"
text-anchor="middle" opacity="0">R5</text>
</g>
<g class="stroked-text"><desc>R5</desc>
<path d="M46.8174 15.3833
L46.3412 15.0500
" />
<path d="M46.8174 14.8119
L45.8174 14.8119
" />
<path d="M45.8174 14.8119
L45.8174 15.1929
" />
<path d="M45.8174 15.1929
L45.8650 15.2881
" />
<path d="M45.8650 15.2881
L45.9126 15.3357
" />
<path d="M45.9126 15.3357
L46.0079 15.3833
" />
<path d="M46.0079 15.3833
L46.1507 15.3833
" />
<path d="M46.1507 15.3833
L46.2460 15.3357
" />
<path d="M46.2460 15.3357
L46.2936 15.2881
" />
<path d="M46.2936 15.2881
L46.3412 15.1929
" />
<path d="M46.3412 15.1929
L46.3412 14.8119
" />
<path d="M45.8174 16.2881
L45.8174 15.8119
" />
<path d="M45.8174 15.8119
L46.2936 15.7643
" />
<path d="M46.2936 15.7643
L46.2460 15.8119
" />
<path d="M46.2460 15.8119
L46.1983 15.9071
" />
<path d="M46.1983 15.9071
L46.1983 16.1452
" />
<path d="M46.1983 16.1452
L46.2460 16.2405
" />
<path d="M46.2460 16.2405
L46.2936 16.2881
" />
<path d="M46.2936 16.2881
L46.3888 16.3357
" />
<path d="M46.3888 16.3357
L46.6269 16.3357
" />
<path d="M46.6269 16.3357
L46.7221 16.2881
" />
<path d="M46.7221 16.2881
L46.7698 16.2405
" />
<path d="M46.7698 16.2405
L46.8174 16.1452
" />
<path d="M46.8174 16.1452
L46.8174 15.9071
" />
<path d="M46.8174 15.9071
L46.7698 15.8119
" />
<path d="M46.7698 15.8119
L46.7221 15.7643
" />
</g><g transform="rotate(-90.000000 85.8000 15.1000)">
<text x="85.8000" y="15.6000"
transform="scale(-1 1) translate(-171.600000 0)"
textLength="1.9845" font-size="1.3333" lengthAdjust="spacingAndGlyphs"
text-anchor="middle" opacity="0">Y1</text>
</g>
<g class="stroked-text"><desc>Y1</desc>
<path d="M85.6912 14.6238
L86.1674 14.6238
" />
<path d="M85.1674 14.2905
L85.6912 14.6238
" />
<path d="M85.6912 14.6238
L85.1674 14.9571
" />
<path d="M86.1674 15.8143
L86.1674 15.2429
" />
<path d="M86.1674 15.5286
L85.1674 15.5286
" />
<path d="M85.1674 15.5286
L85.3102 15.4333
" />
<path d="M85.3102 15.4333
L85.4055 15.3381
" />
<path d="M85.4055 15.3381
L85.4531 15.2429
" />
</g><g transform="rotate(-90.000000 90.2000 17.7000)">
<text x="90.2000" y="18.2000"
transform="scale(-1 1) translate(-180.400000 0)"
textLength="2.1274" font-size="1.3333" lengthAdjust="spacingAndGlyphs"
text-anchor="middle" opacity="0">C6</text>
</g>
<g class="stroked-text"><desc>C6</desc>
<path d="M90.4721 17.5333
L90.5198 17.4857
" />
<path d="M90.5198 17.4857
L90.5674 17.3429
" />
<path d="M90.5674 17.3429
L90.5674 17.2476
" />
<path d="M90.5674 17.2476
L90.5198 17.1048
" />
<path d="M90.5198 17.1048
L90.4245 17.0095
" />
<path d="M90.4245 17.0095
L90.3293 16.9619
" />
<path d="M90.3293 16.9619
L90.1388 16.9143
" />
<path d="M90.1388 16.9143
L89.9960 16.9143
" />
<path d="M89.9960 16.9143
L89.8055 16.9619
" />
<path d="M89.8055 16.9619
L89.7102 17.0095
" />
<path d="M89.7102 17.0095
L89.6150 17.1048
" />
<path d="M89.6150 17.1048
L89.5674 17.2476
" />
<path d="M89.5674 17.2476
L89.5674 17.3429
" />
<path d="M89.5674 17.3429
L89.6150 17.4857
" />
<path d="M89.6150 17.4857
L89.6626 17.5333
" />
<path d="M89.5674 18.3905
L89.5674 18.2000
" />
<path d="M89.5674 18.2000
L89.6150 18.1048
" />
<path d="M89.6150 18.1048
L89.6626 18.0571
" />
<path d="M89.6626 18.0571
L89.8055 17.9619
" />
<path d="M89.8055 17.9619
L89.9960 17.9143
" />
<path d="M89.9960 17.9143
L90.3769 17.9143
" />
<path d="M90.3769 17.9143
L90.4721 17.9619
" />
<path d="M90.4721 17.9619
L90.5198 18.0095
" />
<path d="M90.5198 18.0095
L90.5674 18.1048
" />
<path d="M90.5674 18.1048
L90.5674 18.2952
" />
<path d="M90.5674 18.2952
L90.5198 18.3905
" />
<path d="M90.5198 18.3905
L90.4721 18.4381
" />
<path d="M90.4721 18.4381
L90.3769 18.4857
" />
<path d="M90.3769 18.4857
L90.1388 18.4857
" />
<path d="M90.1388 18.4857
L90.0436 18.4381
" />
<path d="M90.0436 18.4381
L89.9960 18.3905
" />
<path d="M89.9960 18.3905
L89.9483 18.2952
" />
<path d="M89.9483 18.2952
L89.9483 18.1048
" />
<path d="M89.9483 18.1048
L89.9960 18.0095
" />
<path d="M89.9960 18.0095
L90.0436 17.9619
" />
<path d="M90.0436 17.9619
L90.1388 17.9143
" />
</g><text x="77.7000" y="12.3000"
transform="scale(-1 1) translate(-155.400000 0)"
textLength="1.9845" font-size="1.3333" lengthAdjust="spacingAndGlyphs"
text-anchor="middle" opacity="0">F1</text>
<g class="stroked-text"><desc>F1</desc>
<path d="M78.0333 11.6436
L78.3667 11.6436
" />
<path d="M78.3667 12.1674
L78.3667 11.1674
" />
<path d="M78.3667 11.1674
L77.8905 11.1674
" />
<path d="M76.9857 12.1674
L77.5571 12.1674
" />
<path d="M77.2714 12.1674
L77.2714 11.1674
" />
<path d="M77.2714 11.1674
L77.3667 11.3102
" />
<path d="M77.3667 11.3102
L77.4619 11.4055
" />
<path d="M77.4619 11.4055
L77.5571 11.4531
" />
</g><g transform="rotate(-90.000000 10.4500 35.0500)">
<text x="10.4500" y="35.5500"
transform="scale(-1 1) translate(-20.900000 0)"
textLength="2.1274" font-size="1.3333" lengthAdjust="spacingAndGlyphs"
text-anchor="middle" opacity="0">R8</text>
</g>
<g class="stroked-text"><desc>R8</desc>
<path d="M10.8174 34.8833
L10.3412 34.5500
" />
<path d="M10.8174 34.3119
L9.8174 34.3119
" />
<path d="M9.8174 34.3119
L9.8174 34.6929
" />
<path d="M9.8174 34.6929
L9.8650 34.7881
" />
<path d="M9.8650 34.7881
L9.9126 34.8357
" />
<path d="M9.9126 34.8357
L10.0079 34.8833
" />
<path d="M10.0079 34.8833
L10.1507 34.8833
" />
<path d="M10.1507 34.8833
L10.2460 34.8357
" />
<path d="M10.2460 34.8357
L10.2936 34.7881
" />
<path d="M10.2936 34.7881
L10.3412 34.6929
" />
<path d="M10.3412 34.6929
L10.3412 34.3119
" />
<path d="M10.2460 35.4548
L10.1983 35.3595
" />
<path d="M10.1983 35.3595
L10.1507 35.3119
" />
<path d="M10.1507 35.3119
L10.0555 35.2643
" />
<path d="M10.0555 35.2643
L10.0079 35.2643
" />
<path d="M10.0079 35.2643
L9.9126 35.3119
" />
<path d="M9.9126 35.3119
L9.8650 35.3595
" />
<path d="M9.8650 35.3595
L9.8174 35.4548
" />
<path d="M9.8174 35.4548
L9.8174 35.6452
" />
<path d="M9.8174 35.6452
L9.8650 35.7405
" />
<path d="M9.8650 35.7405
L9.9126 35.7881
" />
<path d="M9.9126 35.7881
L10.0079 35.8357
" />
<path d="M10.0079 35.8357
L10.0555 35.8357
" />
<path d="M10.0555 35.8357
L10.1507 35.7881
" />
<path d="M10.1507 35.7881
L10.1983 35.7405
" />
<path d="M10.1983 35.7405
L10.2460 35.6452
" />
<path d="M10.2460 35.6452
L10.2460 35.4548
" />
<path d="M10.2460 35.4548
L10.2936 35.3595
" />
<path d="M10.2936 35.3595
L10.3412 35.3119
" />
<path d="M10.3412 35.3119
L10.4364 35.2643
" />
<path d="M10.4364 35.2643
L10.6269 35.2643
" />
<path d="M10.6269 35.2643
L10.7221 35.3119
" />
<path d="M10.7221 35.3119
L10.7698 35.3595
" />
<path d="M10.7698 35.3595
L10.8174 35.4548
" />
<path d="M10.8174 35.4548
L10.8174 35.6452
" />
<path d="M10.8174 35.6452
L10.7698 35.7405
" />
<path d="M10.7698 35.7405
L10.7221 35.7881
" />
<path d="M10.7221 35.7881
L10.6269 35.8357
" />
<path d="M10.6269 35.8357
L10.4364 35.8357
" />
<path d="M10.4364 35.8357
L10.3412 35.7881
" />
<path d="M10.3412 35.7881
L10.2936 35.7405
" />
<path d="M10.2936 35.7405
L10.2460 35.6452
" />
</g><g transform="rotate(-90.000000 50.4500 45.3000)">
<text x="50.4500" y="45.8000"
transform="scale(-1 1) translate(-100.900000 0)"
textLength="2.1274" font-size="1.3333" lengthAdjust="spacingAndGlyphs"
text-anchor="middle" opacity="0">D8</text>
</g>
<g class="stroked-text"><desc>D8</desc>
<path d="M50.8174 44.5619
L49.8174 44.5619
" />
<path d="M49.8174 44.5619
L49.8174 44.8000
" />
<path d="M49.8174 44.8000
L49.8650 44.9429
" />
<path d="M49.8650 44.9429
L49.9602 45.0381
" />
<path d="M49.9602 45.0381
L50.0555 45.0857
" />
<path d="M50.0555 45.0857
L50.2460 45.1333
" />
<path d="M50.2460 45.1333
L50.3888 45.1333
" />
<path d="M50.3888 45.1333
L50.5793 45.0857
" />
<path d="M50.5793 45.0857
L50.6745 45.0381
" />
<path d="M50.6745 45.0381
L50.7698 44.9429
" />
<path d="M50.7698 44.9429
L50.8174 44.8000
" />
<path d="M50.8174 44.8000
L50.8174 44.5619
" />
<path d="M50.2460 45.7048
L50.1983 45.6095
" />
<path d="M50.1983 45.6095
L50.1507 45.5619
" />
<path d="M50.1507 45.5619
L50.0555 45.5143
" />
<path d="M50.0555 45.5143
L50.0079 45.5143
" />
<path d="M50.0079 45.5143
L49.9126 45.5619
" />
<path d="M49.9126 45.5619
L49.8650 45.6095
" />
<path d="M49.8650 45.6095
L49.8174 45.7048
" />
<path d="M49.8174 45.7048
L49.8174 45.8952
" />
<path d="M49.8174 45.8952
L49.8650 45.9905
" />
<path d="M49.8650 45.9905
L49.9126 46.0381
" />
<path d="M49.9126 46.0381
L50.0079 46.0857
" />
<path d="M50.0079 46.0857
L50.0555 46.0857
" />
<path d="M50.0555 46.0857
L50.1507 46.0381
" />
<path d="M50.1507 46.0381
L50.1983 45.9905
" />
<path d="M50.1983 45.9905
L50.2460 45.8952
" />
<path d="M50.2460 45.8952
L50.2460 45.7048
" />
<path d="M50.2460 45.7048
L50.2936 45.6095
" />
<path d="M50.2936 45.6095
L50.3412 45.5619
" />
<path d="M50.3412 45.5619
L50.4364 45.5143
" />
<path d="M50.4364 45.5143
L50.6269 45.5143
" />
<path d="M50.6269 45.5143
L50.7221 45.5619
" />
<path d="M50.7221 45.5619
L50.7698 45.6095
" />
<path d="M50.7698 45.6095
L50.8174 45.7048
" />
<path d="M50.8174 45.7048
L50.8174 45.8952
" />
<path d="M50.8174 45.8952
L50.7698 45.9905
" />
<path d="M50.7698 45.9905
L50.7221 46.0381
" />
<path d="M50.7221 46.0381
L50.6269 46.0857
" />
<path d="M50.6269 46.0857
L50.4364 46.0857
" />
<path d="M50.4364 46.0857
L50.3412 46.0381
" />
<path d="M50.3412 46.0381
L50.2936 45.9905
" />
<path d="M50.2936 45.9905
L50.2460 45.8952
" />
</g><g transform="rotate(-90.000000 27.9500 32.3000)">
<text x="27.9500" y="32.8000"
transform="scale(-1 1) translate(-55.900000 0)"
textLength="2.1274" font-size="1.3333" lengthAdjust="spacingAndGlyphs"
text-anchor="middle" opacity="0">D4</text>
</g>
<g class="stroked-text"><desc>D4</desc>
<path d="M28.3174 31.5619
L27.3174 31.5619
" />
<path d="M27.3174 31.5619
L27.3174 31.8000
" />
<path d="M27.3174 31.8000
L27.3650 31.9429
" />
<path d="M27.3650 31.9429
L27.4602 32.0381
" />
<path d="M27.4602 32.0381
L27.5555 32.0857
" />
<path d="M27.5555 32.0857
L27.7460 32.1333
" />
<path d="M27.7460 32.1333
L27.8888 32.1333
" />
<path d="M27.8888 32.1333
L28.0793 32.0857
" />
<path d="M28.0793 32.0857
L28.1745 32.0381
" />
<path d="M28.1745 32.0381
L28.2698 31.9429
" />
<path d="M28.2698 31.9429
L28.3174 31.8000
" />
<path d="M28.3174 31.8000
L28.3174 31.5619
" />
<path d="M27.6507 32.9905
L28.3174 32.9905
" />
<path d="M27.2698 32.7524
L27.9840 32.5143
" />
<path d="M27.9840 32.5143
L27.9840 33.1333
" />
</g><g transform="rotate(-45.000000 79.6720 19.0220)">
<text x="79.6720" y="19.5220"
transform="scale(-1 1) translate(-159.344008 0)"
textLength="2.1750" font-size="1.3333" lengthAdjust="spacingAndGlyphs"
text-anchor="middle" opacity="0">U2</text>
</g>
<g class="stroked-text"><desc>U2</desc>
<path d="M79.7634 18.0359
L80.3358 18.6083
" />
<path d="M80.3358 18.6083
L80.3695 18.7094
" />
<path d="M80.3695 18.7094
L80.3695 18.7767
" />
<path d="M80.3695 18.7767
L80.3358 18.8777
" />
<path d="M80.3358 18.8777
L80.2012 19.0124
" />
<path d="M80.2012 19.0124
L80.1001 19.0461
" />
<path d="M80.1001 19.0461
L80.0328 19.0461
" />
<path d="M80.0328 19.0461
L79.9318 19.0124
" />
<path d="M79.9318 19.0124
L79.3594 18.4400
" />
<path d="M79.1237 18.8104
L79.0563 18.8104
" />
<path d="M79.0563 18.8104
L78.9553 18.8440
" />
<path d="M78.9553 18.8440
L78.7869 19.0124
" />
<path d="M78.7869 19.0124
L78.7533 19.1134
" />
<path d="M78.7533 19.1134
L78.7533 19.1808
" />
<path d="M78.7533 19.1808
L78.7869 19.2818
" />
<path d="M78.7869 19.2818
L78.8543 19.3491
" />
<path d="M78.8543 19.3491
L78.9890 19.4165
" />
<path d="M78.9890 19.4165
L79.7971 19.4165
" />
<path d="M79.7971 19.4165
L79.3594 19.8542
" />
</g><text x="82.4750" y="15.4000"
transform="scale(-1 1) translate(-164.950000 0)"
textLength="2.1274" font-size="1.3333" lengthAdjust="spacingAndGlyphs"
text-anchor="middle" opacity="0">C2</text>
<g class="stroked-text"><desc>C2</desc>
<path d="M82.6417 15.1721
L82.6893 15.2198
" />
<path d="M82.6893 15.2198
L82.8321 15.2674
" />
<path d="M82.8321 15.2674
L82.9274 15.2674
" />
<path d="M82.9274 15.2674
L83.0702 15.2198
" />
<path d="M83.0702 15.2198
L83.1655 15.1245
" />
<path d="M83.1655 15.1245
L83.2131 15.0293
" />
<path d="M83.2131 15.0293
L83.2607 14.8388
" />
<path d="M83.2607 14.8388
L83.2607 14.6960
" />
<path d="M83.2607 14.6960
L83.2131 14.5055
" />
<path d="M83.2131 14.5055
L83.1655 14.4102
" />
<path d="M83.1655 14.4102
L83.0702 14.3150
" />
<path d="M83.0702 14.3150
L82.9274 14.2674
" />
<path d="M82.9274 14.2674
L82.8321 14.2674
" />
<path d="M82.8321 14.2674
L82.6893 14.3150
" />
<path d="M82.6893 14.3150
L82.6417 14.3626
" />
<path d="M82.2607 14.3626
L82.2131 14.3150
" />
<path d="M82.2131 14.3150
L82.1179 14.2674
" />
<path d="M82.1179 14.2674
L81.8798 14.2674
" />
<path d="M81.8798 14.2674
L81.7845 14.3150
" />
<path d="M81.7845 14.3150
L81.7369 14.3626
" />
<path d="M81.7369 14.3626
L81.6893 14.4579
" />
<path d="M81.6893 14.4579
L81.6893 14.5531
" />
<path d="M81.6893 14.5531
L81.7369 14.6960
" />
<path d="M81.7369 14.6960
L82.3083 15.2674
" />
<path d="M82.3083 15.2674
L81.6893 15.2674
" />
</g><g transform="rotate(-90.000000 65.9500 6.3000)">
<text x="65.9500" y="6.8000"
transform="scale(-1 1) translate(-131.900000 0)"
textLength="2.1274" font-size="1.3333" lengthAdjust="spacingAndGlyphs"
text-anchor="middle" opacity="0">R4</text>
</g>
<g class="stroked-text"><desc>R4</desc>
<path d="M66.3174 6.1333
L65.8412 5.8000
" />
<path d="M66.3174 5.5619
L65.3174 5.5619
" />
<path d="M65.3174 5.5619
L65.3174 5.9429
" />
<path d="M65.3174 5.9429
L65.3650 6.0381
" />
<path d="M65.3650 6.0381
L65.4126 6.0857
" />
<path d="M65.4126 6.0857
L65.5079 6.1333
" />
<path d="M65.5079 6.1333
L65.6507 6.1333
" />
<path d="M65.6507 6.1333
L65.7460 6.0857
" />
<path d="M65.7460 6.0857
L65.7936 6.0381
" />
<path d="M65.7936 6.0381
L65.8412 5.9429
" />
<path d="M65.8412 5.9429
L65.8412 5.5619
" />
<path d="M65.6507 6.9905
L66.3174 6.9905
" />
<path d="M65.2698 6.7524
L65.9840 6.5143
" />
<path d="M65.9840 6.5143
L65.9840 7.1333
" />
</g><g transform="rotate(-90.000000 48.4500 14.8000)">
<text x="48.4500" y="15.3000"
transform="scale(-1 1) translate(-96.900000 0)"
textLength="2.1274" font-size="1.3333" lengthAdjust="spacingAndGlyphs"
text-anchor="middle" opacity="0">R6</text>
</g>
<g class="stroked-text"><desc>R6</desc>
<path d="M48.8174 14.6333
L48.3412 14.3000
" />
<path d="M48.8174 14.0619
L47.8174 14.0619
" />
<path d="M47.8174 14.0619
L47.8174 14.4429
" />
<path d="M47.8174 14.4429
L47.8650 14.5381
" />
<path d="M47.8650 14.5381
L47.9126 14.5857
" />
<path d="M47.9126 14.5857
L48.0079 14.6333
" />
<path d="M48.0079 14.6333
L48.1507 14.6333
" />
<path d="M48.1507 14.6333
L48.2460 14.5857
" />
<path d="M48.2460 14.5857
L48.2936 14.5381
" />
<path d="M48.2936 14.5381
L48.3412 14.4429
" />
<path d="M48.3412 14.4429
L48.3412 14.0619
" />
<path d="M47.8174 15.4905
L47.8174 15.3000
" />
<path d="M47.8174 15.3000
L47.8650 15.2048
" />
<path d="M47.8650 15.2048
L47.9126 15.1571
" />
<path d="M47.9126 15.1571
L48.0555 15.0619
" />
<path d="M48.0555 15.0619
L48.2460 15.0143
" />
<path d="M48.2460 15.0143
L48.6269 15.0143
" />
<path d="M48.6269 15.0143
L48.7221 15.0619
" />
<path d="M48.7221 15.0619
L48.7698 15.1095
" />
<path d="M48.7698 15.1095
L48.8174 15.2048
" />
<path d="M48.8174 15.2048
L48.8174 15.3952
" />
<path d="M48.8174 15.3952
L48.7698 15.4905
" />
<path d="M48.7698 15.4905
L48.7221 15.5381
" />
<path d="M48.7221 15.5381
L48.6269 15.5857
" />
<path d="M48.6269 15.5857
L48.3888 15.5857
" />
<path d="M48.3888 15.5857
L48.2936 15.5381
" />
<path d="M48.2936 15.5381
L48.2460 15.4905
" />
<path d="M48.2460 15.4905
L48.1983 15.3952
" />
<path d="M48.1983 15.3952
L48.1983 15.2048
" />
<path d="M48.1983 15.2048
L48.2460 15.1095
" />
<path d="M48.2460 15.1095
L48.2936 15.0619
" />
<path d="M48.2936 15.0619
L48.3888 15.0143
" />
</g><g transform="rotate(-90.000000 32.7000 20.8000)">
<text x="32.7000" y="21.3000"
transform="scale(-1 1) translate(-65.400000 0)"
textLength="2.1274" font-size="1.3333" lengthAdjust="spacingAndGlyphs"
text-anchor="middle" opacity="0">D1</text>
</g>
<g class="stroked-text"><desc>D1</desc>
<path d="M33.0674 20.0619
L32.0674 20.0619
" />
<path d="M32.0674 20.0619
L32.0674 20.3000
" />
<path d="M32.0674 20.3000
L32.1150 20.4429
" />
<path d="M32.1150 20.4429
L32.2102 20.5381
" />
<path d="M32.2102 20.5381
L32.3055 20.5857
" />
<path d="M32.3055 20.5857
L32.4960 20.6333
" />
<path d="M32.4960 20.6333
L32.6388 20.6333
" />
<path d="M32.6388 20.6333
L32.8293 20.5857
" />
<path d="M32.8293 20.5857
L32.9245 20.5381
" />
<path d="M32.9245 20.5381
L33.0198 20.4429
" />
<path d="M33.0198 20.4429
L33.0674 20.3000
" />
<path d="M33.0674 20.3000
L33.0674 20.0619
" />
<path d="M33.0674 21.5857
L33.0674 21.0143
" />
<path d="M33.0674 21.3000
L32.0674 21.3000
" />
<path d="M32.0674 21.3000
L32.2102 21.2048
" />
<path d="M32.2102 21.2048
L32.3055 21.1095
" />
<path d="M32.3055 21.1095
L32.3531 21.0143
" />
</g><g transform="rotate(-90.000000 63.9500 32.3000)">
<text x="63.9500" y="32.8000"
transform="scale(-1 1) translate(-127.900000 0)"
textLength="2.1274" font-size="1.3333" lengthAdjust="spacingAndGlyphs"
text-anchor="middle" opacity="0">D6</text>
</g>
<g class="stroked-text"><desc>D6</desc>
<path d="M64.3174 31.5619
L63.3174 31.5619
" />
<path d="M63.3174 31.5619
L63.3174 31.8000
" />
<path d="M63.3174 31.8000
L63.3650 31.9429
" />
<path d="M63.3650 31.9429
L63.4602 32.0381
" />
<path d="M63.4602 32.0381
L63.5555 32.0857
" />
<path d="M63.5555 32.0857
L63.7460 32.1333
" />
<path d="M63.7460 32.1333
L63.8888 32.1333
" />
<path d="M63.8888 32.1333
L64.0793 32.0857
" />
<path d="M64.0793 32.0857
L64.1745 32.0381
" />
<path d="M64.1745 32.0381
L64.2698 31.9429
" />
<path d="M64.2698 31.9429
L64.3174 31.8000
" />
<path d="M64.3174 31.8000
L64.3174 31.5619
" />
<path d="M63.3174 32.9905
L63.3174 32.8000
" />
<path d="M63.3174 32.8000
L63.3650 32.7048
" />
<path d="M63.3650 32.7048
L63.4126 32.6571
" />
<path d="M63.4126 32.6571
L63.5555 32.5619
" />
<path d="M63.5555 32.5619
L63.7460 32.5143
" />
<path d="M63.7460 32.5143
L64.1269 32.5143
" />
<path d="M64.1269 32.5143
L64.2221 32.5619
" />
<path d="M64.2221 32.5619
L64.2698 32.6095
" />
<path d="M64.2698 32.6095
L64.3174 32.7048
" />
<path d="M64.3174 32.7048
L64.3174 32.8952
" />
<path d="M64.3174 32.8952
L64.2698 32.9905
" />
<path d="M64.2698 32.9905
L64.2221 33.0381
" />
<path d="M64.2221 33.0381
L64.1269 33.0857
" />
<path d="M64.1269 33.0857
L63.8888 33.0857
" />
<path d="M63.8888 33.0857
L63.7936 33.0381
" />
<path d="M63.7936 33.0381
L63.7460 32.9905
" />
<path d="M63.7460 32.9905
L63.6983 32.8952
" />
<path d="M63.6983 32.8952
L63.6983 32.7048
" />
<path d="M63.6983 32.7048
L63.7460 32.6095
" />
<path d="M63.7460 32.6095
L63.7936 32.5619
" />
<path d="M63.7936 32.5619
L63.8888 32.5143
" />
</g><g transform="rotate(-90.000000 10.4500 25.0500)">
<text x="10.4500" y="25.5500"
transform="scale(-1 1) translate(-20.900000 0)"
textLength="2.1274" font-size="1.3333" lengthAdjust="spacingAndGlyphs"
text-anchor="middle" opacity="0">R9</text>
</g>
<g class="stroked-text"><desc>R9</desc>
<path d="M10.8174 24.8833
L10.3412 24.5500
" />
<path d="M10.8174 24.3119
L9.8174 24.3119
" />
<path d="M9.8174 24.3119
L9.8174 24.6929
" />
<path d="M9.8174 24.6929
L9.8650 24.7881
" />
<path d="M9.8650 24.7881
L9.9126 24.8357
" />
<path d="M9.9126 24.8357
L10.0079 24.8833
" />
<path d="M10.0079 24.8833
L10.1507 24.8833
" />
<path d="M10.1507 24.8833
L10.2460 24.8357
" />
<path d="M10.2460 24.8357
L10.2936 24.7881
" />
<path d="M10.2936 24.7881
L10.3412 24.6929
" />
<path d="M10.3412 24.6929
L10.3412 24.3119
" />
<path d="M10.8174 25.3595
L10.8174 25.5500
" />
<path d="M10.8174 25.5500
L10.7698 25.6452
" />
<path d="M10.7698 25.6452
L10.7221 25.6929
" />
<path d="M10.7221 25.6929
L10.5793 25.7881
" />
<path d="M10.5793 25.7881
L10.3888 25.8357
" />
<path d="M10.3888 25.8357
L10.0079 25.8357
" />
<path d="M10.0079 25.8357
L9.9126 25.7881
" />
<path d="M9.9126 25.7881
L9.8650 25.7405
" />
<path d="M9.8650 25.7405
L9.8174 25.6452
" />
<path d="M9.8174 25.6452
L9.8174 25.4548
" />
<path d="M9.8174 25.4548
L9.8650 25.3595
" />
<path d="M9.8650 25.3595
L9.9126 25.3119
" />
<path d="M9.9126 25.3119
L10.0079 25.2643
" />
<path d="M10.0079 25.2643
L10.2460 25.2643
" />
<path d="M10.2460 25.2643
L10.3412 25.3119
" />
<path d="M10.3412 25.3119
L10.3888 25.3595
" />
<path d="M10.3888 25.3595
L10.4364 25.4548
" />
<path d="M10.4364 25.4548
L10.4364 25.6452
" />
<path d="M10.4364 25.6452
L10.3888 25.7405
" />
<path d="M10.3888 25.7405
L10.3412 25.7881
" />
<path d="M10.3412 25.7881
L10.2460 25.8357
" />
</g><g transform="rotate(-90.000000 14.7000 37.8000)">
<text x="14.7000" y="38.3000"
transform="scale(-1 1) translate(-29.400000 0)"
textLength="2.1274" font-size="1.3333" lengthAdjust="spacingAndGlyphs"
text-anchor="middle" opacity="0">D3</text>
</g>
<g class="stroked-text"><desc>D3</desc>
<path d="M15.0674 37.0619
L14.0674 37.0619
" />
<path d="M14.0674 37.0619
L14.0674 37.3000
" />
<path d="M14.0674 37.3000
L14.1150 37.4429
" />
<path d="M14.1150 37.4429
L14.2102 37.5381
" />
<path d="M14.2102 37.5381
L14.3055 37.5857
" />
<path d="M14.3055 37.5857
L14.4960 37.6333
" />
<path d="M14.4960 37.6333
L14.6388 37.6333
" />
<path d="M14.6388 37.6333
L14.8293 37.5857
" />
<path d="M14.8293 37.5857
L14.9245 37.5381
" />
<path d="M14.9245 37.5381
L15.0198 37.4429
" />
<path d="M15.0198 37.4429
L15.0674 37.3000
" />
<path d="M15.0674 37.3000
L15.0674 37.0619
" />
<path d="M14.0674 37.9667
L14.0674 38.5857
" />
<path d="M14.0674 38.5857
L14.4483 38.2524
" />
<path d="M14.4483 38.2524
L14.4483 38.3952
" />
<path d="M14.4483 38.3952
L14.4960 38.4905
" />
<path d="M14.4960 38.4905
L14.5436 38.5381
" />
<path d="M14.5436 38.5381
L14.6388 38.5857
" />
<path d="M14.6388 38.5857
L14.8769 38.5857
" />
<path d="M14.8769 38.5857
L14.9721 38.5381
" />
<path d="M14.9721 38.5381
L15.0198 38.4905
" />
<path d="M15.0198 38.4905
L15.0674 38.3952
" />
<path d="M15.0674 38.3952
L15.0674 38.1095
" />
<path d="M15.0674 38.1095
L15.0198 38.0143
" />
<path d="M15.0198 38.0143
L14.9721 37.9667
" />
</g><g transform="rotate(-90.000000 45.9500 32.3000)">
<text x="45.9500" y="32.8000"
transform="scale(-1 1) translate(-91.900000 0)"
textLength="2.1274" font-size="1.3333" lengthAdjust="spacingAndGlyphs"
text-anchor="middle" opacity="0">D5</text>
</g>
<g class="stroked-text"><desc>D5</desc>
<path d="M46.3174 31.5619
L45.3174 31.5619
" />
<path d="M45.3174 31.5619
L45.3174 31.8000
" />
<path d="M45.3174 31.8000
L45.3650 31.9429
" />
<path d="M45.3650 31.9429
L45.4602 32.0381
" />
<path d="M45.4602 32.0381
L45.5555 32.0857
" />
<path d="M45.5555 32.0857
L45.7460 32.1333
" />
<path d="M45.7460 32.1333
L45.8888 32.1333
" />
<path d="M45.8888 32.1333
L46.0793 32.0857
" />
<path d="M46.0793 32.0857
L46.1745 32.0381
" />
<path d="M46.1745 32.0381
L46.2698 31.9429
" />
<path d="M46.2698 31.9429
L46.3174 31.8000
" />
<path d="M46.3174 31.8000
L46.3174 31.5619
" />
<path d="M45.3174 33.0381
L45.3174 32.5619
" />
<path d="M45.3174 32.5619
L45.7936 32.5143
" />
<path d="M45.7936 32.5143
L45.7460 32.5619
" />
<path d="M45.7460 32.5619
L45.6983 32.6571
" />
<path d="M45.6983 32.6571
L45.6983 32.8952
" />
<path d="M45.6983 32.8952
L45.7460 32.9905
" />
<path d="M45.7460 32.9905
L45.7936 33.0381
" />
<path d="M45.7936 33.0381
L45.8888 33.0857
" />
<path d="M45.8888 33.0857
L46.1269 33.0857
" />
<path d="M46.1269 33.0857
L46.2221 33.0381
" />
<path d="M46.2221 33.0381
L46.2698 32.9905
" />
<path d="M46.2698 32.9905
L46.3174 32.8952
" />
<path d="M46.3174 32.8952
L46.3174 32.6571
" />
<path d="M46.3174 32.6571
L46.2698 32.5619
" />
<path d="M46.2698 32.5619
L46.2221 32.5143
" />
</g><g transform="rotate(-90.000000 10.4500 45.0500)">
<text x="10.4500" y="45.5500"
transform="scale(-1 1) translate(-20.900000 0)"
textLength="2.1274" font-size="1.3333" lengthAdjust="spacingAndGlyphs"
text-anchor="middle" opacity="0">R7</text>
</g>
<g class="stroked-text"><desc>R7</desc>
<path d="M10.8174 44.8833
L10.3412 44.5500
" />
<path d="M10.8174 44.3119
L9.8174 44.3119
" />
<path d="M9.8174 44.3119
L9.8174 44.6929
" />
<path d="M9.8174 44.6929
L9.8650 44.7881
" />
<path d="M9.8650 44.7881
L9.9126 44.8357
" />
<path d="M9.9126 44.8357
L10.0079 44.8833
" />
<path d="M10.0079 44.8833
L10.1507 44.8833
" />
<path d="M10.1507 44.8833
L10.2460 44.8357
" />
<path d="M10.2460 44.8357
L10.2936 44.7881
" />
<path d="M10.2936 44.7881
L10.3412 44.6929
" />
<path d="M10.3412 44.6929
L10.3412 44.3119
" />
<path d="M9.8174 45.2167
L9.8174 45.8833
" />
<path d="M9.8174 45.8833
L10.8174 45.4548
" />
</g><g transform="rotate(-90.000000 68.4500 45.3000)">
<text x="68.4500" y="45.8000"
transform="scale(-1 1) translate(-136.900000 0)"
textLength="2.1274" font-size="1.3333" lengthAdjust="spacingAndGlyphs"
text-anchor="middle" opacity="0">D9</text>
</g>
<g class="stroked-text"><desc>D9</desc>
<path d="M68.8174 44.5619
L67.8174 44.5619
" />
<path d="M67.8174 44.5619
L67.8174 44.8000
" />
<path d="M67.8174 44.8000
L67.8650 44.9429
" />
<path d="M67.8650 44.9429
L67.9602 45.0381
" />
<path d="M67.9602 45.0381
L68.0555 45.0857
" />
<path d="M68.0555 45.0857
L68.2460 45.1333
" />
<path d="M68.2460 45.1333
L68.3888 45.1333
" />
<path d="M68.3888 45.1333
L68.5793 45.0857
" />
<path d="M68.5793 45.0857
L68.6745 45.0381
" />
<path d="M68.6745 45.0381
L68.7698 44.9429
" />
<path d="M68.7698 44.9429
L68.8174 44.8000
" />
<path d="M68.8174 44.8000
L68.8174 44.5619
" />
<path d="M68.8174 45.6095
L68.8174 45.8000
" />
<path d="M68.8174 45.8000
L68.7698 45.8952
" />
<path d="M68.7698 45.8952
L68.7221 45.9429
" />
<path d="M68.7221 45.9429
L68.5793 46.0381
" />
<path d="M68.5793 46.0381
L68.3888 46.0857
" />
<path d="M68.3888 46.0857
L68.0079 46.0857
" />
<path d="M68.0079 46.0857
L67.9126 46.0381
" />
<path d="M67.9126 46.0381
L67.8650 45.9905
" />
<path d="M67.8650 45.9905
L67.8174 45.8952
" />
<path d="M67.8174 45.8952
L67.8174 45.7048
" />
<path d="M67.8174 45.7048
L67.8650 45.6095
" />
<path d="M67.8650 45.6095
L67.9126 45.5619
" />
<path d="M67.9126 45.5619
L68.0079 45.5143
" />
<path d="M68.0079 45.5143
L68.2460 45.5143
" />
<path d="M68.2460 45.5143
L68.3412 45.5619
" />
<path d="M68.3412 45.5619
L68.3888 45.6095
" />
<path d="M68.3888 45.6095
L68.4364 45.7048
" />
<path d="M68.4364 45.7048
L68.4364 45.8952
" />
<path d="M68.4364 45.8952
L68.3888 45.9905
" />
<path d="M68.3888 45.9905
L68.3412 46.0381
" />
<path d="M68.3412 46.0381
L68.2460 46.0857
" />
</g><g transform="rotate(45.000000 72.2000 14.0500)">
<text x="72.2000" y="14.5500"
transform="scale(-1 1) translate(-144.400000 0)"
textLength="2.1750" font-size="1.3333" lengthAdjust="spacingAndGlyphs"
text-anchor="middle" opacity="0">U1</text>
</g>
<g class="stroked-text"><desc>U1</desc>
<path d="M73.1861 14.1414
L72.6137 14.7138
" />
<path d="M72.6137 14.7138
L72.5126 14.7475
" />
<path d="M72.5126 14.7475
L72.4453 14.7475
" />
<path d="M72.4453 14.7475
L72.3443 14.7138
" />
<path d="M72.3443 14.7138
L72.2096 14.5792
" />
<path d="M72.2096 14.5792
L72.1759 14.4781
" />
<path d="M72.1759 14.4781
L72.1759 14.4108
" />
<path d="M72.1759 14.4108
L72.2096 14.3098
" />
<path d="M72.2096 14.3098
L72.7820 13.7374
" />
<path d="M71.3678 13.7374
L71.7719 14.1414
" />
<path d="M71.5698 13.9394
L72.2769 13.2323
" />
<path d="M72.2769 13.2323
L72.2433 13.4006
" />
<path d="M72.2433 13.4006
L72.2433 13.5353
" />
<path d="M72.2433 13.5353
L72.2769 13.6363
" />
</g><text x="70.7000" y="17.0500"
transform="scale(-1 1) translate(-141.400000 0)"
textLength="2.1274" font-size="1.3333" lengthAdjust="spacingAndGlyphs"
text-anchor="middle" opacity="0">C1</text>
<g class="stroked-text"><desc>C1</desc>
<path d="M70.8667 16.8221
L70.9143 16.8698
" />
<path d="M70.9143 16.8698
L71.0571 16.9174
" />
<path d="M71.0571 16.9174
L71.1524 16.9174
" />
<path d="M71.1524 16.9174
L71.2952 16.8698
" />
<path d="M71.2952 16.8698
L71.3905 16.7745
" />
<path d="M71.3905 16.7745
L71.4381 16.6793
" />
<path d="M71.4381 16.6793
L71.4857 16.4888
" />
<path d="M71.4857 16.4888
L71.4857 16.3460
" />
<path d="M71.4857 16.3460
L71.4381 16.1555
" />
<path d="M71.4381 16.1555
L71.3905 16.0602
" />
<path d="M71.3905 16.0602
L71.2952 15.9650
" />
<path d="M71.2952 15.9650
L71.1524 15.9174
" />
<path d="M71.1524 15.9174
L71.0571 15.9174
" />
<path d="M71.0571 15.9174
L70.9143 15.9650
" />
<path d="M70.9143 15.9650
L70.8667 16.0126
" />
<path d="M69.9143 16.9174
L70.4857 16.9174
" />
<path d="M70.2000 16.9174
L70.2000 15.9174
" />
<path d="M70.2000 15.9174
L70.2952 16.0602
" />
<path d="M70.2952 16.0602
L70.3905 16.1555
" />
<path d="M70.3905 16.1555
L70.4857 16.2031
" />
</g><g transform="rotate(45.000000 77.9500 17.8000)">
<text x="77.9500" y="18.3000"
transform="scale(-1 1) translate(-155.900000 0)"
textLength="2.1274" font-size="1.3333" lengthAdjust="spacingAndGlyphs"
text-anchor="middle" opacity="0">R2</text>
</g>
<g class="stroked-text"><desc>R2</desc>
<path d="M77.8081 18.1776
L78.3805 18.0766
" />
<path d="M78.2121 18.5817
L78.9192 17.8746
" />
<path d="M78.9192 17.8746
L78.6499 17.6052
" />
<path d="M78.6499 17.6052
L78.5489 17.5715
" />
<path d="M78.5489 17.5715
L78.4815 17.5715
" />
<path d="M78.4815 17.5715
L78.3805 17.6052
" />
<path d="M78.3805 17.6052
L78.2795 17.7062
" />
<path d="M78.2795 17.7062
L78.2458 17.8072
" />
<path d="M78.2458 17.8072
L78.2458 17.8746
" />
<path d="M78.2458 17.8746
L78.2795 17.9756
" />
<path d="M78.2795 17.9756
L78.5489 18.2450
" />
<path d="M78.1785 17.2685
L78.1785 17.2011
" />
<path d="M78.1785 17.2011
L78.1448 17.1001
" />
<path d="M78.1448 17.1001
L77.9764 16.9318
" />
<path d="M77.9764 16.9318
L77.8754 16.8981
" />
<path d="M77.8754 16.8981
L77.8081 16.8981
" />
<path d="M77.8081 16.8981
L77.7071 16.9318
" />
<path d="M77.7071 16.9318
L77.6397 16.9991
" />
<path d="M77.6397 16.9991
L77.5724 17.1338
" />
<path d="M77.5724 17.1338
L77.5724 17.9419
" />
<path d="M77.5724 17.9419
L77.1346 17.5042
" />
</g><g transform="rotate(-90.000000 14.7000 20.8000)">
<text x="14.7000" y="21.3000"
transform="scale(-1 1) translate(-29.400000 0)"
textLength="2.1274" font-size="1.3333" lengthAdjust="spacingAndGlyphs"
text-anchor="middle" opacity="0">D0</text>
</g>
<g class="stroked-text"><desc>D0</desc>
<path d="M15.0674 20.0619
L14.0674 20.0619
" />
<path d="M14.0674 20.0619
L14.0674 20.3000
" />
<path d="M14.0674 20.3000
L14.1150 20.4429
" />
<path d="M14.1150 20.4429
L14.2102 20.5381
" />
<path d="M14.2102 20.5381
L14.3055 20.5857
" />
<path d="M14.3055 20.5857
L14.4960 20.6333
" />
<path d="M14.4960 20.6333
L14.6388 20.6333
" />
<path d="M14.6388 20.6333
L14.8293 20.5857
" />
<path d="M14.8293 20.5857
L14.9245 20.5381
" />
<path d="M14.9245 20.5381
L15.0198 20.4429
" />
<path d="M15.0198 20.4429
L15.0674 20.3000
" />
<path d="M15.0674 20.3000
L15.0674 20.0619
" />
<path d="M14.0674 21.2524
L14.0674 21.3476
" />
<path d="M14.0674 21.3476
L14.1150 21.4429
" />
<path d="M14.1150 21.4429
L14.1626 21.4905
" />
<path d="M14.1626 21.4905
L14.2579 21.5381
" />
<path d="M14.2579 21.5381
L14.4483 21.5857
" />
<path d="M14.4483 21.5857
L14.6864 21.5857
" />
<path d="M14.6864 21.5857
L14.8769 21.5381
" />
<path d="M14.8769 21.5381
L14.9721 21.4905
" />
<path d="M14.9721 21.4905
L15.0198 21.4429
" />
<path d="M15.0198 21.4429
L15.0674 21.3476
" />
<path d="M15.0674 21.3476
L15.0674 21.2524
" />
<path d="M15.0674 21.2524
L15.0198 21.1571
" />
<path d="M15.0198 21.1571
L14.9721 21.1095
" />
<path d="M14.9721 21.1095
L14.8769 21.0619
" />
<path d="M14.8769 21.0619
L14.6864 21.0143
" />
<path d="M14.6864 21.0143
L14.4483 21.0143
" />
<path d="M14.4483 21.0143
L14.2579 21.0619
" />
<path d="M14.2579 21.0619
L14.1626 21.1095
" />
<path d="M14.1626 21.1095
L14.1150 21.1571
" />
<path d="M14.1150 21.1571
L14.0674 21.2524
" />
</g><g transform="rotate(-90.000000 32.4500 45.3000)">
<text x="32.4500" y="45.8000"
transform="scale(-1 1) translate(-64.900000 0)"
textLength="2.1274" font-size="1.3333" lengthAdjust="spacingAndGlyphs"
text-anchor="middle" opacity="0">D7</text>
</g>
<g class="stroked-text"><desc>D7</desc>
<path d="M32.8174 44.5619
L31.8174 44.5619
" />
<path d="M31.8174 44.5619
L31.8174 44.8000
" />
<path d="M31.8174 44.8000
L31.8650 44.9429
" />
<path d="M31.8650 44.9429
L31.9602 45.0381
" />
<path d="M31.9602 45.0381
L32.0555 45.0857
" />
<path d="M32.0555 45.0857
L32.2460 45.1333
" />
<path d="M32.2460 45.1333
L32.3888 45.1333
" />
<path d="M32.3888 45.1333
L32.5793 45.0857
" />
<path d="M32.5793 45.0857
L32.6745 45.0381
" />
<path d="M32.6745 45.0381
L32.7698 44.9429
" />
<path d="M32.7698 44.9429
L32.8174 44.8000
" />
<path d="M32.8174 44.8000
L32.8174 44.5619
" />
<path d="M31.8174 45.4667
L31.8174 46.1333
" />
<path d="M31.8174 46.1333
L32.8174 45.7048
" />
</g><g transform="rotate(-90.000000 90.2000 11.7000)">
<text x="90.2000" y="12.2000"
transform="scale(-1 1) translate(-180.400000 0)"
textLength="2.1274" font-size="1.3333" lengthAdjust="spacingAndGlyphs"
text-anchor="middle" opacity="0">C7</text>
</g>
<g class="stroked-text"><desc>C7</desc>
<path d="M90.4721 11.5333
L90.5198 11.4857
" />
<path d="M90.5198 11.4857
L90.5674 11.3429
" />
<path d="M90.5674 11.3429
L90.5674 11.2476
" />
<path d="M90.5674 11.2476
L90.5198 11.1048
" />
<path d="M90.5198 11.1048
L90.4245 11.0095
" />
<path d="M90.4245 11.0095
L90.3293 10.9619
" />
<path d="M90.3293 10.9619
L90.1388 10.9143
" />
<path d="M90.1388 10.9143
L89.9960 10.9143
" />
<path d="M89.9960 10.9143
L89.8055 10.9619
" />
<path d="M89.8055 10.9619
L89.7102 11.0095
" />
<path d="M89.7102 11.0095
L89.6150 11.1048
" />
<path d="M89.6150 11.1048
L89.5674 11.2476
" />
<path d="M89.5674 11.2476
L89.5674 11.3429
" />
<path d="M89.5674 11.3429
L89.6150 11.4857
" />
<path d="M89.6150 11.4857
L89.6626 11.5333
" />
<path d="M89.5674 11.8667
L89.5674 12.5333
" />
<path d="M89.5674 12.5333
L90.5674 12.1048
" />
</g><text x="82.5000" y="8.2000"
transform="scale(-1 1) translate(-165.000000 0)"
textLength="2.1274" font-size="1.3333" lengthAdjust="spacingAndGlyphs"
text-anchor="middle" opacity="0">C9</text>
<g class="stroked-text"><desc>C9</desc>
<path d="M82.6667 7.9721
L82.7143 8.0198
" />
<path d="M82.7143 8.0198
L82.8571 8.0674
" />
<path d="M82.8571 8.0674
L82.9524 8.0674
" />
<path d="M82.9524 8.0674
L83.0952 8.0198
" />
<path d="M83.0952 8.0198
L83.1905 7.9245
" />
<path d="M83.1905 7.9245
L83.2381 7.8293
" />
<path d="M83.2381 7.8293
L83.2857 7.6388
" />
<path d="M83.2857 7.6388
L83.2857 7.4960
" />
<path d="M83.2857 7.4960
L83.2381 7.3055
" />
<path d="M83.2381 7.3055
L83.1905 7.2102
" />
<path d="M83.1905 7.2102
L83.0952 7.1150
" />
<path d="M83.0952 7.1150
L82.9524 7.0674
" />
<path d="M82.9524 7.0674
L82.8571 7.0674
" />
<path d="M82.8571 7.0674
L82.7143 7.1150
" />
<path d="M82.7143 7.1150
L82.6667 7.1626
" />
<path d="M82.1905 8.0674
L82.0000 8.0674
" />
<path d="M82.0000 8.0674
L81.9048 8.0198
" />
<path d="M81.9048 8.0198
L81.8571 7.9721
" />
<path d="M81.8571 7.9721
L81.7619 7.8293
" />
<path d="M81.7619 7.8293
L81.7143 7.6388
" />
<path d="M81.7143 7.6388
L81.7143 7.2579
" />
<path d="M81.7143 7.2579
L81.7619 7.1626
" />
<path d="M81.7619 7.1626
L81.8095 7.1150
" />
<path d="M81.8095 7.1150
L81.9048 7.0674
" />
<path d="M81.9048 7.0674
L82.0952 7.0674
" />
<path d="M82.0952 7.0674
L82.1905 7.1150
" />
<path d="M82.1905 7.1150
L82.2381 7.1626
" />
<path d="M82.2381 7.1626
L82.2857 7.2579
" />
<path d="M82.2857 7.2579
L82.2857 7.4960
" />
<path d="M82.2857 7.4960
L82.2381 7.5912
" />
<path d="M82.2381 7.5912
L82.1905 7.6388
" />
<path d="M82.1905 7.6388
L82.0952 7.6864
" />
<path d="M82.0952 7.6864
L81.9048 7.6864
" />
<path d="M81.9048 7.6864
L81.8095 7.6388
" />
<path d="M81.8095 7.6388
L81.7619 7.5912
" />
<path d="M81.7619 7.5912
L81.7143 7.4960
" />
</g><g transform="rotate(-90.000000 89.6263 29.4000)">
<text x="89.6263" y="29.9000"
transform="scale(-1 1) translate(-179.252692 0)"
textLength="2.1274" font-size="1.3333" lengthAdjust="spacingAndGlyphs"
text-anchor="middle" opacity="0">R1</text>
</g>
<g class="stroked-text"><desc>R1</desc>
<path d="M89.9937 29.2333
L89.5175 28.9000
" />
<path d="M89.9937 28.6619
L88.9937 28.6619
" />
<path d="M88.9937 28.6619
L88.9937 29.0429
" />
<path d="M88.9937 29.0429
L89.0413 29.1381
" />
<path d="M89.0413 29.1381
L89.0890 29.1857
" />
<path d="M89.0890 29.1857
L89.1842 29.2333
" />
<path d="M89.1842 29.2333
L89.3271 29.2333
" />
<path d="M89.3271 29.2333
L89.4223 29.1857
" />
<path d="M89.4223 29.1857
L89.4699 29.1381
" />
<path d="M89.4699 29.1381
L89.5175 29.0429
" />
<path d="M89.5175 29.0429
L89.5175 28.6619
" />
<path d="M89.9937 30.1857
L89.9937 29.6143
" />
<path d="M89.9937 29.9000
L88.9937 29.9000
" />
<path d="M88.9937 29.9000
L89.1366 29.8048
" />
<path d="M89.1366 29.8048
L89.2318 29.7095
" />
<path d="M89.2318 29.7095
L89.2794 29.6143
" />
</g></g>
<g style="fill:#E8B2A7; fill-opacity:0.0; 
stroke:#E8B2A7; stroke-width:0.1200; stroke-opacity:1; 
stroke-linecap:round; stroke-linejoin:round;">
<path d="M52.8700 6.9750
L52.8700 8.7750
" />
<path d="M52.8700 4.8750
L52.8700 3.7250
" />
<path d="M43.5300 6.9750
L43.5300 8.7750
" />
<path d="M43.5300 4.8750
L43.5300 3.7250
" />
<path d="M57.7300 7.2600
L57.7300 9.3400
" />
<path d="M59.0000 5.5800
L61.9000 5.5800
" />
<path d="M59.0000 11.0200
L61.9000 11.0200
" />
<path d="M63.1700 7.2600
L63.1700 9.3400
" />
<path d="M59.0000 11.0200
L58.5100 10.5300
" />
<path d="M61.9000 5.5800
L62.3900 6.0700
" />
<path d="M59.0000 5.5800
L58.5100 6.0700
" />
<path d="M61.9000 11.0200
L62.3900 10.5300
" />
</g>
<g style="fill:#E8B2A7; fill-opacity:0.0; 
stroke:#E8B2A7; stroke-width:0.1500; stroke-opacity:1; 
stroke-linecap:round; stroke-linejoin:round;">
<path d="M64.2000 45.8000
L64.2000 45.3000
" />
<path d="M64.2000 41.7000
L64.2000 41.1000
" />
<path d="M64.2000 41.1000
L59.7000 41.1000
" />
<path d="M59.7000 45.8000
L64.2000 45.8000
" />
<path d="M59.7000 45.1000
L59.7000 45.8000
" />
<path d="M59.2000 40.6000
L59.2000 39.6000
" />
<path d="M58.7000 39.1000
L59.2000 39.6000
" />
<path d="M55.7000 43.6000
L58.2000 43.6000
" />
<path d="M55.7000 39.1000
L58.7000 39.1000
" />
<path d="M55.2000 43.1000
L55.7000 43.6000
" />
<path d="M55.2000 39.6000
L55.7000 39.1000
" />
<path d="M59.2000 40.6000 A0.5000 0.5000 0.0 0 0 59.7000 41.1000" />
<path d="M59.7000 45.1000 A1.5000 1.5000 0.0 0 0 58.2000 43.6000" />
<path d="M32.2000 31.8000
L32.2000 32.3000
" />
<path d="M32.2000 35.9000
L32.2000 36.5000
" />
<path d="M32.2000 36.5000
L36.7000 36.5000
" />
<path d="M36.7000 31.8000
L32.2000 31.8000
" />
<path d="M36.7000 32.5000
L36.7000 31.8000
" />
<path d="M37.2000 37.0000
L37.2000 38.0000
" />
<path d="M37.7000 38.5000
L37.2000 38.0000
" />
<path d="M40.7000 34.0000
L38.2000 34.0000
" />
<path d="M40.7000 38.5000
L37.7000 38.5000
" />
<path d="M41.2000 34.5000
L40.7000 34.0000
" />
<path d="M41.2000 38.0000
L40.7000 38.5000
" />
<path d="M37.2000 37.0000 A0.5000 0.5000 0.0 0 0 36.7000 36.5000" />
<path d="M36.7000 32.5000 A1.5000 1.5000 0.0 0 0 38.2000 34.0000" />
<path d="M50.2000 31.8000
L50.2000 32.3000
" />
<path d="M50.2000 35.9000
L50.2000 36.5000
" />
<path d="M50.2000 36.5000
L54.7000 36.5000
" />
<path d="M54.7000 31.8000
L50.2000 31.8000
" />
<path d="M54.7000 32.5000
L54.7000 31.8000
" />
<path d="M55.2000 37.0000
L55.2000 38.0000
" />
<path d="M55.7000 38.5000
L55.2000 38.0000
" />
<path d="M58.7000 34.0000
L56.2000 34.0000
" />
<path d="M58.7000 38.5000
L55.7000 38.5000
" />
<path d="M59.2000 34.5000
L58.7000 34.0000
" />
<path d="M59.2000 38.0000
L58.7000 38.5000
" />
<path d="M55.2000 37.0000 A0.5000 0.5000 0.0 0 0 54.7000 36.5000" />
<path d="M54.7000 32.5000 A1.5000 1.5000 0.0 0 0 56.2000 34.0000" />
<path d="M68.2000 31.8000
L68.2000 32.3000
" />
<path d="M68.2000 35.9000
L68.2000 36.5000
" />
<path d="M68.2000 36.5000
L72.7000 36.5000
" />
<path d="M72.7000 31.8000
L68.2000 31.8000
" />
<path d="M72.7000 32.5000
L72.7000 31.8000
" />
<path d="M73.2000 37.0000
L73.2000 38.0000
" />
<path d="M73.7000 38.5000
L73.2000 38.0000
" />
<path d="M76.7000 34.0000
L74.2000 34.0000
" />
<path d="M76.7000 38.5000
L73.7000 38.5000
" />
<path d="M77.2000 34.5000
L76.7000 34.0000
" />
<path d="M77.2000 38.0000
L76.7000 38.5000
" />
<path d="M73.2000 37.0000 A0.5000 0.5000 0.0 0 0 72.7000 36.5000" />
<path d="M72.7000 32.5000 A1.5000 1.5000 0.0 0 0 74.2000 34.0000" />
<path d="M54.7000 15.5000 A1.5000 1.5000 0.0 0 0 56.2000 17.0000" />
<path d="M55.2000 20.0000 A0.5000 0.5000 0.0 0 0 54.7000 19.5000" />
<path d="M59.2000 21.0000
L58.7000 21.5000
" />
<path d="M59.2000 17.5000
L58.7000 17.0000
" />
<path d="M58.7000 21.5000
L55.7000 21.5000
" />
<path d="M58.7000 17.0000
L56.2000 17.0000
" />
<path d="M55.7000 21.5000
L55.2000 21.0000
" />
<path d="M55.2000 20.0000
L55.2000 21.0000
" />
<path d="M54.7000 15.5000
L54.7000 14.8000
" />
<path d="M54.7000 14.8000
L50.2000 14.8000
" />
<path d="M50.2000 19.5000
L54.7000 19.5000
" />
<path d="M50.2000 18.9000
L50.2000 19.5000
" />
<path d="M50.2000 14.8000
L50.2000 15.3000
" />
<path d="M32.2000 14.8000
L32.2000 15.3000
" />
<path d="M32.2000 18.9000
L32.2000 19.5000
" />
<path d="M32.2000 19.5000
L36.7000 19.5000
" />
<path d="M36.7000 14.8000
L32.2000 14.8000
" />
<path d="M36.7000 15.5000
L36.7000 14.8000
" />
<path d="M37.2000 20.0000
L37.2000 21.0000
" />
<path d="M37.7000 21.5000
L37.2000 21.0000
" />
<path d="M40.7000 17.0000
L38.2000 17.0000
" />
<path d="M40.7000 21.5000
L37.7000 21.5000
" />
<path d="M41.2000 17.5000
L40.7000 17.0000
" />
<path d="M41.2000 21.0000
L40.7000 21.5000
" />
<path d="M37.2000 20.0000 A0.5000 0.5000 0.0 0 0 36.7000 19.5000" />
<path d="M36.7000 15.5000 A1.5000 1.5000 0.0 0 0 38.2000 17.0000" />
<path d="M82.2000 45.8000
L82.2000 45.3000
" />
<path d="M82.2000 41.7000
L82.2000 41.1000
" />
<path d="M82.2000 41.1000
L77.7000 41.1000
" />
<path d="M77.7000 45.8000
L82.2000 45.8000
" />
<path d="M77.7000 45.1000
L77.7000 45.8000
" />
<path d="M77.2000 40.6000
L77.2000 39.6000
" />
<path d="M76.7000 39.1000
L77.2000 39.6000
" />
<path d="M73.7000 43.6000
L76.2000 43.6000
" />
<path d="M73.7000 39.1000
L76.7000 39.1000
" />
<path d="M73.2000 43.1000
L73.7000 43.6000
" />
<path d="M73.2000 39.6000
L73.7000 39.1000
" />
<path d="M77.2000 40.6000 A0.5000 0.5000 0.0 0 0 77.7000 41.1000" />
<path d="M77.7000 45.1000 A1.5000 1.5000 0.0 0 0 76.2000 43.6000" />
<path d="M14.2000 14.8000
L14.2000 15.3000
" />
<path d="M14.2000 18.9000
L14.2000 19.5000
" />
<path d="M14.2000 19.5000
L18.7000 19.5000
" />
<path d="M18.7000 14.8000
L14.2000 14.8000
" />
<path d="M18.7000 15.5000
L18.7000 14.8000
" />
<path d="M19.2000 20.0000
L19.2000 21.0000
" />
<path d="M19.7000 21.5000
L19.2000 21.0000
" />
<path d="M22.7000 17.0000
L20.2000 17.0000
" />
<path d="M22.7000 21.5000
L19.7000 21.5000
" />
<path d="M23.2000 17.5000
L22.7000 17.0000
" />
<path d="M23.2000 21.0000
L22.7000 21.5000
" />
<path d="M19.2000 20.0000 A0.5000 0.5000 0.0 0 0 18.7000 19.5000" />
<path d="M18.7000 15.5000 A1.5000 1.5000 0.0 0 0 20.2000 17.0000" />
<path d="M14.2000 31.8000
L14.2000 32.3000
" />
<path d="M14.2000 35.9000
L14.2000 36.5000
" />
<path d="M14.2000 36.5000
L18.7000 36.5000
" />
<path d="M18.7000 31.8000
L14.2000 31.8000
" />
<path d="M18.7000 32.5000
L18.7000 31.8000
" />
<path d="M19.2000 37.0000
L19.2000 38.0000
" />
<path d="M19.7000 38.5000
L19.2000 38.0000
" />
<path d="M22.7000 34.0000
L20.2000 34.0000
" />
<path d="M22.7000 38.5000
L19.7000 38.5000
" />
<path d="M23.2000 34.5000
L22.7000 34.0000
" />
<path d="M23.2000 38.0000
L22.7000 38.5000
" />
<path d="M19.2000 37.0000 A0.5000 0.5000 0.0 0 0 18.7000 36.5000" />
<path d="M18.7000 32.5000 A1.5000 1.5000 0.0 0 0 20.2000 34.0000" />
<path d="M28.2000 45.8000
L28.2000 45.3000
" />
<path d="M28.2000 41.7000
L28.2000 41.1000
" />
<path d="M28.2000 41.1000
L23.7000 41.1000
" />
<path d="M23.7000 45.8000
L28.2000 45.8000
" />
<path d="M23.7000 45.1000
L23.7000 45.8000
" />
<path d="M23.2000 40.6000
L23.2000 39.6000
" />
<path d="M22.7000 39.1000
L23.2000 39.6000
" />
<path d="M19.7000 43.6000
L22.2000 43.6000
" />
<path d="M19.7000 39.1000
L22.7000 39.1000
" />
<path d="M19.2000 43.1000
L19.7000 43.6000
" />
<path d="M19.2000 39.6000
L19.7000 39.1000
" />
<path d="M23.2000 40.6000 A0.5000 0.5000 0.0 0 0 23.7000 41.1000" />
<path d="M23.7000 45.1000 A1.5000 1.5000 0.0 0 0 22.2000 43.6000" />
<path d="M46.2000 45.8000
L46.2000 45.3000
" />
<path d="M46.2000 41.7000
L46.2000 41.1000
" />
<path d="M46.2000 41.1000
L41.7000 41.1000
" />
<path d="M41.7000 45.8000
L46.2000 45.8000
" />
<path d="M41.7000 45.1000
L41.7000 45.8000
" />
<path d="M41.2000 40.6000
L41.2000 39.6000
" />
<path d="M40.7000 39.1000
L41.2000 39.6000
" />
<path d="M37.7000 43.6000
L40.2000 43.6000
" />
<path d="M37.7000 39.1000
L40.7000 39.1000
" />
<path d="M37.2000 43.1000
L37.7000 43.6000
" />
<path d="M37.2000 39.6000
L37.7000 39.1000
" />
<path d="M41.2000 40.6000 A0.5000 0.5000 0.0 0 0 41.7000 41.1000" />
<path d="M41.7000 45.1000 A1.5000 1.5000 0.0 0 0 40.2000 43.6000" />
</g>
<g style="fill:#E8B2A7; fill-opacity:0.0; 
stroke:#E8B2A7; stroke-width:0.1200; stroke-opacity:1; 
stroke-linecap:round; stroke-linejoin:round;">
<path d="M48.2150 21.7850
L48.2150 19.5000
" />
<path d="M49.6850 21.7850
L48.2150 21.7850
" />
<path d="M49.6850 19.5000
L49.6850 21.7850
" />
<path d="M88.6600 35.0612
L88.4612 35.2600
" />
<path d="M87.9388 34.3400
L87.7400 34.5388
" />
<path d="M85.9600 12.4094
L85.9600 12.6906
" />
<path d="M84.9400 12.4094
L84.9400 12.6906
" />
<path d="M84.1850 38.8150
L84.1850 41.1000
" />
<path d="M82.7150 38.8150
L84.1850 38.8150
" />
<path d="M82.7150 41.1000
L82.7150 38.8150
" />
<path d="M82.3344 11.2900
L82.6156 11.2900
" />
<path d="M82.3344 12.3100
L82.6156 12.3100
" />
<path d="M77.9017 14.0128
L78.2372 14.3483
" />
<path d="M77.1628 14.7517
L77.4983 15.0872
" />
<path d="M46.4275 13.5373
L46.4275 13.0627
" />
<path d="M47.4725 13.5373
L47.4725 13.0627
" />
<path d="M89.7500 12.7000
L89.7500 16.7000
" />
<path d="M86.4500 12.7000
L89.7500 12.7000
" />
<path d="M87.9594 17.1900
L88.2406 17.1900
" />
<path d="M87.9594 18.2100
L88.2406 18.2100
" />
<path d="M80.6350 11.1979
L80.6350 12.4021
" />
<path d="M78.8150 11.1979
L78.8150 12.4021
" />
<path d="M9.4725 34.8127
L9.4725 35.2873
" />
<path d="M8.4275 34.8127
L8.4275 35.2873
" />
<path d="M51.1850 41.3150
L51.1850 43.6000
" />
<path d="M49.7150 41.3150
L51.1850 41.3150
" />
<path d="M49.7150 43.6000
L49.7150 41.3150
" />
<path d="M28.6850 34.0000
L28.6850 36.2850
" />
<path d="M28.6850 36.2850
L27.2150 36.2850
" />
<path d="M27.2150 36.2850
L27.2150 34.0000
" />
</g>
<g style="fill:#E8B2A7; fill-opacity:0.0; 
stroke:#E8B2A7; stroke-width:0.1500; stroke-opacity:1; 
stroke-linecap:round; stroke-linejoin:round;">
<path d="M78.8235 23.3000
L79.0533 23.5298
" />
<path d="M78.8235 23.3000
L79.0533 23.0702
" />
<path d="M83.9500 28.4265
L83.7202 28.1967
" />
<path d="M83.9500 28.4265
L84.1798 28.1967
" />
<path d="M83.9500 18.1735
L83.7202 18.4033
" />
<path d="M83.9500 18.1735
L84.1091 18.3326
" />
<path d="M84.1091 18.3326
L85.1167 17.3249
" />
<path d="M89.0765 23.3000
L88.8467 23.5298
" />
<path d="M89.0765 23.3000
L88.8467 23.0702
" />
</g>
<g style="fill:#E8B2A7; fill-opacity:0.0; 
stroke:#E8B2A7; stroke-width:0.1200; stroke-opacity:1; 
stroke-linecap:round; stroke-linejoin:round;">
<path d="M82.3344 12.7900
L82.6156 12.7900
" />
<path d="M82.3344 13.8100
L82.6156 13.8100
" />
<path d="M68.1873 5.7775
L67.7127 5.7775
" />
<path d="M68.1873 6.8225
L67.7127 6.8225
" />
<path d="M48.9275 13.5373
L48.9275 13.0627
" />
<path d="M49.9725 13.5373
L49.9725 13.0627
" />
<path d="M30.2150 21.7850
L30.2150 19.5000
" />
<path d="M31.6850 21.7850
L30.2150 21.7850
" />
<path d="M31.6850 19.5000
L31.6850 21.7850
" />
<path d="M63.2150 36.2850
L63.2150 34.0000
" />
<path d="M64.6850 36.2850
L63.2150 36.2850
" />
<path d="M64.6850 34.0000
L64.6850 36.2850
" />
<path d="M8.4275 25.2873
L8.4275 24.8127
" />
<path d="M9.4725 25.2873
L9.4725 24.8127
" />
<path d="M12.2150 38.7850
L12.2150 36.5000
" />
<path d="M13.6850 38.7850
L12.2150 38.7850
" />
<path d="M13.6850 36.5000
L13.6850 38.7850
" />
<path d="M45.2150 36.2850
L45.2150 34.0000
" />
<path d="M46.6850 36.2850
L45.2150 36.2850
" />
<path d="M46.6850 34.0000
L46.6850 36.2850
" />
<path d="M8.4275 45.2873
L8.4275 44.8127
" />
<path d="M9.4725 45.2873
L9.4725 44.8127
" />
<path d="M67.7150 43.6000
L67.7150 41.3150
" />
<path d="M67.7150 41.3150
L69.1850 41.3150
" />
<path d="M69.1850 41.3150
L69.1850 43.6000
" />
<path d="M72.8469 13.4031
L73.4126 13.9688
" />
<path d="M72.8469 13.4031
L72.2812 12.8374
" />
<path d="M75.0531 11.1969
L76.3259 12.4697
" />
<path d="M75.0531 11.1969
L74.4874 10.6312
" />
<path d="M71.9400 16.6906
L71.9400 16.4094
" />
<path d="M72.9600 16.6906
L72.9600 16.4094
" />
<path d="M76.4017 15.5128
L76.7372 15.8483
" />
<path d="M75.6628 16.2517
L75.9983 16.5872
" />
<path d="M12.2150 21.7850
L12.2150 19.5000
" />
<path d="M13.6850 21.7850
L12.2150 21.7850
" />
<path d="M13.6850 19.5000
L13.6850 21.7850
" />
<path d="M33.1850 41.3150
L33.1850 43.6000
" />
<path d="M31.7150 41.3150
L33.1850 41.3150
" />
<path d="M31.7150 43.6000
L31.7150 41.3150
" />
<path d="M88.2406 12.2100
L87.9594 12.2100
" />
<path d="M88.2406 11.1900
L87.9594 11.1900
" />
<path d="M82.3344 9.7900
L82.6156 9.7900
" />
<path d="M82.3344 10.8100
L82.6156 10.8100
" />
<path d="M88.5225 29.6373
L88.5225 29.1627
" />
<path d="M87.4775 29.6373
L87.4775 29.1627
" />
<g >
</g>
<g >
</g>
<g >
</g>
<g >
</g>
<g >
</g>
<g >
</g>
<g >
</g>
<g >
</g>
<g >
</g>
<g >
</g>
<g >
</g>
<g >
</g>
<g >
</g>
<g >
</g>
<g >
</g>
<g >
</g>
<g >
</g>
<g >
</g>
<g >
</g>
<g >
</g>
<g >
</g>
<g >
</g>
<g >
</g>
<g >
</g>
<g >
</g>
<g >
</g>
<g >
</g>
<g >
</g>
<g >
</g>
<g >
</g>
<g >
</g>
<g >
</g>
<g >
</g>
<g >
</g>
<g >
</g>
<g >
</g>
<g >
</g>
<g >
</g>
<g >
</g>
<g >
</g>
<g >
</g>
<g >
</g>
<g >
</g>
<g >
</g>
<g >
</g>
<g >
</g>
<g >
</g>
<g >
</g>
<g >
</g>
<g >
</g>
<g >
</g>
<g >
</g>
<g >
</g>
<g >
</g>
<g >
</g>
<g >
</g>
</g>
<g style="fill:#000000; fill-opacity:0.0; 
stroke:#000000; stroke-width:0.1200; stroke-opacity:1; 
stroke-linecap:round; stroke-linejoin:round;">
</g>
<g style="fill:#D0D2CD; fill-opacity:0.0; 
stroke:#D0D2CD; stroke-width:0.1200; stroke-opacity:1; 
stroke-linecap:round; stroke-linejoin:round;">
</g>
<g style="fill:#D0D2CD; fill-opacity:0.0; 
stroke:#D0D2CD; stroke-width:0.1500; stroke-opacity:1; 
stroke-linecap:round; stroke-linejoin:round;">
<path d="M5.4500 53.8000 A3.5000 3.5000 0.0 0 0 8.9500 57.3000" />
<path d="M87.4500 57.3000 A3.5000 3.5000 0.0 0 0 90.9500 53.8000" />
<path d="M8.9500 3.3000
L87.4500 3.3000
" />
<path d="M5.4500 6.8000
L5.4500 53.8000
" />
<path d="M8.9500 3.3000 A3.5000 3.5000 0.0 0 0 5.4500 6.8000" />
<path d="M90.9500 53.8000
L90.9500 6.8000
" />
<path d="M8.9500 57.3000
L87.4500 57.3000
" />
<path d="M90.9500 6.8000 A3.5000 3.5000 0.0 0 0 87.4500 3.3000" />
<g >
</g>
<g >
</g>
<g >
</g>
<g >
</g>
<g >
</g>
<g >
</g>
<g >
</g>
<g >
</g>
<g >
</g>
<g >
</g>
<g >
</g>
<g >
</g>
<g >
</g>
<g >
</g>
<g >
</g>
<g >
</g>
<g >
</g>
<g >
</g>
<g >
</g>
<g >
</g>
<g >
</g>
<g >
</g>
<g >
</g>
<g >
</g>
<g >
</g>
<g >
</g>
<g >
</g>
<g >
</g>
<g >
</g>
<g >
</g>
<g >
</g>
<g >
</g>
<g >
</g>
<g >
</g>
<g >
</g>
<g >
</g>
<g >
</g>
<g >
</g>
<g >
</g>
<g >
</g>
<g >
</g>
<g >
</g>
<g >
</g>
<g >
</g>
<g >
</g>
<g >
</g>
<g >
</g>
<g >
</g>
<g >
</g>
<g >
</g>
<g >
</g>
<g >
</g>
<g >
</g>
<g >
</g>
<g >
</g>
<g >
</g>
</g> 
</svg>
