%TF.GenerationSoftware,KiCad,Pcbnew,(7.0.0)*%
%TF.CreationDate,2023-03-20T18:36:51-07:00*%
%TF.ProjectId,Credit Card PCB V1,43726564-6974-4204-9361-726420504342,rev?*%
%TF.SameCoordinates,Original*%
%TF.FileFunction,Soldermask,Top*%
%TF.FilePolarity,Negative*%
%FSLAX46Y46*%
G04 Gerber Fmt 4.6, Leading zero omitted, Abs format (unit mm)*
G04 Created by KiCad (PCBNEW (7.0.0)) date 2023-03-20 18:36:51*
%MOMM*%
%LPD*%
G01*
G04 APERTURE LIST*
G04 Aperture macros list*
%AMRoundRect*
0 Rectangle with rounded corners*
0 $1 Rounding radius*
0 $2 $3 $4 $5 $6 $7 $8 $9 X,Y pos of 4 corners*
0 Add a 4 corners polygon primitive as box body*
4,1,4,$2,$3,$4,$5,$6,$7,$8,$9,$2,$3,0*
0 Add four circle primitives for the rounded corners*
1,1,$1+$1,$2,$3*
1,1,$1+$1,$4,$5*
1,1,$1+$1,$6,$7*
1,1,$1+$1,$8,$9*
0 Add four rect primitives between the rounded corners*
20,1,$1+$1,$2,$3,$4,$5,0*
20,1,$1+$1,$4,$5,$6,$7,0*
20,1,$1+$1,$6,$7,$8,$9,0*
20,1,$1+$1,$8,$9,$2,$3,0*%
G04 Aperture macros list end*
%ADD10C,0.700000*%
%ADD11C,6.000000*%
%ADD12R,2.000000X2.000000*%
%ADD13C,2.000000*%
%ADD14R,3.000000X2.500000*%
%ADD15RoundRect,0.243750X-0.456250X0.243750X-0.456250X-0.243750X0.456250X-0.243750X0.456250X0.243750X0*%
%ADD16C,1.701800*%
%ADD17C,3.000000*%
%ADD18C,3.429000*%
%ADD19C,0.650000*%
%ADD20O,1.000000X1.800000*%
%ADD21O,1.000000X2.100000*%
G04 APERTURE END LIST*
D10*
%TO.C,SW0*%
X145000000Y-67400000D03*
X145000000Y-65600000D03*
%TD*%
%TO.C,H3*%
X167416726Y-116666726D03*
X166250000Y-113850000D03*
X165083274Y-114333274D03*
X164600000Y-115500000D03*
X167416726Y-114333274D03*
X165083274Y-116666726D03*
X166250000Y-117150000D03*
D11*
X166250000Y-115500000D03*
D10*
X167900000Y-115500000D03*
%TD*%
%TO.C,H2*%
X88916726Y-116666726D03*
X87750000Y-113850000D03*
X86583274Y-114333274D03*
X86100000Y-115500000D03*
X88916726Y-114333274D03*
X86583274Y-116666726D03*
X87750000Y-117150000D03*
D11*
X87750000Y-115500000D03*
D10*
X89400000Y-115500000D03*
%TD*%
%TO.C,H1*%
X167416726Y-69666726D03*
X166250000Y-66850000D03*
X165083274Y-67333274D03*
X164600000Y-68500000D03*
X167416726Y-67333274D03*
X165083274Y-69666726D03*
X166250000Y-70150000D03*
D11*
X166250000Y-68500000D03*
D10*
X167900000Y-68500000D03*
%TD*%
%TO.C,H0*%
X88916726Y-69666726D03*
X87750000Y-66850000D03*
X86583274Y-67333274D03*
X86100000Y-68500000D03*
X88916726Y-67333274D03*
X86583274Y-69666726D03*
X87750000Y-70150000D03*
D11*
X87750000Y-68500000D03*
D10*
X89400000Y-68500000D03*
%TD*%
D12*
%TO.C,SW1*%
X146499999Y-72749999D03*
D13*
X146500000Y-77750000D03*
X146500000Y-75250000D03*
D14*
X153999999Y-69649999D03*
X153999999Y-80849999D03*
%TD*%
D15*
%TO.C,D13*%
X87750000Y-91062500D03*
X87750000Y-92937500D03*
%TD*%
D16*
%TO.C,MX9*%
X141500000Y-109000000D03*
D17*
X141000000Y-105250000D03*
D18*
X136000000Y-109000000D03*
D17*
X136000000Y-103050000D03*
D16*
X130500000Y-109000000D03*
%TD*%
%TO.C,MX4*%
X112500000Y-92000000D03*
D17*
X113000000Y-95750000D03*
D18*
X118000000Y-92000000D03*
D17*
X118000000Y-97950000D03*
D16*
X123500000Y-92000000D03*
%TD*%
%TO.C,MX5*%
X130500000Y-92000000D03*
D17*
X131000000Y-95750000D03*
D18*
X136000000Y-92000000D03*
D17*
X136000000Y-97950000D03*
D16*
X141500000Y-92000000D03*
%TD*%
D15*
%TO.C,D12*%
X87750000Y-81062500D03*
X87750000Y-82937500D03*
%TD*%
D16*
%TO.C,MX6*%
X148500000Y-92000000D03*
D17*
X149000000Y-95750000D03*
D18*
X154000000Y-92000000D03*
D17*
X154000000Y-97950000D03*
D16*
X159500000Y-92000000D03*
%TD*%
%TO.C,MX2*%
X130500000Y-75000000D03*
D17*
X131000000Y-78750000D03*
D18*
X136000000Y-75000000D03*
D17*
X136000000Y-80950000D03*
D16*
X141500000Y-75000000D03*
%TD*%
%TO.C,MX1*%
X112500000Y-75000000D03*
D17*
X113000000Y-78750000D03*
D18*
X118000000Y-75000000D03*
D17*
X118000000Y-80950000D03*
D16*
X123500000Y-75000000D03*
%TD*%
%TO.C,MX10*%
X159500000Y-109000000D03*
D17*
X159000000Y-105250000D03*
D18*
X154000000Y-109000000D03*
D17*
X154000000Y-103050000D03*
D16*
X148500000Y-109000000D03*
%TD*%
%TO.C,MX0*%
X94500000Y-75000000D03*
D17*
X95000000Y-78750000D03*
D18*
X100000000Y-75000000D03*
D17*
X100000000Y-80950000D03*
D16*
X105500000Y-75000000D03*
%TD*%
D15*
%TO.C,D14*%
X87750000Y-101062500D03*
X87750000Y-102937500D03*
%TD*%
D16*
%TO.C,MX3*%
X94500000Y-92000000D03*
D17*
X95000000Y-95750000D03*
D18*
X100000000Y-92000000D03*
D17*
X100000000Y-97950000D03*
D16*
X105500000Y-92000000D03*
%TD*%
%TO.C,MX7*%
X105500000Y-109000000D03*
D17*
X105000000Y-105250000D03*
D18*
X100000000Y-109000000D03*
D17*
X100000000Y-103050000D03*
D16*
X94500000Y-109000000D03*
%TD*%
%TO.C,MX8*%
X123500000Y-109000000D03*
D17*
X123000000Y-105250000D03*
D18*
X118000000Y-109000000D03*
D17*
X118000000Y-103050000D03*
D16*
X112500000Y-109000000D03*
%TD*%
D19*
%TO.C,J1*%
X124110000Y-71055000D03*
X129890000Y-71055000D03*
D20*
X122679999Y-67374999D03*
D21*
X122679999Y-71554999D03*
D20*
X131319999Y-67374999D03*
D21*
X131319999Y-71554999D03*
%TD*%
M02*
