%TF.GenerationSoftware,KiCad,Pcbnew,(7.0.0)*%
%TF.CreationDate,2023-03-20T18:36:51-07:00*%
%TF.ProjectId,Credit Card PCB V1,43726564-6974-4204-9361-726420504342,rev?*%
%TF.SameCoordinates,Original*%
%TF.FileFunction,Legend,Bot*%
%TF.FilePolarity,Positive*%
%FSLAX46Y46*%
G04 Gerber Fmt 4.6, Leading zero omitted, Abs format (unit mm)*
G04 Created by KiCad (PCBNEW (7.0.0)) date 2023-03-20 18:36:51*
%MOMM*%
%LPD*%
G01*
G04 APERTURE LIST*
%ADD10C,0.150000*%
%ADD11C,0.120000*%
G04 APERTURE END LIST*
D10*
%TO.C,F1*%
X158346314Y-72875090D02*
X158582016Y-73110792D01*
X158211627Y-73481182D02*
X158918733Y-72774075D01*
X158918733Y-72774075D02*
X158582016Y-72437357D01*
X157235146Y-72504701D02*
X157639207Y-72908762D01*
X157437176Y-72706731D02*
X158144283Y-71999624D01*
X158144283Y-71999624D02*
X158110611Y-72167983D01*
X158110611Y-72167983D02*
X158110611Y-72302670D01*
X158110611Y-72302670D02*
X158144283Y-72403686D01*
%TO.C,SW0*%
X146333332Y-69319761D02*
X146190475Y-69367380D01*
X146190475Y-69367380D02*
X145952380Y-69367380D01*
X145952380Y-69367380D02*
X145857142Y-69319761D01*
X145857142Y-69319761D02*
X145809523Y-69272142D01*
X145809523Y-69272142D02*
X145761904Y-69176904D01*
X145761904Y-69176904D02*
X145761904Y-69081666D01*
X145761904Y-69081666D02*
X145809523Y-68986428D01*
X145809523Y-68986428D02*
X145857142Y-68938809D01*
X145857142Y-68938809D02*
X145952380Y-68891190D01*
X145952380Y-68891190D02*
X146142856Y-68843571D01*
X146142856Y-68843571D02*
X146238094Y-68795952D01*
X146238094Y-68795952D02*
X146285713Y-68748333D01*
X146285713Y-68748333D02*
X146333332Y-68653095D01*
X146333332Y-68653095D02*
X146333332Y-68557857D01*
X146333332Y-68557857D02*
X146285713Y-68462619D01*
X146285713Y-68462619D02*
X146238094Y-68415000D01*
X146238094Y-68415000D02*
X146142856Y-68367380D01*
X146142856Y-68367380D02*
X145904761Y-68367380D01*
X145904761Y-68367380D02*
X145761904Y-68415000D01*
X145428570Y-68367380D02*
X145190475Y-69367380D01*
X145190475Y-69367380D02*
X144999999Y-68653095D01*
X144999999Y-68653095D02*
X144809523Y-69367380D01*
X144809523Y-69367380D02*
X144571428Y-68367380D01*
X143999999Y-68367380D02*
X143904761Y-68367380D01*
X143904761Y-68367380D02*
X143809523Y-68415000D01*
X143809523Y-68415000D02*
X143761904Y-68462619D01*
X143761904Y-68462619D02*
X143714285Y-68557857D01*
X143714285Y-68557857D02*
X143666666Y-68748333D01*
X143666666Y-68748333D02*
X143666666Y-68986428D01*
X143666666Y-68986428D02*
X143714285Y-69176904D01*
X143714285Y-69176904D02*
X143761904Y-69272142D01*
X143761904Y-69272142D02*
X143809523Y-69319761D01*
X143809523Y-69319761D02*
X143904761Y-69367380D01*
X143904761Y-69367380D02*
X143999999Y-69367380D01*
X143999999Y-69367380D02*
X144095237Y-69319761D01*
X144095237Y-69319761D02*
X144142856Y-69272142D01*
X144142856Y-69272142D02*
X144190475Y-69176904D01*
X144190475Y-69176904D02*
X144238094Y-68986428D01*
X144238094Y-68986428D02*
X144238094Y-68748333D01*
X144238094Y-68748333D02*
X144190475Y-68557857D01*
X144190475Y-68557857D02*
X144142856Y-68462619D01*
X144142856Y-68462619D02*
X144095237Y-68415000D01*
X144095237Y-68415000D02*
X143999999Y-68367380D01*
%TO.C,C3*%
X160166666Y-73022142D02*
X160214285Y-73069761D01*
X160214285Y-73069761D02*
X160357142Y-73117380D01*
X160357142Y-73117380D02*
X160452380Y-73117380D01*
X160452380Y-73117380D02*
X160595237Y-73069761D01*
X160595237Y-73069761D02*
X160690475Y-72974523D01*
X160690475Y-72974523D02*
X160738094Y-72879285D01*
X160738094Y-72879285D02*
X160785713Y-72688809D01*
X160785713Y-72688809D02*
X160785713Y-72545952D01*
X160785713Y-72545952D02*
X160738094Y-72355476D01*
X160738094Y-72355476D02*
X160690475Y-72260238D01*
X160690475Y-72260238D02*
X160595237Y-72165000D01*
X160595237Y-72165000D02*
X160452380Y-72117380D01*
X160452380Y-72117380D02*
X160357142Y-72117380D01*
X160357142Y-72117380D02*
X160214285Y-72165000D01*
X160214285Y-72165000D02*
X160166666Y-72212619D01*
X159833332Y-72117380D02*
X159214285Y-72117380D01*
X159214285Y-72117380D02*
X159547618Y-72498333D01*
X159547618Y-72498333D02*
X159404761Y-72498333D01*
X159404761Y-72498333D02*
X159309523Y-72545952D01*
X159309523Y-72545952D02*
X159261904Y-72593571D01*
X159261904Y-72593571D02*
X159214285Y-72688809D01*
X159214285Y-72688809D02*
X159214285Y-72926904D01*
X159214285Y-72926904D02*
X159261904Y-73022142D01*
X159261904Y-73022142D02*
X159309523Y-73069761D01*
X159309523Y-73069761D02*
X159404761Y-73117380D01*
X159404761Y-73117380D02*
X159690475Y-73117380D01*
X159690475Y-73117380D02*
X159785713Y-73069761D01*
X159785713Y-73069761D02*
X159833332Y-73022142D01*
%TO.C,C2*%
X160166666Y-68772142D02*
X160214285Y-68819761D01*
X160214285Y-68819761D02*
X160357142Y-68867380D01*
X160357142Y-68867380D02*
X160452380Y-68867380D01*
X160452380Y-68867380D02*
X160595237Y-68819761D01*
X160595237Y-68819761D02*
X160690475Y-68724523D01*
X160690475Y-68724523D02*
X160738094Y-68629285D01*
X160738094Y-68629285D02*
X160785713Y-68438809D01*
X160785713Y-68438809D02*
X160785713Y-68295952D01*
X160785713Y-68295952D02*
X160738094Y-68105476D01*
X160738094Y-68105476D02*
X160690475Y-68010238D01*
X160690475Y-68010238D02*
X160595237Y-67915000D01*
X160595237Y-67915000D02*
X160452380Y-67867380D01*
X160452380Y-67867380D02*
X160357142Y-67867380D01*
X160357142Y-67867380D02*
X160214285Y-67915000D01*
X160214285Y-67915000D02*
X160166666Y-67962619D01*
X159785713Y-67962619D02*
X159738094Y-67915000D01*
X159738094Y-67915000D02*
X159642856Y-67867380D01*
X159642856Y-67867380D02*
X159404761Y-67867380D01*
X159404761Y-67867380D02*
X159309523Y-67915000D01*
X159309523Y-67915000D02*
X159261904Y-67962619D01*
X159261904Y-67962619D02*
X159214285Y-68057857D01*
X159214285Y-68057857D02*
X159214285Y-68153095D01*
X159214285Y-68153095D02*
X159261904Y-68295952D01*
X159261904Y-68295952D02*
X159833332Y-68867380D01*
X159833332Y-68867380D02*
X159214285Y-68867380D01*
%TO.C,MX9*%
X142285713Y-111367380D02*
X142285713Y-110367380D01*
X142285713Y-110367380D02*
X141952380Y-111081666D01*
X141952380Y-111081666D02*
X141619047Y-110367380D01*
X141619047Y-110367380D02*
X141619047Y-111367380D01*
X141238094Y-110367380D02*
X140571428Y-111367380D01*
X140571428Y-110367380D02*
X141238094Y-111367380D01*
X140142856Y-111367380D02*
X139952380Y-111367380D01*
X139952380Y-111367380D02*
X139857142Y-111319761D01*
X139857142Y-111319761D02*
X139809523Y-111272142D01*
X139809523Y-111272142D02*
X139714285Y-111129285D01*
X139714285Y-111129285D02*
X139666666Y-110938809D01*
X139666666Y-110938809D02*
X139666666Y-110557857D01*
X139666666Y-110557857D02*
X139714285Y-110462619D01*
X139714285Y-110462619D02*
X139761904Y-110415000D01*
X139761904Y-110415000D02*
X139857142Y-110367380D01*
X139857142Y-110367380D02*
X140047618Y-110367380D01*
X140047618Y-110367380D02*
X140142856Y-110415000D01*
X140142856Y-110415000D02*
X140190475Y-110462619D01*
X140190475Y-110462619D02*
X140238094Y-110557857D01*
X140238094Y-110557857D02*
X140238094Y-110795952D01*
X140238094Y-110795952D02*
X140190475Y-110891190D01*
X140190475Y-110891190D02*
X140142856Y-110938809D01*
X140142856Y-110938809D02*
X140047618Y-110986428D01*
X140047618Y-110986428D02*
X139857142Y-110986428D01*
X139857142Y-110986428D02*
X139761904Y-110938809D01*
X139761904Y-110938809D02*
X139714285Y-110891190D01*
X139714285Y-110891190D02*
X139666666Y-110795952D01*
%TO.C,MX4*%
X114285713Y-90367380D02*
X114285713Y-89367380D01*
X114285713Y-89367380D02*
X113952380Y-90081666D01*
X113952380Y-90081666D02*
X113619047Y-89367380D01*
X113619047Y-89367380D02*
X113619047Y-90367380D01*
X113238094Y-89367380D02*
X112571428Y-90367380D01*
X112571428Y-89367380D02*
X113238094Y-90367380D01*
X111761904Y-89700714D02*
X111761904Y-90367380D01*
X111999999Y-89319761D02*
X112238094Y-90034047D01*
X112238094Y-90034047D02*
X111619047Y-90034047D01*
%TO.C,MX5*%
X132285713Y-90367380D02*
X132285713Y-89367380D01*
X132285713Y-89367380D02*
X131952380Y-90081666D01*
X131952380Y-90081666D02*
X131619047Y-89367380D01*
X131619047Y-89367380D02*
X131619047Y-90367380D01*
X131238094Y-89367380D02*
X130571428Y-90367380D01*
X130571428Y-89367380D02*
X131238094Y-90367380D01*
X129714285Y-89367380D02*
X130190475Y-89367380D01*
X130190475Y-89367380D02*
X130238094Y-89843571D01*
X130238094Y-89843571D02*
X130190475Y-89795952D01*
X130190475Y-89795952D02*
X130095237Y-89748333D01*
X130095237Y-89748333D02*
X129857142Y-89748333D01*
X129857142Y-89748333D02*
X129761904Y-89795952D01*
X129761904Y-89795952D02*
X129714285Y-89843571D01*
X129714285Y-89843571D02*
X129666666Y-89938809D01*
X129666666Y-89938809D02*
X129666666Y-90176904D01*
X129666666Y-90176904D02*
X129714285Y-90272142D01*
X129714285Y-90272142D02*
X129761904Y-90319761D01*
X129761904Y-90319761D02*
X129857142Y-90367380D01*
X129857142Y-90367380D02*
X130095237Y-90367380D01*
X130095237Y-90367380D02*
X130190475Y-90319761D01*
X130190475Y-90319761D02*
X130238094Y-90272142D01*
%TO.C,MX6*%
X150285713Y-90367380D02*
X150285713Y-89367380D01*
X150285713Y-89367380D02*
X149952380Y-90081666D01*
X149952380Y-90081666D02*
X149619047Y-89367380D01*
X149619047Y-89367380D02*
X149619047Y-90367380D01*
X149238094Y-89367380D02*
X148571428Y-90367380D01*
X148571428Y-89367380D02*
X149238094Y-90367380D01*
X147761904Y-89367380D02*
X147952380Y-89367380D01*
X147952380Y-89367380D02*
X148047618Y-89415000D01*
X148047618Y-89415000D02*
X148095237Y-89462619D01*
X148095237Y-89462619D02*
X148190475Y-89605476D01*
X148190475Y-89605476D02*
X148238094Y-89795952D01*
X148238094Y-89795952D02*
X148238094Y-90176904D01*
X148238094Y-90176904D02*
X148190475Y-90272142D01*
X148190475Y-90272142D02*
X148142856Y-90319761D01*
X148142856Y-90319761D02*
X148047618Y-90367380D01*
X148047618Y-90367380D02*
X147857142Y-90367380D01*
X147857142Y-90367380D02*
X147761904Y-90319761D01*
X147761904Y-90319761D02*
X147714285Y-90272142D01*
X147714285Y-90272142D02*
X147666666Y-90176904D01*
X147666666Y-90176904D02*
X147666666Y-89938809D01*
X147666666Y-89938809D02*
X147714285Y-89843571D01*
X147714285Y-89843571D02*
X147761904Y-89795952D01*
X147761904Y-89795952D02*
X147857142Y-89748333D01*
X147857142Y-89748333D02*
X148047618Y-89748333D01*
X148047618Y-89748333D02*
X148142856Y-89795952D01*
X148142856Y-89795952D02*
X148190475Y-89843571D01*
X148190475Y-89843571D02*
X148238094Y-89938809D01*
%TO.C,MX2*%
X132285713Y-73367380D02*
X132285713Y-72367380D01*
X132285713Y-72367380D02*
X131952380Y-73081666D01*
X131952380Y-73081666D02*
X131619047Y-72367380D01*
X131619047Y-72367380D02*
X131619047Y-73367380D01*
X131238094Y-72367380D02*
X130571428Y-73367380D01*
X130571428Y-72367380D02*
X131238094Y-73367380D01*
X130238094Y-72462619D02*
X130190475Y-72415000D01*
X130190475Y-72415000D02*
X130095237Y-72367380D01*
X130095237Y-72367380D02*
X129857142Y-72367380D01*
X129857142Y-72367380D02*
X129761904Y-72415000D01*
X129761904Y-72415000D02*
X129714285Y-72462619D01*
X129714285Y-72462619D02*
X129666666Y-72557857D01*
X129666666Y-72557857D02*
X129666666Y-72653095D01*
X129666666Y-72653095D02*
X129714285Y-72795952D01*
X129714285Y-72795952D02*
X130285713Y-73367380D01*
X130285713Y-73367380D02*
X129666666Y-73367380D01*
%TO.C,MX1*%
X114285713Y-73367380D02*
X114285713Y-72367380D01*
X114285713Y-72367380D02*
X113952380Y-73081666D01*
X113952380Y-73081666D02*
X113619047Y-72367380D01*
X113619047Y-72367380D02*
X113619047Y-73367380D01*
X113238094Y-72367380D02*
X112571428Y-73367380D01*
X112571428Y-72367380D02*
X113238094Y-73367380D01*
X111666666Y-73367380D02*
X112238094Y-73367380D01*
X111952380Y-73367380D02*
X111952380Y-72367380D01*
X111952380Y-72367380D02*
X112047618Y-72510238D01*
X112047618Y-72510238D02*
X112142856Y-72605476D01*
X112142856Y-72605476D02*
X112238094Y-72653095D01*
%TO.C,MX10*%
X160761904Y-111367380D02*
X160761904Y-110367380D01*
X160761904Y-110367380D02*
X160428571Y-111081666D01*
X160428571Y-111081666D02*
X160095238Y-110367380D01*
X160095238Y-110367380D02*
X160095238Y-111367380D01*
X159714285Y-110367380D02*
X159047619Y-111367380D01*
X159047619Y-110367380D02*
X159714285Y-111367380D01*
X158142857Y-111367380D02*
X158714285Y-111367380D01*
X158428571Y-111367380D02*
X158428571Y-110367380D01*
X158428571Y-110367380D02*
X158523809Y-110510238D01*
X158523809Y-110510238D02*
X158619047Y-110605476D01*
X158619047Y-110605476D02*
X158714285Y-110653095D01*
X157523809Y-110367380D02*
X157428571Y-110367380D01*
X157428571Y-110367380D02*
X157333333Y-110415000D01*
X157333333Y-110415000D02*
X157285714Y-110462619D01*
X157285714Y-110462619D02*
X157238095Y-110557857D01*
X157238095Y-110557857D02*
X157190476Y-110748333D01*
X157190476Y-110748333D02*
X157190476Y-110986428D01*
X157190476Y-110986428D02*
X157238095Y-111176904D01*
X157238095Y-111176904D02*
X157285714Y-111272142D01*
X157285714Y-111272142D02*
X157333333Y-111319761D01*
X157333333Y-111319761D02*
X157428571Y-111367380D01*
X157428571Y-111367380D02*
X157523809Y-111367380D01*
X157523809Y-111367380D02*
X157619047Y-111319761D01*
X157619047Y-111319761D02*
X157666666Y-111272142D01*
X157666666Y-111272142D02*
X157714285Y-111176904D01*
X157714285Y-111176904D02*
X157761904Y-110986428D01*
X157761904Y-110986428D02*
X157761904Y-110748333D01*
X157761904Y-110748333D02*
X157714285Y-110557857D01*
X157714285Y-110557857D02*
X157666666Y-110462619D01*
X157666666Y-110462619D02*
X157619047Y-110415000D01*
X157619047Y-110415000D02*
X157523809Y-110367380D01*
%TO.C,MX0*%
X96285713Y-73367380D02*
X96285713Y-72367380D01*
X96285713Y-72367380D02*
X95952380Y-73081666D01*
X95952380Y-73081666D02*
X95619047Y-72367380D01*
X95619047Y-72367380D02*
X95619047Y-73367380D01*
X95238094Y-72367380D02*
X94571428Y-73367380D01*
X94571428Y-72367380D02*
X95238094Y-73367380D01*
X93999999Y-72367380D02*
X93904761Y-72367380D01*
X93904761Y-72367380D02*
X93809523Y-72415000D01*
X93809523Y-72415000D02*
X93761904Y-72462619D01*
X93761904Y-72462619D02*
X93714285Y-72557857D01*
X93714285Y-72557857D02*
X93666666Y-72748333D01*
X93666666Y-72748333D02*
X93666666Y-72986428D01*
X93666666Y-72986428D02*
X93714285Y-73176904D01*
X93714285Y-73176904D02*
X93761904Y-73272142D01*
X93761904Y-73272142D02*
X93809523Y-73319761D01*
X93809523Y-73319761D02*
X93904761Y-73367380D01*
X93904761Y-73367380D02*
X93999999Y-73367380D01*
X93999999Y-73367380D02*
X94095237Y-73319761D01*
X94095237Y-73319761D02*
X94142856Y-73272142D01*
X94142856Y-73272142D02*
X94190475Y-73176904D01*
X94190475Y-73176904D02*
X94238094Y-72986428D01*
X94238094Y-72986428D02*
X94238094Y-72748333D01*
X94238094Y-72748333D02*
X94190475Y-72557857D01*
X94190475Y-72557857D02*
X94142856Y-72462619D01*
X94142856Y-72462619D02*
X94095237Y-72415000D01*
X94095237Y-72415000D02*
X93999999Y-72367380D01*
%TO.C,MX3*%
X96285713Y-90367380D02*
X96285713Y-89367380D01*
X96285713Y-89367380D02*
X95952380Y-90081666D01*
X95952380Y-90081666D02*
X95619047Y-89367380D01*
X95619047Y-89367380D02*
X95619047Y-90367380D01*
X95238094Y-89367380D02*
X94571428Y-90367380D01*
X94571428Y-89367380D02*
X95238094Y-90367380D01*
X94285713Y-89367380D02*
X93666666Y-89367380D01*
X93666666Y-89367380D02*
X93999999Y-89748333D01*
X93999999Y-89748333D02*
X93857142Y-89748333D01*
X93857142Y-89748333D02*
X93761904Y-89795952D01*
X93761904Y-89795952D02*
X93714285Y-89843571D01*
X93714285Y-89843571D02*
X93666666Y-89938809D01*
X93666666Y-89938809D02*
X93666666Y-90176904D01*
X93666666Y-90176904D02*
X93714285Y-90272142D01*
X93714285Y-90272142D02*
X93761904Y-90319761D01*
X93761904Y-90319761D02*
X93857142Y-90367380D01*
X93857142Y-90367380D02*
X94142856Y-90367380D01*
X94142856Y-90367380D02*
X94238094Y-90319761D01*
X94238094Y-90319761D02*
X94285713Y-90272142D01*
%TO.C,MX7*%
X106285713Y-111367380D02*
X106285713Y-110367380D01*
X106285713Y-110367380D02*
X105952380Y-111081666D01*
X105952380Y-111081666D02*
X105619047Y-110367380D01*
X105619047Y-110367380D02*
X105619047Y-111367380D01*
X105238094Y-110367380D02*
X104571428Y-111367380D01*
X104571428Y-110367380D02*
X105238094Y-111367380D01*
X104285713Y-110367380D02*
X103619047Y-110367380D01*
X103619047Y-110367380D02*
X104047618Y-111367380D01*
%TO.C,MX8*%
X124285713Y-111367380D02*
X124285713Y-110367380D01*
X124285713Y-110367380D02*
X123952380Y-111081666D01*
X123952380Y-111081666D02*
X123619047Y-110367380D01*
X123619047Y-110367380D02*
X123619047Y-111367380D01*
X123238094Y-110367380D02*
X122571428Y-111367380D01*
X122571428Y-110367380D02*
X123238094Y-111367380D01*
X122047618Y-110795952D02*
X122142856Y-110748333D01*
X122142856Y-110748333D02*
X122190475Y-110700714D01*
X122190475Y-110700714D02*
X122238094Y-110605476D01*
X122238094Y-110605476D02*
X122238094Y-110557857D01*
X122238094Y-110557857D02*
X122190475Y-110462619D01*
X122190475Y-110462619D02*
X122142856Y-110415000D01*
X122142856Y-110415000D02*
X122047618Y-110367380D01*
X122047618Y-110367380D02*
X121857142Y-110367380D01*
X121857142Y-110367380D02*
X121761904Y-110415000D01*
X121761904Y-110415000D02*
X121714285Y-110462619D01*
X121714285Y-110462619D02*
X121666666Y-110557857D01*
X121666666Y-110557857D02*
X121666666Y-110605476D01*
X121666666Y-110605476D02*
X121714285Y-110700714D01*
X121714285Y-110700714D02*
X121761904Y-110748333D01*
X121761904Y-110748333D02*
X121857142Y-110795952D01*
X121857142Y-110795952D02*
X122047618Y-110795952D01*
X122047618Y-110795952D02*
X122142856Y-110843571D01*
X122142856Y-110843571D02*
X122190475Y-110891190D01*
X122190475Y-110891190D02*
X122238094Y-110986428D01*
X122238094Y-110986428D02*
X122238094Y-111176904D01*
X122238094Y-111176904D02*
X122190475Y-111272142D01*
X122190475Y-111272142D02*
X122142856Y-111319761D01*
X122142856Y-111319761D02*
X122047618Y-111367380D01*
X122047618Y-111367380D02*
X121857142Y-111367380D01*
X121857142Y-111367380D02*
X121761904Y-111319761D01*
X121761904Y-111319761D02*
X121714285Y-111272142D01*
X121714285Y-111272142D02*
X121666666Y-111176904D01*
X121666666Y-111176904D02*
X121666666Y-110986428D01*
X121666666Y-110986428D02*
X121714285Y-110891190D01*
X121714285Y-110891190D02*
X121761904Y-110843571D01*
X121761904Y-110843571D02*
X121857142Y-110795952D01*
%TO.C,D2*%
X129867380Y-81761905D02*
X128867380Y-81761905D01*
X128867380Y-81761905D02*
X128867380Y-82000000D01*
X128867380Y-82000000D02*
X128915000Y-82142857D01*
X128915000Y-82142857D02*
X129010238Y-82238095D01*
X129010238Y-82238095D02*
X129105476Y-82285714D01*
X129105476Y-82285714D02*
X129295952Y-82333333D01*
X129295952Y-82333333D02*
X129438809Y-82333333D01*
X129438809Y-82333333D02*
X129629285Y-82285714D01*
X129629285Y-82285714D02*
X129724523Y-82238095D01*
X129724523Y-82238095D02*
X129819761Y-82142857D01*
X129819761Y-82142857D02*
X129867380Y-82000000D01*
X129867380Y-82000000D02*
X129867380Y-81761905D01*
X128962619Y-82714286D02*
X128915000Y-82761905D01*
X128915000Y-82761905D02*
X128867380Y-82857143D01*
X128867380Y-82857143D02*
X128867380Y-83095238D01*
X128867380Y-83095238D02*
X128915000Y-83190476D01*
X128915000Y-83190476D02*
X128962619Y-83238095D01*
X128962619Y-83238095D02*
X129057857Y-83285714D01*
X129057857Y-83285714D02*
X129153095Y-83285714D01*
X129153095Y-83285714D02*
X129295952Y-83238095D01*
X129295952Y-83238095D02*
X129867380Y-82666667D01*
X129867380Y-82666667D02*
X129867380Y-83285714D01*
%TO.C,C10*%
X164012134Y-77897002D02*
X164012134Y-77964346D01*
X164012134Y-77964346D02*
X164079478Y-78099033D01*
X164079478Y-78099033D02*
X164146821Y-78166376D01*
X164146821Y-78166376D02*
X164281508Y-78233720D01*
X164281508Y-78233720D02*
X164416195Y-78233720D01*
X164416195Y-78233720D02*
X164517210Y-78200048D01*
X164517210Y-78200048D02*
X164685569Y-78099033D01*
X164685569Y-78099033D02*
X164786584Y-77998017D01*
X164786584Y-77998017D02*
X164887600Y-77829659D01*
X164887600Y-77829659D02*
X164921271Y-77728643D01*
X164921271Y-77728643D02*
X164921271Y-77593956D01*
X164921271Y-77593956D02*
X164853928Y-77459269D01*
X164853928Y-77459269D02*
X164786584Y-77391926D01*
X164786584Y-77391926D02*
X164651897Y-77324582D01*
X164651897Y-77324582D02*
X164584554Y-77324582D01*
X163271356Y-77290911D02*
X163675417Y-77694972D01*
X163473386Y-77492941D02*
X164180493Y-76785834D01*
X164180493Y-76785834D02*
X164146821Y-76954193D01*
X164146821Y-76954193D02*
X164146821Y-77088880D01*
X164146821Y-77088880D02*
X164180493Y-77189895D01*
X163540730Y-76146071D02*
X163473386Y-76078728D01*
X163473386Y-76078728D02*
X163372371Y-76045056D01*
X163372371Y-76045056D02*
X163305027Y-76045056D01*
X163305027Y-76045056D02*
X163204012Y-76078728D01*
X163204012Y-76078728D02*
X163035653Y-76179743D01*
X163035653Y-76179743D02*
X162867295Y-76348102D01*
X162867295Y-76348102D02*
X162766279Y-76516460D01*
X162766279Y-76516460D02*
X162732608Y-76617476D01*
X162732608Y-76617476D02*
X162732608Y-76684819D01*
X162732608Y-76684819D02*
X162766279Y-76785834D01*
X162766279Y-76785834D02*
X162833623Y-76853178D01*
X162833623Y-76853178D02*
X162934638Y-76886850D01*
X162934638Y-76886850D02*
X163001982Y-76886850D01*
X163001982Y-76886850D02*
X163102997Y-76853178D01*
X163102997Y-76853178D02*
X163271356Y-76752163D01*
X163271356Y-76752163D02*
X163439714Y-76583804D01*
X163439714Y-76583804D02*
X163540730Y-76415445D01*
X163540730Y-76415445D02*
X163574401Y-76314430D01*
X163574401Y-76314430D02*
X163574401Y-76247086D01*
X163574401Y-76247086D02*
X163540730Y-76146071D01*
%TO.C,C8*%
X162175416Y-78560284D02*
X162175416Y-78627628D01*
X162175416Y-78627628D02*
X162242760Y-78762315D01*
X162242760Y-78762315D02*
X162310103Y-78829658D01*
X162310103Y-78829658D02*
X162444790Y-78897002D01*
X162444790Y-78897002D02*
X162579477Y-78897002D01*
X162579477Y-78897002D02*
X162680493Y-78863330D01*
X162680493Y-78863330D02*
X162848851Y-78762315D01*
X162848851Y-78762315D02*
X162949867Y-78661300D01*
X162949867Y-78661300D02*
X163050882Y-78492941D01*
X163050882Y-78492941D02*
X163084554Y-78391926D01*
X163084554Y-78391926D02*
X163084554Y-78257239D01*
X163084554Y-78257239D02*
X163017210Y-78122552D01*
X163017210Y-78122552D02*
X162949867Y-78055208D01*
X162949867Y-78055208D02*
X162815180Y-77987865D01*
X162815180Y-77987865D02*
X162747836Y-77987865D01*
X162108073Y-77819506D02*
X162209088Y-77853178D01*
X162209088Y-77853178D02*
X162276431Y-77853178D01*
X162276431Y-77853178D02*
X162377447Y-77819506D01*
X162377447Y-77819506D02*
X162411118Y-77785834D01*
X162411118Y-77785834D02*
X162444790Y-77684819D01*
X162444790Y-77684819D02*
X162444790Y-77617475D01*
X162444790Y-77617475D02*
X162411118Y-77516460D01*
X162411118Y-77516460D02*
X162276431Y-77381773D01*
X162276431Y-77381773D02*
X162175416Y-77348101D01*
X162175416Y-77348101D02*
X162108073Y-77348101D01*
X162108073Y-77348101D02*
X162007057Y-77381773D01*
X162007057Y-77381773D02*
X161973386Y-77415445D01*
X161973386Y-77415445D02*
X161939714Y-77516460D01*
X161939714Y-77516460D02*
X161939714Y-77583804D01*
X161939714Y-77583804D02*
X161973386Y-77684819D01*
X161973386Y-77684819D02*
X162108073Y-77819506D01*
X162108073Y-77819506D02*
X162141744Y-77920521D01*
X162141744Y-77920521D02*
X162141744Y-77987865D01*
X162141744Y-77987865D02*
X162108073Y-78088880D01*
X162108073Y-78088880D02*
X161973386Y-78223567D01*
X161973386Y-78223567D02*
X161872370Y-78257239D01*
X161872370Y-78257239D02*
X161805027Y-78257239D01*
X161805027Y-78257239D02*
X161704012Y-78223567D01*
X161704012Y-78223567D02*
X161569325Y-78088880D01*
X161569325Y-78088880D02*
X161535653Y-77987865D01*
X161535653Y-77987865D02*
X161535653Y-77920521D01*
X161535653Y-77920521D02*
X161569325Y-77819506D01*
X161569325Y-77819506D02*
X161704012Y-77684819D01*
X161704012Y-77684819D02*
X161805027Y-77651147D01*
X161805027Y-77651147D02*
X161872370Y-77651147D01*
X161872370Y-77651147D02*
X161973386Y-77684819D01*
%TO.C,D10*%
X160867380Y-100035714D02*
X159867380Y-100035714D01*
X159867380Y-100035714D02*
X159867380Y-100273809D01*
X159867380Y-100273809D02*
X159915000Y-100416666D01*
X159915000Y-100416666D02*
X160010238Y-100511904D01*
X160010238Y-100511904D02*
X160105476Y-100559523D01*
X160105476Y-100559523D02*
X160295952Y-100607142D01*
X160295952Y-100607142D02*
X160438809Y-100607142D01*
X160438809Y-100607142D02*
X160629285Y-100559523D01*
X160629285Y-100559523D02*
X160724523Y-100511904D01*
X160724523Y-100511904D02*
X160819761Y-100416666D01*
X160819761Y-100416666D02*
X160867380Y-100273809D01*
X160867380Y-100273809D02*
X160867380Y-100035714D01*
X160867380Y-101559523D02*
X160867380Y-100988095D01*
X160867380Y-101273809D02*
X159867380Y-101273809D01*
X159867380Y-101273809D02*
X160010238Y-101178571D01*
X160010238Y-101178571D02*
X160105476Y-101083333D01*
X160105476Y-101083333D02*
X160153095Y-100988095D01*
X159867380Y-102178571D02*
X159867380Y-102273809D01*
X159867380Y-102273809D02*
X159915000Y-102369047D01*
X159915000Y-102369047D02*
X159962619Y-102416666D01*
X159962619Y-102416666D02*
X160057857Y-102464285D01*
X160057857Y-102464285D02*
X160248333Y-102511904D01*
X160248333Y-102511904D02*
X160486428Y-102511904D01*
X160486428Y-102511904D02*
X160676904Y-102464285D01*
X160676904Y-102464285D02*
X160772142Y-102416666D01*
X160772142Y-102416666D02*
X160819761Y-102369047D01*
X160819761Y-102369047D02*
X160867380Y-102273809D01*
X160867380Y-102273809D02*
X160867380Y-102178571D01*
X160867380Y-102178571D02*
X160819761Y-102083333D01*
X160819761Y-102083333D02*
X160772142Y-102035714D01*
X160772142Y-102035714D02*
X160676904Y-101988095D01*
X160676904Y-101988095D02*
X160486428Y-101940476D01*
X160486428Y-101940476D02*
X160248333Y-101940476D01*
X160248333Y-101940476D02*
X160057857Y-101988095D01*
X160057857Y-101988095D02*
X159962619Y-102035714D01*
X159962619Y-102035714D02*
X159915000Y-102083333D01*
X159915000Y-102083333D02*
X159867380Y-102178571D01*
%TO.C,J1*%
X126666666Y-74582619D02*
X126666666Y-73868333D01*
X126666666Y-73868333D02*
X126619047Y-73725476D01*
X126619047Y-73725476D02*
X126523809Y-73630238D01*
X126523809Y-73630238D02*
X126380952Y-73582619D01*
X126380952Y-73582619D02*
X126285714Y-73582619D01*
X127666666Y-73582619D02*
X127095238Y-73582619D01*
X127380952Y-73582619D02*
X127380952Y-74582619D01*
X127380952Y-74582619D02*
X127285714Y-74439761D01*
X127285714Y-74439761D02*
X127190476Y-74344523D01*
X127190476Y-74344523D02*
X127095238Y-74296904D01*
%TO.C,R3*%
X158108073Y-78377628D02*
X158680493Y-78276613D01*
X158512134Y-78781689D02*
X159219241Y-78074582D01*
X159219241Y-78074582D02*
X158949867Y-77805208D01*
X158949867Y-77805208D02*
X158848851Y-77771536D01*
X158848851Y-77771536D02*
X158781508Y-77771536D01*
X158781508Y-77771536D02*
X158680493Y-77805208D01*
X158680493Y-77805208D02*
X158579477Y-77906223D01*
X158579477Y-77906223D02*
X158545806Y-78007239D01*
X158545806Y-78007239D02*
X158545806Y-78074582D01*
X158545806Y-78074582D02*
X158579477Y-78175597D01*
X158579477Y-78175597D02*
X158848851Y-78444971D01*
X158579477Y-77434819D02*
X158141744Y-76997086D01*
X158141744Y-76997086D02*
X158108073Y-77502162D01*
X158108073Y-77502162D02*
X158007057Y-77401147D01*
X158007057Y-77401147D02*
X157906042Y-77367475D01*
X157906042Y-77367475D02*
X157838699Y-77367475D01*
X157838699Y-77367475D02*
X157737683Y-77401147D01*
X157737683Y-77401147D02*
X157569325Y-77569506D01*
X157569325Y-77569506D02*
X157535653Y-77670521D01*
X157535653Y-77670521D02*
X157535653Y-77737865D01*
X157535653Y-77737865D02*
X157569325Y-77838880D01*
X157569325Y-77838880D02*
X157771355Y-78040910D01*
X157771355Y-78040910D02*
X157872370Y-78074582D01*
X157872370Y-78074582D02*
X157939714Y-78074582D01*
%TO.C,R5*%
X125867380Y-77083333D02*
X125391190Y-76750000D01*
X125867380Y-76511905D02*
X124867380Y-76511905D01*
X124867380Y-76511905D02*
X124867380Y-76892857D01*
X124867380Y-76892857D02*
X124915000Y-76988095D01*
X124915000Y-76988095D02*
X124962619Y-77035714D01*
X124962619Y-77035714D02*
X125057857Y-77083333D01*
X125057857Y-77083333D02*
X125200714Y-77083333D01*
X125200714Y-77083333D02*
X125295952Y-77035714D01*
X125295952Y-77035714D02*
X125343571Y-76988095D01*
X125343571Y-76988095D02*
X125391190Y-76892857D01*
X125391190Y-76892857D02*
X125391190Y-76511905D01*
X124867380Y-77988095D02*
X124867380Y-77511905D01*
X124867380Y-77511905D02*
X125343571Y-77464286D01*
X125343571Y-77464286D02*
X125295952Y-77511905D01*
X125295952Y-77511905D02*
X125248333Y-77607143D01*
X125248333Y-77607143D02*
X125248333Y-77845238D01*
X125248333Y-77845238D02*
X125295952Y-77940476D01*
X125295952Y-77940476D02*
X125343571Y-77988095D01*
X125343571Y-77988095D02*
X125438809Y-78035714D01*
X125438809Y-78035714D02*
X125676904Y-78035714D01*
X125676904Y-78035714D02*
X125772142Y-77988095D01*
X125772142Y-77988095D02*
X125819761Y-77940476D01*
X125819761Y-77940476D02*
X125867380Y-77845238D01*
X125867380Y-77845238D02*
X125867380Y-77607143D01*
X125867380Y-77607143D02*
X125819761Y-77511905D01*
X125819761Y-77511905D02*
X125772142Y-77464286D01*
%TO.C,Y1*%
X167663657Y-74259777D02*
X167326940Y-74596495D01*
X168269749Y-74125090D02*
X167663657Y-74259777D01*
X167663657Y-74259777D02*
X167798344Y-73653686D01*
X166485146Y-73754701D02*
X166889207Y-74158762D01*
X166687176Y-73956731D02*
X167394283Y-73249624D01*
X167394283Y-73249624D02*
X167360611Y-73417983D01*
X167360611Y-73417983D02*
X167360611Y-73552670D01*
X167360611Y-73552670D02*
X167394283Y-73653686D01*
%TO.C,C6*%
X168666666Y-76022142D02*
X168714285Y-76069761D01*
X168714285Y-76069761D02*
X168857142Y-76117380D01*
X168857142Y-76117380D02*
X168952380Y-76117380D01*
X168952380Y-76117380D02*
X169095237Y-76069761D01*
X169095237Y-76069761D02*
X169190475Y-75974523D01*
X169190475Y-75974523D02*
X169238094Y-75879285D01*
X169238094Y-75879285D02*
X169285713Y-75688809D01*
X169285713Y-75688809D02*
X169285713Y-75545952D01*
X169285713Y-75545952D02*
X169238094Y-75355476D01*
X169238094Y-75355476D02*
X169190475Y-75260238D01*
X169190475Y-75260238D02*
X169095237Y-75165000D01*
X169095237Y-75165000D02*
X168952380Y-75117380D01*
X168952380Y-75117380D02*
X168857142Y-75117380D01*
X168857142Y-75117380D02*
X168714285Y-75165000D01*
X168714285Y-75165000D02*
X168666666Y-75212619D01*
X167809523Y-75117380D02*
X167999999Y-75117380D01*
X167999999Y-75117380D02*
X168095237Y-75165000D01*
X168095237Y-75165000D02*
X168142856Y-75212619D01*
X168142856Y-75212619D02*
X168238094Y-75355476D01*
X168238094Y-75355476D02*
X168285713Y-75545952D01*
X168285713Y-75545952D02*
X168285713Y-75926904D01*
X168285713Y-75926904D02*
X168238094Y-76022142D01*
X168238094Y-76022142D02*
X168190475Y-76069761D01*
X168190475Y-76069761D02*
X168095237Y-76117380D01*
X168095237Y-76117380D02*
X167904761Y-76117380D01*
X167904761Y-76117380D02*
X167809523Y-76069761D01*
X167809523Y-76069761D02*
X167761904Y-76022142D01*
X167761904Y-76022142D02*
X167714285Y-75926904D01*
X167714285Y-75926904D02*
X167714285Y-75688809D01*
X167714285Y-75688809D02*
X167761904Y-75593571D01*
X167761904Y-75593571D02*
X167809523Y-75545952D01*
X167809523Y-75545952D02*
X167904761Y-75498333D01*
X167904761Y-75498333D02*
X168095237Y-75498333D01*
X168095237Y-75498333D02*
X168190475Y-75545952D01*
X168190475Y-75545952D02*
X168238094Y-75593571D01*
X168238094Y-75593571D02*
X168285713Y-75688809D01*
%TO.C,R8*%
X86687380Y-96583333D02*
X86211190Y-96250000D01*
X86687380Y-96011905D02*
X85687380Y-96011905D01*
X85687380Y-96011905D02*
X85687380Y-96392857D01*
X85687380Y-96392857D02*
X85735000Y-96488095D01*
X85735000Y-96488095D02*
X85782619Y-96535714D01*
X85782619Y-96535714D02*
X85877857Y-96583333D01*
X85877857Y-96583333D02*
X86020714Y-96583333D01*
X86020714Y-96583333D02*
X86115952Y-96535714D01*
X86115952Y-96535714D02*
X86163571Y-96488095D01*
X86163571Y-96488095D02*
X86211190Y-96392857D01*
X86211190Y-96392857D02*
X86211190Y-96011905D01*
X86115952Y-97154762D02*
X86068333Y-97059524D01*
X86068333Y-97059524D02*
X86020714Y-97011905D01*
X86020714Y-97011905D02*
X85925476Y-96964286D01*
X85925476Y-96964286D02*
X85877857Y-96964286D01*
X85877857Y-96964286D02*
X85782619Y-97011905D01*
X85782619Y-97011905D02*
X85735000Y-97059524D01*
X85735000Y-97059524D02*
X85687380Y-97154762D01*
X85687380Y-97154762D02*
X85687380Y-97345238D01*
X85687380Y-97345238D02*
X85735000Y-97440476D01*
X85735000Y-97440476D02*
X85782619Y-97488095D01*
X85782619Y-97488095D02*
X85877857Y-97535714D01*
X85877857Y-97535714D02*
X85925476Y-97535714D01*
X85925476Y-97535714D02*
X86020714Y-97488095D01*
X86020714Y-97488095D02*
X86068333Y-97440476D01*
X86068333Y-97440476D02*
X86115952Y-97345238D01*
X86115952Y-97345238D02*
X86115952Y-97154762D01*
X86115952Y-97154762D02*
X86163571Y-97059524D01*
X86163571Y-97059524D02*
X86211190Y-97011905D01*
X86211190Y-97011905D02*
X86306428Y-96964286D01*
X86306428Y-96964286D02*
X86496904Y-96964286D01*
X86496904Y-96964286D02*
X86592142Y-97011905D01*
X86592142Y-97011905D02*
X86639761Y-97059524D01*
X86639761Y-97059524D02*
X86687380Y-97154762D01*
X86687380Y-97154762D02*
X86687380Y-97345238D01*
X86687380Y-97345238D02*
X86639761Y-97440476D01*
X86639761Y-97440476D02*
X86592142Y-97488095D01*
X86592142Y-97488095D02*
X86496904Y-97535714D01*
X86496904Y-97535714D02*
X86306428Y-97535714D01*
X86306428Y-97535714D02*
X86211190Y-97488095D01*
X86211190Y-97488095D02*
X86163571Y-97440476D01*
X86163571Y-97440476D02*
X86115952Y-97345238D01*
%TO.C,D8*%
X128187380Y-102011905D02*
X127187380Y-102011905D01*
X127187380Y-102011905D02*
X127187380Y-102250000D01*
X127187380Y-102250000D02*
X127235000Y-102392857D01*
X127235000Y-102392857D02*
X127330238Y-102488095D01*
X127330238Y-102488095D02*
X127425476Y-102535714D01*
X127425476Y-102535714D02*
X127615952Y-102583333D01*
X127615952Y-102583333D02*
X127758809Y-102583333D01*
X127758809Y-102583333D02*
X127949285Y-102535714D01*
X127949285Y-102535714D02*
X128044523Y-102488095D01*
X128044523Y-102488095D02*
X128139761Y-102392857D01*
X128139761Y-102392857D02*
X128187380Y-102250000D01*
X128187380Y-102250000D02*
X128187380Y-102011905D01*
X127615952Y-103154762D02*
X127568333Y-103059524D01*
X127568333Y-103059524D02*
X127520714Y-103011905D01*
X127520714Y-103011905D02*
X127425476Y-102964286D01*
X127425476Y-102964286D02*
X127377857Y-102964286D01*
X127377857Y-102964286D02*
X127282619Y-103011905D01*
X127282619Y-103011905D02*
X127235000Y-103059524D01*
X127235000Y-103059524D02*
X127187380Y-103154762D01*
X127187380Y-103154762D02*
X127187380Y-103345238D01*
X127187380Y-103345238D02*
X127235000Y-103440476D01*
X127235000Y-103440476D02*
X127282619Y-103488095D01*
X127282619Y-103488095D02*
X127377857Y-103535714D01*
X127377857Y-103535714D02*
X127425476Y-103535714D01*
X127425476Y-103535714D02*
X127520714Y-103488095D01*
X127520714Y-103488095D02*
X127568333Y-103440476D01*
X127568333Y-103440476D02*
X127615952Y-103345238D01*
X127615952Y-103345238D02*
X127615952Y-103154762D01*
X127615952Y-103154762D02*
X127663571Y-103059524D01*
X127663571Y-103059524D02*
X127711190Y-103011905D01*
X127711190Y-103011905D02*
X127806428Y-102964286D01*
X127806428Y-102964286D02*
X127996904Y-102964286D01*
X127996904Y-102964286D02*
X128092142Y-103011905D01*
X128092142Y-103011905D02*
X128139761Y-103059524D01*
X128139761Y-103059524D02*
X128187380Y-103154762D01*
X128187380Y-103154762D02*
X128187380Y-103345238D01*
X128187380Y-103345238D02*
X128139761Y-103440476D01*
X128139761Y-103440476D02*
X128092142Y-103488095D01*
X128092142Y-103488095D02*
X127996904Y-103535714D01*
X127996904Y-103535714D02*
X127806428Y-103535714D01*
X127806428Y-103535714D02*
X127711190Y-103488095D01*
X127711190Y-103488095D02*
X127663571Y-103440476D01*
X127663571Y-103440476D02*
X127615952Y-103345238D01*
%TO.C,D4*%
X108867380Y-95761905D02*
X107867380Y-95761905D01*
X107867380Y-95761905D02*
X107867380Y-96000000D01*
X107867380Y-96000000D02*
X107915000Y-96142857D01*
X107915000Y-96142857D02*
X108010238Y-96238095D01*
X108010238Y-96238095D02*
X108105476Y-96285714D01*
X108105476Y-96285714D02*
X108295952Y-96333333D01*
X108295952Y-96333333D02*
X108438809Y-96333333D01*
X108438809Y-96333333D02*
X108629285Y-96285714D01*
X108629285Y-96285714D02*
X108724523Y-96238095D01*
X108724523Y-96238095D02*
X108819761Y-96142857D01*
X108819761Y-96142857D02*
X108867380Y-96000000D01*
X108867380Y-96000000D02*
X108867380Y-95761905D01*
X108200714Y-97190476D02*
X108867380Y-97190476D01*
X107819761Y-96952381D02*
X108534047Y-96714286D01*
X108534047Y-96714286D02*
X108534047Y-97333333D01*
%TO.C,U2*%
X158563422Y-79735926D02*
X159135842Y-80308346D01*
X159135842Y-80308346D02*
X159169514Y-80409361D01*
X159169514Y-80409361D02*
X159169514Y-80476705D01*
X159169514Y-80476705D02*
X159135842Y-80577720D01*
X159135842Y-80577720D02*
X159001155Y-80712407D01*
X159001155Y-80712407D02*
X158900140Y-80746079D01*
X158900140Y-80746079D02*
X158832796Y-80746079D01*
X158832796Y-80746079D02*
X158731781Y-80712407D01*
X158731781Y-80712407D02*
X158159361Y-80139987D01*
X157923659Y-80510377D02*
X157856316Y-80510377D01*
X157856316Y-80510377D02*
X157755300Y-80544048D01*
X157755300Y-80544048D02*
X157586942Y-80712407D01*
X157586942Y-80712407D02*
X157553270Y-80813422D01*
X157553270Y-80813422D02*
X157553270Y-80880766D01*
X157553270Y-80880766D02*
X157586942Y-80981781D01*
X157586942Y-80981781D02*
X157654285Y-81049125D01*
X157654285Y-81049125D02*
X157788972Y-81116468D01*
X157788972Y-81116468D02*
X158597094Y-81116468D01*
X158597094Y-81116468D02*
X158159361Y-81554201D01*
%TO.C,R4*%
X157666666Y-68867380D02*
X157999999Y-68391190D01*
X158238094Y-68867380D02*
X158238094Y-67867380D01*
X158238094Y-67867380D02*
X157857142Y-67867380D01*
X157857142Y-67867380D02*
X157761904Y-67915000D01*
X157761904Y-67915000D02*
X157714285Y-67962619D01*
X157714285Y-67962619D02*
X157666666Y-68057857D01*
X157666666Y-68057857D02*
X157666666Y-68200714D01*
X157666666Y-68200714D02*
X157714285Y-68295952D01*
X157714285Y-68295952D02*
X157761904Y-68343571D01*
X157761904Y-68343571D02*
X157857142Y-68391190D01*
X157857142Y-68391190D02*
X158238094Y-68391190D01*
X156809523Y-68200714D02*
X156809523Y-68867380D01*
X157047618Y-67819761D02*
X157285713Y-68534047D01*
X157285713Y-68534047D02*
X156666666Y-68534047D01*
%TO.C,R6*%
X127367380Y-76333333D02*
X126891190Y-76000000D01*
X127367380Y-75761905D02*
X126367380Y-75761905D01*
X126367380Y-75761905D02*
X126367380Y-76142857D01*
X126367380Y-76142857D02*
X126415000Y-76238095D01*
X126415000Y-76238095D02*
X126462619Y-76285714D01*
X126462619Y-76285714D02*
X126557857Y-76333333D01*
X126557857Y-76333333D02*
X126700714Y-76333333D01*
X126700714Y-76333333D02*
X126795952Y-76285714D01*
X126795952Y-76285714D02*
X126843571Y-76238095D01*
X126843571Y-76238095D02*
X126891190Y-76142857D01*
X126891190Y-76142857D02*
X126891190Y-75761905D01*
X126367380Y-77190476D02*
X126367380Y-77000000D01*
X126367380Y-77000000D02*
X126415000Y-76904762D01*
X126415000Y-76904762D02*
X126462619Y-76857143D01*
X126462619Y-76857143D02*
X126605476Y-76761905D01*
X126605476Y-76761905D02*
X126795952Y-76714286D01*
X126795952Y-76714286D02*
X127176904Y-76714286D01*
X127176904Y-76714286D02*
X127272142Y-76761905D01*
X127272142Y-76761905D02*
X127319761Y-76809524D01*
X127319761Y-76809524D02*
X127367380Y-76904762D01*
X127367380Y-76904762D02*
X127367380Y-77095238D01*
X127367380Y-77095238D02*
X127319761Y-77190476D01*
X127319761Y-77190476D02*
X127272142Y-77238095D01*
X127272142Y-77238095D02*
X127176904Y-77285714D01*
X127176904Y-77285714D02*
X126938809Y-77285714D01*
X126938809Y-77285714D02*
X126843571Y-77238095D01*
X126843571Y-77238095D02*
X126795952Y-77190476D01*
X126795952Y-77190476D02*
X126748333Y-77095238D01*
X126748333Y-77095238D02*
X126748333Y-76904762D01*
X126748333Y-76904762D02*
X126795952Y-76809524D01*
X126795952Y-76809524D02*
X126843571Y-76761905D01*
X126843571Y-76761905D02*
X126938809Y-76714286D01*
%TO.C,D1*%
X111867380Y-81761905D02*
X110867380Y-81761905D01*
X110867380Y-81761905D02*
X110867380Y-82000000D01*
X110867380Y-82000000D02*
X110915000Y-82142857D01*
X110915000Y-82142857D02*
X111010238Y-82238095D01*
X111010238Y-82238095D02*
X111105476Y-82285714D01*
X111105476Y-82285714D02*
X111295952Y-82333333D01*
X111295952Y-82333333D02*
X111438809Y-82333333D01*
X111438809Y-82333333D02*
X111629285Y-82285714D01*
X111629285Y-82285714D02*
X111724523Y-82238095D01*
X111724523Y-82238095D02*
X111819761Y-82142857D01*
X111819761Y-82142857D02*
X111867380Y-82000000D01*
X111867380Y-82000000D02*
X111867380Y-81761905D01*
X111867380Y-83285714D02*
X111867380Y-82714286D01*
X111867380Y-83000000D02*
X110867380Y-83000000D01*
X110867380Y-83000000D02*
X111010238Y-82904762D01*
X111010238Y-82904762D02*
X111105476Y-82809524D01*
X111105476Y-82809524D02*
X111153095Y-82714286D01*
%TO.C,D6*%
X144867380Y-95761905D02*
X143867380Y-95761905D01*
X143867380Y-95761905D02*
X143867380Y-96000000D01*
X143867380Y-96000000D02*
X143915000Y-96142857D01*
X143915000Y-96142857D02*
X144010238Y-96238095D01*
X144010238Y-96238095D02*
X144105476Y-96285714D01*
X144105476Y-96285714D02*
X144295952Y-96333333D01*
X144295952Y-96333333D02*
X144438809Y-96333333D01*
X144438809Y-96333333D02*
X144629285Y-96285714D01*
X144629285Y-96285714D02*
X144724523Y-96238095D01*
X144724523Y-96238095D02*
X144819761Y-96142857D01*
X144819761Y-96142857D02*
X144867380Y-96000000D01*
X144867380Y-96000000D02*
X144867380Y-95761905D01*
X143867380Y-97190476D02*
X143867380Y-97000000D01*
X143867380Y-97000000D02*
X143915000Y-96904762D01*
X143915000Y-96904762D02*
X143962619Y-96857143D01*
X143962619Y-96857143D02*
X144105476Y-96761905D01*
X144105476Y-96761905D02*
X144295952Y-96714286D01*
X144295952Y-96714286D02*
X144676904Y-96714286D01*
X144676904Y-96714286D02*
X144772142Y-96761905D01*
X144772142Y-96761905D02*
X144819761Y-96809524D01*
X144819761Y-96809524D02*
X144867380Y-96904762D01*
X144867380Y-96904762D02*
X144867380Y-97095238D01*
X144867380Y-97095238D02*
X144819761Y-97190476D01*
X144819761Y-97190476D02*
X144772142Y-97238095D01*
X144772142Y-97238095D02*
X144676904Y-97285714D01*
X144676904Y-97285714D02*
X144438809Y-97285714D01*
X144438809Y-97285714D02*
X144343571Y-97238095D01*
X144343571Y-97238095D02*
X144295952Y-97190476D01*
X144295952Y-97190476D02*
X144248333Y-97095238D01*
X144248333Y-97095238D02*
X144248333Y-96904762D01*
X144248333Y-96904762D02*
X144295952Y-96809524D01*
X144295952Y-96809524D02*
X144343571Y-96761905D01*
X144343571Y-96761905D02*
X144438809Y-96714286D01*
%TO.C,R9*%
X89547380Y-86583333D02*
X89071190Y-86250000D01*
X89547380Y-86011905D02*
X88547380Y-86011905D01*
X88547380Y-86011905D02*
X88547380Y-86392857D01*
X88547380Y-86392857D02*
X88595000Y-86488095D01*
X88595000Y-86488095D02*
X88642619Y-86535714D01*
X88642619Y-86535714D02*
X88737857Y-86583333D01*
X88737857Y-86583333D02*
X88880714Y-86583333D01*
X88880714Y-86583333D02*
X88975952Y-86535714D01*
X88975952Y-86535714D02*
X89023571Y-86488095D01*
X89023571Y-86488095D02*
X89071190Y-86392857D01*
X89071190Y-86392857D02*
X89071190Y-86011905D01*
X89547380Y-87059524D02*
X89547380Y-87250000D01*
X89547380Y-87250000D02*
X89499761Y-87345238D01*
X89499761Y-87345238D02*
X89452142Y-87392857D01*
X89452142Y-87392857D02*
X89309285Y-87488095D01*
X89309285Y-87488095D02*
X89118809Y-87535714D01*
X89118809Y-87535714D02*
X88737857Y-87535714D01*
X88737857Y-87535714D02*
X88642619Y-87488095D01*
X88642619Y-87488095D02*
X88595000Y-87440476D01*
X88595000Y-87440476D02*
X88547380Y-87345238D01*
X88547380Y-87345238D02*
X88547380Y-87154762D01*
X88547380Y-87154762D02*
X88595000Y-87059524D01*
X88595000Y-87059524D02*
X88642619Y-87011905D01*
X88642619Y-87011905D02*
X88737857Y-86964286D01*
X88737857Y-86964286D02*
X88975952Y-86964286D01*
X88975952Y-86964286D02*
X89071190Y-87011905D01*
X89071190Y-87011905D02*
X89118809Y-87059524D01*
X89118809Y-87059524D02*
X89166428Y-87154762D01*
X89166428Y-87154762D02*
X89166428Y-87345238D01*
X89166428Y-87345238D02*
X89118809Y-87440476D01*
X89118809Y-87440476D02*
X89071190Y-87488095D01*
X89071190Y-87488095D02*
X88975952Y-87535714D01*
%TO.C,D3*%
X93867380Y-98761905D02*
X92867380Y-98761905D01*
X92867380Y-98761905D02*
X92867380Y-99000000D01*
X92867380Y-99000000D02*
X92915000Y-99142857D01*
X92915000Y-99142857D02*
X93010238Y-99238095D01*
X93010238Y-99238095D02*
X93105476Y-99285714D01*
X93105476Y-99285714D02*
X93295952Y-99333333D01*
X93295952Y-99333333D02*
X93438809Y-99333333D01*
X93438809Y-99333333D02*
X93629285Y-99285714D01*
X93629285Y-99285714D02*
X93724523Y-99238095D01*
X93724523Y-99238095D02*
X93819761Y-99142857D01*
X93819761Y-99142857D02*
X93867380Y-99000000D01*
X93867380Y-99000000D02*
X93867380Y-98761905D01*
X92867380Y-99666667D02*
X92867380Y-100285714D01*
X92867380Y-100285714D02*
X93248333Y-99952381D01*
X93248333Y-99952381D02*
X93248333Y-100095238D01*
X93248333Y-100095238D02*
X93295952Y-100190476D01*
X93295952Y-100190476D02*
X93343571Y-100238095D01*
X93343571Y-100238095D02*
X93438809Y-100285714D01*
X93438809Y-100285714D02*
X93676904Y-100285714D01*
X93676904Y-100285714D02*
X93772142Y-100238095D01*
X93772142Y-100238095D02*
X93819761Y-100190476D01*
X93819761Y-100190476D02*
X93867380Y-100095238D01*
X93867380Y-100095238D02*
X93867380Y-99809524D01*
X93867380Y-99809524D02*
X93819761Y-99714286D01*
X93819761Y-99714286D02*
X93772142Y-99666667D01*
%TO.C,D5*%
X126867380Y-95761905D02*
X125867380Y-95761905D01*
X125867380Y-95761905D02*
X125867380Y-96000000D01*
X125867380Y-96000000D02*
X125915000Y-96142857D01*
X125915000Y-96142857D02*
X126010238Y-96238095D01*
X126010238Y-96238095D02*
X126105476Y-96285714D01*
X126105476Y-96285714D02*
X126295952Y-96333333D01*
X126295952Y-96333333D02*
X126438809Y-96333333D01*
X126438809Y-96333333D02*
X126629285Y-96285714D01*
X126629285Y-96285714D02*
X126724523Y-96238095D01*
X126724523Y-96238095D02*
X126819761Y-96142857D01*
X126819761Y-96142857D02*
X126867380Y-96000000D01*
X126867380Y-96000000D02*
X126867380Y-95761905D01*
X125867380Y-97238095D02*
X125867380Y-96761905D01*
X125867380Y-96761905D02*
X126343571Y-96714286D01*
X126343571Y-96714286D02*
X126295952Y-96761905D01*
X126295952Y-96761905D02*
X126248333Y-96857143D01*
X126248333Y-96857143D02*
X126248333Y-97095238D01*
X126248333Y-97095238D02*
X126295952Y-97190476D01*
X126295952Y-97190476D02*
X126343571Y-97238095D01*
X126343571Y-97238095D02*
X126438809Y-97285714D01*
X126438809Y-97285714D02*
X126676904Y-97285714D01*
X126676904Y-97285714D02*
X126772142Y-97238095D01*
X126772142Y-97238095D02*
X126819761Y-97190476D01*
X126819761Y-97190476D02*
X126867380Y-97095238D01*
X126867380Y-97095238D02*
X126867380Y-96857143D01*
X126867380Y-96857143D02*
X126819761Y-96761905D01*
X126819761Y-96761905D02*
X126772142Y-96714286D01*
%TO.C,R7*%
X89547380Y-106583333D02*
X89071190Y-106250000D01*
X89547380Y-106011905D02*
X88547380Y-106011905D01*
X88547380Y-106011905D02*
X88547380Y-106392857D01*
X88547380Y-106392857D02*
X88595000Y-106488095D01*
X88595000Y-106488095D02*
X88642619Y-106535714D01*
X88642619Y-106535714D02*
X88737857Y-106583333D01*
X88737857Y-106583333D02*
X88880714Y-106583333D01*
X88880714Y-106583333D02*
X88975952Y-106535714D01*
X88975952Y-106535714D02*
X89023571Y-106488095D01*
X89023571Y-106488095D02*
X89071190Y-106392857D01*
X89071190Y-106392857D02*
X89071190Y-106011905D01*
X88547380Y-106916667D02*
X88547380Y-107583333D01*
X88547380Y-107583333D02*
X89547380Y-107154762D01*
%TO.C,D9*%
X146187380Y-102011905D02*
X145187380Y-102011905D01*
X145187380Y-102011905D02*
X145187380Y-102250000D01*
X145187380Y-102250000D02*
X145235000Y-102392857D01*
X145235000Y-102392857D02*
X145330238Y-102488095D01*
X145330238Y-102488095D02*
X145425476Y-102535714D01*
X145425476Y-102535714D02*
X145615952Y-102583333D01*
X145615952Y-102583333D02*
X145758809Y-102583333D01*
X145758809Y-102583333D02*
X145949285Y-102535714D01*
X145949285Y-102535714D02*
X146044523Y-102488095D01*
X146044523Y-102488095D02*
X146139761Y-102392857D01*
X146139761Y-102392857D02*
X146187380Y-102250000D01*
X146187380Y-102250000D02*
X146187380Y-102011905D01*
X146187380Y-103059524D02*
X146187380Y-103250000D01*
X146187380Y-103250000D02*
X146139761Y-103345238D01*
X146139761Y-103345238D02*
X146092142Y-103392857D01*
X146092142Y-103392857D02*
X145949285Y-103488095D01*
X145949285Y-103488095D02*
X145758809Y-103535714D01*
X145758809Y-103535714D02*
X145377857Y-103535714D01*
X145377857Y-103535714D02*
X145282619Y-103488095D01*
X145282619Y-103488095D02*
X145235000Y-103440476D01*
X145235000Y-103440476D02*
X145187380Y-103345238D01*
X145187380Y-103345238D02*
X145187380Y-103154762D01*
X145187380Y-103154762D02*
X145235000Y-103059524D01*
X145235000Y-103059524D02*
X145282619Y-103011905D01*
X145282619Y-103011905D02*
X145377857Y-102964286D01*
X145377857Y-102964286D02*
X145615952Y-102964286D01*
X145615952Y-102964286D02*
X145711190Y-103011905D01*
X145711190Y-103011905D02*
X145758809Y-103059524D01*
X145758809Y-103059524D02*
X145806428Y-103154762D01*
X145806428Y-103154762D02*
X145806428Y-103345238D01*
X145806428Y-103345238D02*
X145758809Y-103440476D01*
X145758809Y-103440476D02*
X145711190Y-103488095D01*
X145711190Y-103488095D02*
X145615952Y-103535714D01*
%TO.C,U1*%
X151986077Y-75841418D02*
X151413657Y-76413838D01*
X151413657Y-76413838D02*
X151312642Y-76447510D01*
X151312642Y-76447510D02*
X151245298Y-76447510D01*
X151245298Y-76447510D02*
X151144283Y-76413838D01*
X151144283Y-76413838D02*
X151009596Y-76279151D01*
X151009596Y-76279151D02*
X150975924Y-76178136D01*
X150975924Y-76178136D02*
X150975924Y-76110792D01*
X150975924Y-76110792D02*
X151009596Y-76009777D01*
X151009596Y-76009777D02*
X151582016Y-75437357D01*
X150167802Y-75437357D02*
X150571863Y-75841418D01*
X150369833Y-75639388D02*
X151076939Y-74932281D01*
X151076939Y-74932281D02*
X151043268Y-75100640D01*
X151043268Y-75100640D02*
X151043268Y-75235327D01*
X151043268Y-75235327D02*
X151076939Y-75336342D01*
%TO.C,C1*%
X149666666Y-78522142D02*
X149714285Y-78569761D01*
X149714285Y-78569761D02*
X149857142Y-78617380D01*
X149857142Y-78617380D02*
X149952380Y-78617380D01*
X149952380Y-78617380D02*
X150095237Y-78569761D01*
X150095237Y-78569761D02*
X150190475Y-78474523D01*
X150190475Y-78474523D02*
X150238094Y-78379285D01*
X150238094Y-78379285D02*
X150285713Y-78188809D01*
X150285713Y-78188809D02*
X150285713Y-78045952D01*
X150285713Y-78045952D02*
X150238094Y-77855476D01*
X150238094Y-77855476D02*
X150190475Y-77760238D01*
X150190475Y-77760238D02*
X150095237Y-77665000D01*
X150095237Y-77665000D02*
X149952380Y-77617380D01*
X149952380Y-77617380D02*
X149857142Y-77617380D01*
X149857142Y-77617380D02*
X149714285Y-77665000D01*
X149714285Y-77665000D02*
X149666666Y-77712619D01*
X148714285Y-78617380D02*
X149285713Y-78617380D01*
X148999999Y-78617380D02*
X148999999Y-77617380D01*
X148999999Y-77617380D02*
X149095237Y-77760238D01*
X149095237Y-77760238D02*
X149190475Y-77855476D01*
X149190475Y-77855476D02*
X149285713Y-77903095D01*
%TO.C,R2*%
X156608073Y-79877628D02*
X157180493Y-79776613D01*
X157012134Y-80281689D02*
X157719241Y-79574582D01*
X157719241Y-79574582D02*
X157449867Y-79305208D01*
X157449867Y-79305208D02*
X157348851Y-79271536D01*
X157348851Y-79271536D02*
X157281508Y-79271536D01*
X157281508Y-79271536D02*
X157180493Y-79305208D01*
X157180493Y-79305208D02*
X157079477Y-79406223D01*
X157079477Y-79406223D02*
X157045806Y-79507239D01*
X157045806Y-79507239D02*
X157045806Y-79574582D01*
X157045806Y-79574582D02*
X157079477Y-79675597D01*
X157079477Y-79675597D02*
X157348851Y-79944971D01*
X156978462Y-78968491D02*
X156978462Y-78901147D01*
X156978462Y-78901147D02*
X156944790Y-78800132D01*
X156944790Y-78800132D02*
X156776431Y-78631773D01*
X156776431Y-78631773D02*
X156675416Y-78598101D01*
X156675416Y-78598101D02*
X156608073Y-78598101D01*
X156608073Y-78598101D02*
X156507057Y-78631773D01*
X156507057Y-78631773D02*
X156439714Y-78699117D01*
X156439714Y-78699117D02*
X156372370Y-78833804D01*
X156372370Y-78833804D02*
X156372370Y-79641926D01*
X156372370Y-79641926D02*
X155934638Y-79204193D01*
%TO.C,D0*%
X93867380Y-81761905D02*
X92867380Y-81761905D01*
X92867380Y-81761905D02*
X92867380Y-82000000D01*
X92867380Y-82000000D02*
X92915000Y-82142857D01*
X92915000Y-82142857D02*
X93010238Y-82238095D01*
X93010238Y-82238095D02*
X93105476Y-82285714D01*
X93105476Y-82285714D02*
X93295952Y-82333333D01*
X93295952Y-82333333D02*
X93438809Y-82333333D01*
X93438809Y-82333333D02*
X93629285Y-82285714D01*
X93629285Y-82285714D02*
X93724523Y-82238095D01*
X93724523Y-82238095D02*
X93819761Y-82142857D01*
X93819761Y-82142857D02*
X93867380Y-82000000D01*
X93867380Y-82000000D02*
X93867380Y-81761905D01*
X92867380Y-82952381D02*
X92867380Y-83047619D01*
X92867380Y-83047619D02*
X92915000Y-83142857D01*
X92915000Y-83142857D02*
X92962619Y-83190476D01*
X92962619Y-83190476D02*
X93057857Y-83238095D01*
X93057857Y-83238095D02*
X93248333Y-83285714D01*
X93248333Y-83285714D02*
X93486428Y-83285714D01*
X93486428Y-83285714D02*
X93676904Y-83238095D01*
X93676904Y-83238095D02*
X93772142Y-83190476D01*
X93772142Y-83190476D02*
X93819761Y-83142857D01*
X93819761Y-83142857D02*
X93867380Y-83047619D01*
X93867380Y-83047619D02*
X93867380Y-82952381D01*
X93867380Y-82952381D02*
X93819761Y-82857143D01*
X93819761Y-82857143D02*
X93772142Y-82809524D01*
X93772142Y-82809524D02*
X93676904Y-82761905D01*
X93676904Y-82761905D02*
X93486428Y-82714286D01*
X93486428Y-82714286D02*
X93248333Y-82714286D01*
X93248333Y-82714286D02*
X93057857Y-82761905D01*
X93057857Y-82761905D02*
X92962619Y-82809524D01*
X92962619Y-82809524D02*
X92915000Y-82857143D01*
X92915000Y-82857143D02*
X92867380Y-82952381D01*
%TO.C,D7*%
X110617380Y-101761905D02*
X109617380Y-101761905D01*
X109617380Y-101761905D02*
X109617380Y-102000000D01*
X109617380Y-102000000D02*
X109665000Y-102142857D01*
X109665000Y-102142857D02*
X109760238Y-102238095D01*
X109760238Y-102238095D02*
X109855476Y-102285714D01*
X109855476Y-102285714D02*
X110045952Y-102333333D01*
X110045952Y-102333333D02*
X110188809Y-102333333D01*
X110188809Y-102333333D02*
X110379285Y-102285714D01*
X110379285Y-102285714D02*
X110474523Y-102238095D01*
X110474523Y-102238095D02*
X110569761Y-102142857D01*
X110569761Y-102142857D02*
X110617380Y-102000000D01*
X110617380Y-102000000D02*
X110617380Y-101761905D01*
X109617380Y-102666667D02*
X109617380Y-103333333D01*
X109617380Y-103333333D02*
X110617380Y-102904762D01*
%TO.C,C7*%
X164416666Y-71522142D02*
X164464285Y-71569761D01*
X164464285Y-71569761D02*
X164607142Y-71617380D01*
X164607142Y-71617380D02*
X164702380Y-71617380D01*
X164702380Y-71617380D02*
X164845237Y-71569761D01*
X164845237Y-71569761D02*
X164940475Y-71474523D01*
X164940475Y-71474523D02*
X164988094Y-71379285D01*
X164988094Y-71379285D02*
X165035713Y-71188809D01*
X165035713Y-71188809D02*
X165035713Y-71045952D01*
X165035713Y-71045952D02*
X164988094Y-70855476D01*
X164988094Y-70855476D02*
X164940475Y-70760238D01*
X164940475Y-70760238D02*
X164845237Y-70665000D01*
X164845237Y-70665000D02*
X164702380Y-70617380D01*
X164702380Y-70617380D02*
X164607142Y-70617380D01*
X164607142Y-70617380D02*
X164464285Y-70665000D01*
X164464285Y-70665000D02*
X164416666Y-70712619D01*
X164083332Y-70617380D02*
X163416666Y-70617380D01*
X163416666Y-70617380D02*
X163845237Y-71617380D01*
%TO.C,C9*%
X167916666Y-78022142D02*
X167964285Y-78069761D01*
X167964285Y-78069761D02*
X168107142Y-78117380D01*
X168107142Y-78117380D02*
X168202380Y-78117380D01*
X168202380Y-78117380D02*
X168345237Y-78069761D01*
X168345237Y-78069761D02*
X168440475Y-77974523D01*
X168440475Y-77974523D02*
X168488094Y-77879285D01*
X168488094Y-77879285D02*
X168535713Y-77688809D01*
X168535713Y-77688809D02*
X168535713Y-77545952D01*
X168535713Y-77545952D02*
X168488094Y-77355476D01*
X168488094Y-77355476D02*
X168440475Y-77260238D01*
X168440475Y-77260238D02*
X168345237Y-77165000D01*
X168345237Y-77165000D02*
X168202380Y-77117380D01*
X168202380Y-77117380D02*
X168107142Y-77117380D01*
X168107142Y-77117380D02*
X167964285Y-77165000D01*
X167964285Y-77165000D02*
X167916666Y-77212619D01*
X167440475Y-78117380D02*
X167249999Y-78117380D01*
X167249999Y-78117380D02*
X167154761Y-78069761D01*
X167154761Y-78069761D02*
X167107142Y-78022142D01*
X167107142Y-78022142D02*
X167011904Y-77879285D01*
X167011904Y-77879285D02*
X166964285Y-77688809D01*
X166964285Y-77688809D02*
X166964285Y-77307857D01*
X166964285Y-77307857D02*
X167011904Y-77212619D01*
X167011904Y-77212619D02*
X167059523Y-77165000D01*
X167059523Y-77165000D02*
X167154761Y-77117380D01*
X167154761Y-77117380D02*
X167345237Y-77117380D01*
X167345237Y-77117380D02*
X167440475Y-77165000D01*
X167440475Y-77165000D02*
X167488094Y-77212619D01*
X167488094Y-77212619D02*
X167535713Y-77307857D01*
X167535713Y-77307857D02*
X167535713Y-77545952D01*
X167535713Y-77545952D02*
X167488094Y-77641190D01*
X167488094Y-77641190D02*
X167440475Y-77688809D01*
X167440475Y-77688809D02*
X167345237Y-77736428D01*
X167345237Y-77736428D02*
X167154761Y-77736428D01*
X167154761Y-77736428D02*
X167059523Y-77688809D01*
X167059523Y-77688809D02*
X167011904Y-77641190D01*
X167011904Y-77641190D02*
X166964285Y-77545952D01*
%TO.C,R1*%
X169117380Y-91083333D02*
X168641190Y-90750000D01*
X169117380Y-90511905D02*
X168117380Y-90511905D01*
X168117380Y-90511905D02*
X168117380Y-90892857D01*
X168117380Y-90892857D02*
X168165000Y-90988095D01*
X168165000Y-90988095D02*
X168212619Y-91035714D01*
X168212619Y-91035714D02*
X168307857Y-91083333D01*
X168307857Y-91083333D02*
X168450714Y-91083333D01*
X168450714Y-91083333D02*
X168545952Y-91035714D01*
X168545952Y-91035714D02*
X168593571Y-90988095D01*
X168593571Y-90988095D02*
X168641190Y-90892857D01*
X168641190Y-90892857D02*
X168641190Y-90511905D01*
X169117380Y-92035714D02*
X169117380Y-91464286D01*
X169117380Y-91750000D02*
X168117380Y-91750000D01*
X168117380Y-91750000D02*
X168260238Y-91654762D01*
X168260238Y-91654762D02*
X168355476Y-91559524D01*
X168355476Y-91559524D02*
X168403095Y-91464286D01*
D11*
%TO.C,F1*%
X156717744Y-72430809D02*
X157569191Y-73282256D01*
X155430809Y-73717744D02*
X156282256Y-74569191D01*
%TO.C,SW0*%
X143250000Y-68050000D02*
X146750000Y-68050000D01*
%TO.C,C3*%
X159859420Y-70740000D02*
X160140580Y-70740000D01*
X159859420Y-71760000D02*
X160140580Y-71760000D01*
%TO.C,C2*%
X159859420Y-69240000D02*
X160140580Y-69240000D01*
X159859420Y-70260000D02*
X160140580Y-70260000D01*
D10*
%TO.C,MX9*%
X143000000Y-107500000D02*
X143000000Y-107000000D01*
X143000000Y-103400000D02*
X143000000Y-102800000D01*
X143000000Y-102800000D02*
X138500000Y-102800000D01*
X138500000Y-107500000D02*
X143000000Y-107500000D01*
X138500000Y-106800000D02*
X138500000Y-107500000D01*
X138000000Y-102300000D02*
X138000000Y-101300000D01*
X137500000Y-100800000D02*
X138000000Y-101300000D01*
X134500000Y-105300000D02*
X137000000Y-105300000D01*
X134500000Y-100800000D02*
X137500000Y-100800000D01*
X134000000Y-104800000D02*
X134500000Y-105300000D01*
X134000000Y-101300000D02*
X134500000Y-100800000D01*
X138000000Y-102300000D02*
G75*
G03*
X138500000Y-102800000I500001J1D01*
G01*
X138500000Y-106800000D02*
G75*
G03*
X137000000Y-105300000I-1500001J-1D01*
G01*
%TO.C,MX4*%
X111000000Y-93500000D02*
X111000000Y-94000000D01*
X111000000Y-97600000D02*
X111000000Y-98200000D01*
X111000000Y-98200000D02*
X115500000Y-98200000D01*
X115500000Y-93500000D02*
X111000000Y-93500000D01*
X115500000Y-94200000D02*
X115500000Y-93500000D01*
X116000000Y-98700000D02*
X116000000Y-99700000D01*
X116500000Y-100200000D02*
X116000000Y-99700000D01*
X119500000Y-95700000D02*
X117000000Y-95700000D01*
X119500000Y-100200000D02*
X116500000Y-100200000D01*
X120000000Y-96200000D02*
X119500000Y-95700000D01*
X120000000Y-99700000D02*
X119500000Y-100200000D01*
X116000000Y-98700000D02*
G75*
G03*
X115500000Y-98200000I-500001J-1D01*
G01*
X115500000Y-94200000D02*
G75*
G03*
X117000000Y-95700000I1500001J1D01*
G01*
%TO.C,MX5*%
X129000000Y-93500000D02*
X129000000Y-94000000D01*
X129000000Y-97600000D02*
X129000000Y-98200000D01*
X129000000Y-98200000D02*
X133500000Y-98200000D01*
X133500000Y-93500000D02*
X129000000Y-93500000D01*
X133500000Y-94200000D02*
X133500000Y-93500000D01*
X134000000Y-98700000D02*
X134000000Y-99700000D01*
X134500000Y-100200000D02*
X134000000Y-99700000D01*
X137500000Y-95700000D02*
X135000000Y-95700000D01*
X137500000Y-100200000D02*
X134500000Y-100200000D01*
X138000000Y-96200000D02*
X137500000Y-95700000D01*
X138000000Y-99700000D02*
X137500000Y-100200000D01*
X134000000Y-98700000D02*
G75*
G03*
X133500000Y-98200000I-500001J-1D01*
G01*
X133500000Y-94200000D02*
G75*
G03*
X135000000Y-95700000I1500001J1D01*
G01*
%TO.C,MX6*%
X147000000Y-93500000D02*
X147000000Y-94000000D01*
X147000000Y-97600000D02*
X147000000Y-98200000D01*
X147000000Y-98200000D02*
X151500000Y-98200000D01*
X151500000Y-93500000D02*
X147000000Y-93500000D01*
X151500000Y-94200000D02*
X151500000Y-93500000D01*
X152000000Y-98700000D02*
X152000000Y-99700000D01*
X152500000Y-100200000D02*
X152000000Y-99700000D01*
X155500000Y-95700000D02*
X153000000Y-95700000D01*
X155500000Y-100200000D02*
X152500000Y-100200000D01*
X156000000Y-96200000D02*
X155500000Y-95700000D01*
X156000000Y-99700000D02*
X155500000Y-100200000D01*
X152000000Y-98700000D02*
G75*
G03*
X151500000Y-98200000I-500001J-1D01*
G01*
X151500000Y-94200000D02*
G75*
G03*
X153000000Y-95700000I1500001J1D01*
G01*
%TO.C,MX2*%
X129000000Y-76500000D02*
X129000000Y-77000000D01*
X129000000Y-80600000D02*
X129000000Y-81200000D01*
X129000000Y-81200000D02*
X133500000Y-81200000D01*
X133500000Y-76500000D02*
X129000000Y-76500000D01*
X133500000Y-77200000D02*
X133500000Y-76500000D01*
X134000000Y-81700000D02*
X134000000Y-82700000D01*
X134500000Y-83200000D02*
X134000000Y-82700000D01*
X137500000Y-78700000D02*
X135000000Y-78700000D01*
X137500000Y-83200000D02*
X134500000Y-83200000D01*
X138000000Y-79200000D02*
X137500000Y-78700000D01*
X138000000Y-82700000D02*
X137500000Y-83200000D01*
X134000000Y-81700000D02*
G75*
G03*
X133500000Y-81200000I-500001J-1D01*
G01*
X133500000Y-77200000D02*
G75*
G03*
X135000000Y-78700000I1500001J1D01*
G01*
%TO.C,MX1*%
X111000000Y-76500000D02*
X111000000Y-77000000D01*
X111000000Y-80600000D02*
X111000000Y-81200000D01*
X111000000Y-81200000D02*
X115500000Y-81200000D01*
X115500000Y-76500000D02*
X111000000Y-76500000D01*
X115500000Y-77200000D02*
X115500000Y-76500000D01*
X116000000Y-81700000D02*
X116000000Y-82700000D01*
X116500000Y-83200000D02*
X116000000Y-82700000D01*
X119500000Y-78700000D02*
X117000000Y-78700000D01*
X119500000Y-83200000D02*
X116500000Y-83200000D01*
X120000000Y-79200000D02*
X119500000Y-78700000D01*
X120000000Y-82700000D02*
X119500000Y-83200000D01*
X116000000Y-81700000D02*
G75*
G03*
X115500000Y-81200000I-500001J-1D01*
G01*
X115500000Y-77200000D02*
G75*
G03*
X117000000Y-78700000I1500001J1D01*
G01*
%TO.C,MX10*%
X161000000Y-107500000D02*
X161000000Y-107000000D01*
X161000000Y-103400000D02*
X161000000Y-102800000D01*
X161000000Y-102800000D02*
X156500000Y-102800000D01*
X156500000Y-107500000D02*
X161000000Y-107500000D01*
X156500000Y-106800000D02*
X156500000Y-107500000D01*
X156000000Y-102300000D02*
X156000000Y-101300000D01*
X155500000Y-100800000D02*
X156000000Y-101300000D01*
X152500000Y-105300000D02*
X155000000Y-105300000D01*
X152500000Y-100800000D02*
X155500000Y-100800000D01*
X152000000Y-104800000D02*
X152500000Y-105300000D01*
X152000000Y-101300000D02*
X152500000Y-100800000D01*
X156000000Y-102300000D02*
G75*
G03*
X156500000Y-102800000I500001J1D01*
G01*
X156500000Y-106800000D02*
G75*
G03*
X155000000Y-105300000I-1500001J-1D01*
G01*
%TO.C,MX0*%
X93000000Y-76500000D02*
X93000000Y-77000000D01*
X93000000Y-80600000D02*
X93000000Y-81200000D01*
X93000000Y-81200000D02*
X97500000Y-81200000D01*
X97500000Y-76500000D02*
X93000000Y-76500000D01*
X97500000Y-77200000D02*
X97500000Y-76500000D01*
X98000000Y-81700000D02*
X98000000Y-82700000D01*
X98500000Y-83200000D02*
X98000000Y-82700000D01*
X101500000Y-78700000D02*
X99000000Y-78700000D01*
X101500000Y-83200000D02*
X98500000Y-83200000D01*
X102000000Y-79200000D02*
X101500000Y-78700000D01*
X102000000Y-82700000D02*
X101500000Y-83200000D01*
X98000000Y-81700000D02*
G75*
G03*
X97500000Y-81200000I-500001J-1D01*
G01*
X97500000Y-77200000D02*
G75*
G03*
X99000000Y-78700000I1500001J1D01*
G01*
%TO.C,MX3*%
X93000000Y-93500000D02*
X93000000Y-94000000D01*
X93000000Y-97600000D02*
X93000000Y-98200000D01*
X93000000Y-98200000D02*
X97500000Y-98200000D01*
X97500000Y-93500000D02*
X93000000Y-93500000D01*
X97500000Y-94200000D02*
X97500000Y-93500000D01*
X98000000Y-98700000D02*
X98000000Y-99700000D01*
X98500000Y-100200000D02*
X98000000Y-99700000D01*
X101500000Y-95700000D02*
X99000000Y-95700000D01*
X101500000Y-100200000D02*
X98500000Y-100200000D01*
X102000000Y-96200000D02*
X101500000Y-95700000D01*
X102000000Y-99700000D02*
X101500000Y-100200000D01*
X98000000Y-98700000D02*
G75*
G03*
X97500000Y-98200000I-500001J-1D01*
G01*
X97500000Y-94200000D02*
G75*
G03*
X99000000Y-95700000I1500001J1D01*
G01*
%TO.C,MX7*%
X107000000Y-107500000D02*
X107000000Y-107000000D01*
X107000000Y-103400000D02*
X107000000Y-102800000D01*
X107000000Y-102800000D02*
X102500000Y-102800000D01*
X102500000Y-107500000D02*
X107000000Y-107500000D01*
X102500000Y-106800000D02*
X102500000Y-107500000D01*
X102000000Y-102300000D02*
X102000000Y-101300000D01*
X101500000Y-100800000D02*
X102000000Y-101300000D01*
X98500000Y-105300000D02*
X101000000Y-105300000D01*
X98500000Y-100800000D02*
X101500000Y-100800000D01*
X98000000Y-104800000D02*
X98500000Y-105300000D01*
X98000000Y-101300000D02*
X98500000Y-100800000D01*
X102000000Y-102300000D02*
G75*
G03*
X102500000Y-102800000I500001J1D01*
G01*
X102500000Y-106800000D02*
G75*
G03*
X101000000Y-105300000I-1500001J-1D01*
G01*
%TO.C,MX8*%
X125000000Y-107500000D02*
X125000000Y-107000000D01*
X125000000Y-103400000D02*
X125000000Y-102800000D01*
X125000000Y-102800000D02*
X120500000Y-102800000D01*
X120500000Y-107500000D02*
X125000000Y-107500000D01*
X120500000Y-106800000D02*
X120500000Y-107500000D01*
X120000000Y-102300000D02*
X120000000Y-101300000D01*
X119500000Y-100800000D02*
X120000000Y-101300000D01*
X116500000Y-105300000D02*
X119000000Y-105300000D01*
X116500000Y-100800000D02*
X119500000Y-100800000D01*
X116000000Y-104800000D02*
X116500000Y-105300000D01*
X116000000Y-101300000D02*
X116500000Y-100800000D01*
X120000000Y-102300000D02*
G75*
G03*
X120500000Y-102800000I500001J1D01*
G01*
X120500000Y-106800000D02*
G75*
G03*
X119000000Y-105300000I-1500001J-1D01*
G01*
D11*
%TO.C,D2*%
X127015000Y-83485000D02*
X127015000Y-81200000D01*
X128485000Y-83485000D02*
X127015000Y-83485000D01*
X128485000Y-81200000D02*
X128485000Y-83485000D01*
%TO.C,C10*%
X161488781Y-75710030D02*
X161289970Y-75511219D01*
X162210030Y-74988781D02*
X162011219Y-74789970D01*
%TO.C,C8*%
X160238781Y-76960030D02*
X160039970Y-76761219D01*
X160960030Y-76238781D02*
X160761219Y-76039970D01*
%TO.C,D10*%
X162985000Y-100515000D02*
X162985000Y-102800000D01*
X161515000Y-100515000D02*
X162985000Y-100515000D01*
X161515000Y-102800000D02*
X161515000Y-100515000D01*
%TO.C,J1*%
X122330000Y-66350000D02*
X122330000Y-65200000D01*
X122330000Y-68450000D02*
X122330000Y-70250000D01*
X131670000Y-66350000D02*
X131670000Y-65200000D01*
X131670000Y-68450000D02*
X131670000Y-70250000D01*
%TO.C,R3*%
X156701697Y-75712770D02*
X157037230Y-76048303D01*
X155962770Y-76451697D02*
X156298303Y-76787230D01*
%TO.C,R5*%
X125477500Y-75237258D02*
X125477500Y-74762742D01*
X126522500Y-75237258D02*
X126522500Y-74762742D01*
%TO.C,Y1*%
X164252513Y-71919060D02*
X167080940Y-74747487D01*
X161919060Y-74252513D02*
X164252513Y-71919060D01*
%TO.C,C6*%
X166761219Y-77210030D02*
X166960030Y-77011219D01*
X166039970Y-76488781D02*
X166238781Y-76289970D01*
%TO.C,R8*%
X88272500Y-96512742D02*
X88272500Y-96987258D01*
X87227500Y-96512742D02*
X87227500Y-96987258D01*
%TO.C,D8*%
X129985000Y-103015000D02*
X129985000Y-105300000D01*
X128515000Y-103015000D02*
X129985000Y-103015000D01*
X128515000Y-105300000D02*
X128515000Y-103015000D01*
%TO.C,D4*%
X106015000Y-97985000D02*
X106015000Y-95700000D01*
X107485000Y-97985000D02*
X106015000Y-97985000D01*
X107485000Y-95700000D02*
X107485000Y-97985000D01*
D10*
%TO.C,U2*%
X167876524Y-85000000D02*
X167646714Y-84770190D01*
X167876524Y-85000000D02*
X167646714Y-85229810D01*
X162909099Y-80032575D02*
X163916726Y-79024948D01*
X162750000Y-79873476D02*
X162909099Y-80032575D01*
X162750000Y-79873476D02*
X162520190Y-80103286D01*
X162750000Y-90126524D02*
X162979810Y-89896714D01*
X162750000Y-90126524D02*
X162520190Y-89896714D01*
X157623476Y-85000000D02*
X157853286Y-84770190D01*
X157623476Y-85000000D02*
X157853286Y-85229810D01*
D11*
%TO.C,R4*%
X156977500Y-70737258D02*
X156977500Y-70262742D01*
X158022500Y-70737258D02*
X158022500Y-70262742D01*
%TO.C,R6*%
X127477500Y-75237258D02*
X127477500Y-74762742D01*
X128522500Y-75237258D02*
X128522500Y-74762742D01*
%TO.C,D1*%
X109015000Y-83485000D02*
X109015000Y-81200000D01*
X110485000Y-83485000D02*
X109015000Y-83485000D01*
X110485000Y-81200000D02*
X110485000Y-83485000D01*
%TO.C,D6*%
X142015000Y-97985000D02*
X142015000Y-95700000D01*
X143485000Y-97985000D02*
X142015000Y-97985000D01*
X143485000Y-95700000D02*
X143485000Y-97985000D01*
%TO.C,R9*%
X87227500Y-86987258D02*
X87227500Y-86512742D01*
X88272500Y-86987258D02*
X88272500Y-86512742D01*
%TO.C,D3*%
X91015000Y-100485000D02*
X91015000Y-98200000D01*
X92485000Y-100485000D02*
X91015000Y-100485000D01*
X92485000Y-98200000D02*
X92485000Y-100485000D01*
%TO.C,D5*%
X124015000Y-97985000D02*
X124015000Y-95700000D01*
X125485000Y-97985000D02*
X124015000Y-97985000D01*
X125485000Y-95700000D02*
X125485000Y-97985000D01*
%TO.C,R7*%
X87227500Y-106987258D02*
X87227500Y-106512742D01*
X88272500Y-106987258D02*
X88272500Y-106512742D01*
%TO.C,D9*%
X147985000Y-103015000D02*
X147985000Y-105300000D01*
X146515000Y-103015000D02*
X147985000Y-103015000D01*
X146515000Y-105300000D02*
X146515000Y-103015000D01*
%TO.C,U1*%
X151646913Y-75103087D02*
X152212599Y-75668772D01*
X151646913Y-75103087D02*
X151081228Y-74537401D01*
X153853087Y-72896913D02*
X155125879Y-74169706D01*
X153853087Y-72896913D02*
X153287401Y-72331228D01*
%TO.C,C1*%
X151760000Y-78390580D02*
X151760000Y-78109420D01*
X150740000Y-78390580D02*
X150740000Y-78109420D01*
%TO.C,R2*%
X155201697Y-77212770D02*
X155537230Y-77548303D01*
X154462770Y-77951697D02*
X154798303Y-78287230D01*
%TO.C,D0*%
X91015000Y-83485000D02*
X91015000Y-81200000D01*
X92485000Y-83485000D02*
X91015000Y-83485000D01*
X92485000Y-81200000D02*
X92485000Y-83485000D01*
%TO.C,D7*%
X112485000Y-103015000D02*
X112485000Y-105300000D01*
X111015000Y-103015000D02*
X112485000Y-103015000D01*
X111015000Y-105300000D02*
X111015000Y-103015000D01*
%TO.C,C7*%
X162710030Y-72761219D02*
X162511219Y-72960030D01*
X161988781Y-72039970D02*
X161789970Y-72238781D01*
%TO.C,C9*%
X166490000Y-79640580D02*
X166490000Y-79359420D01*
X167510000Y-79640580D02*
X167510000Y-79359420D01*
%TO.C,R1*%
X166477500Y-91487258D02*
X166477500Y-91012742D01*
X167522500Y-91487258D02*
X167522500Y-91012742D01*
%TD*%
M02*
