<?xml version="1.0" standalone="no"?>
 <!DOCTYPE svg PUBLIC "-//W3C//DTD SVG 1.1//EN" 
 "http://www.w3.org/Graphics/SVG/1.1/DTD/svg11.dtd"> 
<svg
  xmlns:svg="http://www.w3.org/2000/svg"
  xmlns="http://www.w3.org/2000/svg"
  xmlns:xlink="http://www.w3.org/1999/xlink"
  version="1.1"
  width="96.3930mm" height="64.1858mm" viewBox="0.0000 0.0000 96.3930 64.1858">
<title>SVG Image created as Credit Card PCB V1-F_Silkscreen.svg date 2023/03/23 18:54:26 </title>
  <desc>Image generated by PCBNEW </desc>
<g style="fill:#000000; fill-opacity:1.0000;stroke:#000000; stroke-opacity:1.0000;
stroke-linecap:round; stroke-linejoin:round;"
 transform="translate(0 0) scale(1 1)">
</g>
<g style="fill:#000000; fill-opacity:0.0; 
stroke:#000000; stroke-width:0.0000; stroke-opacity:1; 
stroke-linecap:round; stroke-linejoin:round;">
</g>
<g style="fill:#F2EDA1; fill-opacity:0.0; 
stroke:#F2EDA1; stroke-width:0.0000; stroke-opacity:1; 
stroke-linecap:round; stroke-linejoin:round;">
</g>
<g style="fill:#F2EDA1; fill-opacity:0.0; 
stroke:#F2EDA1; stroke-width:0.1500; stroke-opacity:1; 
stroke-linecap:round; stroke-linejoin:round;">
<text x="75.2000" y="6.3000"
textLength="3.2226" font-size="1.3333" lengthAdjust="spacingAndGlyphs"
text-anchor="middle" opacity="0">SW1</text>
<g class="stroked-text"><desc>SW1</desc>
<path d="M73.8667 6.1198
L74.0095 6.1674
" />
<path d="M74.0095 6.1674
L74.2476 6.1674
" />
<path d="M74.2476 6.1674
L74.3429 6.1198
" />
<path d="M74.3429 6.1198
L74.3905 6.0721
" />
<path d="M74.3905 6.0721
L74.4381 5.9769
" />
<path d="M74.4381 5.9769
L74.4381 5.8817
" />
<path d="M74.4381 5.8817
L74.3905 5.7864
" />
<path d="M74.3905 5.7864
L74.3429 5.7388
" />
<path d="M74.3429 5.7388
L74.2476 5.6912
" />
<path d="M74.2476 5.6912
L74.0571 5.6436
" />
<path d="M74.0571 5.6436
L73.9619 5.5960
" />
<path d="M73.9619 5.5960
L73.9143 5.5483
" />
<path d="M73.9143 5.5483
L73.8667 5.4531
" />
<path d="M73.8667 5.4531
L73.8667 5.3579
" />
<path d="M73.8667 5.3579
L73.9143 5.2626
" />
<path d="M73.9143 5.2626
L73.9619 5.2150
" />
<path d="M73.9619 5.2150
L74.0571 5.1674
" />
<path d="M74.0571 5.1674
L74.2952 5.1674
" />
<path d="M74.2952 5.1674
L74.4381 5.2150
" />
<path d="M74.7714 5.1674
L75.0095 6.1674
" />
<path d="M75.0095 6.1674
L75.2000 5.4531
" />
<path d="M75.2000 5.4531
L75.3905 6.1674
" />
<path d="M75.3905 6.1674
L75.6286 5.1674
" />
<path d="M76.5333 6.1674
L75.9619 6.1674
" />
<path d="M76.2476 6.1674
L76.2476 5.1674
" />
<path d="M76.2476 5.1674
L76.1524 5.3102
" />
<path d="M76.1524 5.3102
L76.0571 5.4055
" />
<path d="M76.0571 5.4055
L75.9619 5.4531
" />
</g><g transform="rotate(-90.000000 10.9500 30.3000)">
<text x="10.9500" y="30.8000"
textLength="3.0798" font-size="1.3333" lengthAdjust="spacingAndGlyphs"
text-anchor="middle" opacity="0">D13</text>
</g>
<g class="stroked-text"><desc>D13</desc>
<path d="M11.3174 31.5143
L10.3174 31.5143
" />
<path d="M10.3174 31.5143
L10.3174 31.2762
" />
<path d="M10.3174 31.2762
L10.3650 31.1333
" />
<path d="M10.3650 31.1333
L10.4602 31.0381
" />
<path d="M10.4602 31.0381
L10.5555 30.9905
" />
<path d="M10.5555 30.9905
L10.7460 30.9429
" />
<path d="M10.7460 30.9429
L10.8888 30.9429
" />
<path d="M10.8888 30.9429
L11.0793 30.9905
" />
<path d="M11.0793 30.9905
L11.1745 31.0381
" />
<path d="M11.1745 31.0381
L11.2698 31.1333
" />
<path d="M11.2698 31.1333
L11.3174 31.2762
" />
<path d="M11.3174 31.2762
L11.3174 31.5143
" />
<path d="M11.3174 29.9905
L11.3174 30.5619
" />
<path d="M11.3174 30.2762
L10.3174 30.2762
" />
<path d="M10.3174 30.2762
L10.4602 30.3714
" />
<path d="M10.4602 30.3714
L10.5555 30.4667
" />
<path d="M10.5555 30.4667
L10.6031 30.5619
" />
<path d="M10.3174 29.6571
L10.3174 29.0381
" />
<path d="M10.3174 29.0381
L10.6983 29.3714
" />
<path d="M10.6983 29.3714
L10.6983 29.2286
" />
<path d="M10.6983 29.2286
L10.7460 29.1333
" />
<path d="M10.7460 29.1333
L10.7936 29.0857
" />
<path d="M10.7936 29.0857
L10.8888 29.0381
" />
<path d="M10.8888 29.0381
L11.1269 29.0381
" />
<path d="M11.1269 29.0381
L11.2221 29.0857
" />
<path d="M11.2221 29.0857
L11.2698 29.1333
" />
<path d="M11.2698 29.1333
L11.3174 29.2286
" />
<path d="M11.3174 29.2286
L11.3174 29.5143
" />
<path d="M11.3174 29.5143
L11.2698 29.6095
" />
<path d="M11.2698 29.6095
L11.2221 29.6571
" />
</g><text x="8.9500" y="11.5500"
textLength="2.1750" font-size="1.3333" lengthAdjust="spacingAndGlyphs"
text-anchor="middle" opacity="0">H0</text>
<g class="stroked-text"><desc>H0</desc>
<path d="M8.1881 11.4174
L8.1881 10.4174
" />
<path d="M8.1881 10.8936
L8.7595 10.8936
" />
<path d="M8.7595 11.4174
L8.7595 10.4174
" />
<path d="M9.4262 10.4174
L9.5214 10.4174
" />
<path d="M9.5214 10.4174
L9.6167 10.4650
" />
<path d="M9.6167 10.4650
L9.6643 10.5126
" />
<path d="M9.6643 10.5126
L9.7119 10.6079
" />
<path d="M9.7119 10.6079
L9.7595 10.7983
" />
<path d="M9.7595 10.7983
L9.7595 11.0364
" />
<path d="M9.7595 11.0364
L9.7119 11.2269
" />
<path d="M9.7119 11.2269
L9.6643 11.3221
" />
<path d="M9.6643 11.3221
L9.6167 11.3698
" />
<path d="M9.6167 11.3698
L9.5214 11.4174
" />
<path d="M9.5214 11.4174
L9.4262 11.4174
" />
<path d="M9.4262 11.4174
L9.3310 11.3698
" />
<path d="M9.3310 11.3698
L9.2833 11.3221
" />
<path d="M9.2833 11.3221
L9.2357 11.2269
" />
<path d="M9.2357 11.2269
L9.1881 11.0364
" />
<path d="M9.1881 11.0364
L9.1881 10.7983
" />
<path d="M9.1881 10.7983
L9.2357 10.6079
" />
<path d="M9.2357 10.6079
L9.2833 10.5126
" />
<path d="M9.2833 10.5126
L9.3310 10.4650
" />
<path d="M9.3310 10.4650
L9.4262 10.4174
" />
</g><g transform="rotate(-90.000000 10.9500 20.3000)">
<text x="10.9500" y="20.8000"
textLength="3.0798" font-size="1.3333" lengthAdjust="spacingAndGlyphs"
text-anchor="middle" opacity="0">D12</text>
</g>
<g class="stroked-text"><desc>D12</desc>
<path d="M11.3174 21.5143
L10.3174 21.5143
" />
<path d="M10.3174 21.5143
L10.3174 21.2762
" />
<path d="M10.3174 21.2762
L10.3650 21.1333
" />
<path d="M10.3650 21.1333
L10.4602 21.0381
" />
<path d="M10.4602 21.0381
L10.5555 20.9905
" />
<path d="M10.5555 20.9905
L10.7460 20.9429
" />
<path d="M10.7460 20.9429
L10.8888 20.9429
" />
<path d="M10.8888 20.9429
L11.0793 20.9905
" />
<path d="M11.0793 20.9905
L11.1745 21.0381
" />
<path d="M11.1745 21.0381
L11.2698 21.1333
" />
<path d="M11.2698 21.1333
L11.3174 21.2762
" />
<path d="M11.3174 21.2762
L11.3174 21.5143
" />
<path d="M11.3174 19.9905
L11.3174 20.5619
" />
<path d="M11.3174 20.2762
L10.3174 20.2762
" />
<path d="M10.3174 20.2762
L10.4602 20.3714
" />
<path d="M10.4602 20.3714
L10.5555 20.4667
" />
<path d="M10.5555 20.4667
L10.6031 20.5619
" />
<path d="M10.4126 19.6095
L10.3650 19.5619
" />
<path d="M10.3650 19.5619
L10.3174 19.4667
" />
<path d="M10.3174 19.4667
L10.3174 19.2286
" />
<path d="M10.3174 19.2286
L10.3650 19.1333
" />
<path d="M10.3650 19.1333
L10.4126 19.0857
" />
<path d="M10.4126 19.0857
L10.5079 19.0381
" />
<path d="M10.5079 19.0381
L10.6031 19.0381
" />
<path d="M10.6031 19.0381
L10.7460 19.0857
" />
<path d="M10.7460 19.0857
L11.3174 19.6571
" />
<path d="M11.3174 19.6571
L11.3174 19.0381
" />
</g><text x="8.9500" y="50.5500"
textLength="2.1750" font-size="1.3333" lengthAdjust="spacingAndGlyphs"
text-anchor="middle" opacity="0">H2</text>
<g class="stroked-text"><desc>H2</desc>
<path d="M8.1881 50.4174
L8.1881 49.4174
" />
<path d="M8.1881 49.8936
L8.7595 49.8936
" />
<path d="M8.7595 50.4174
L8.7595 49.4174
" />
<path d="M9.1881 49.5126
L9.2357 49.4650
" />
<path d="M9.2357 49.4650
L9.3310 49.4174
" />
<path d="M9.3310 49.4174
L9.5690 49.4174
" />
<path d="M9.5690 49.4174
L9.6643 49.4650
" />
<path d="M9.6643 49.4650
L9.7119 49.5126
" />
<path d="M9.7119 49.5126
L9.7595 49.6079
" />
<path d="M9.7595 49.6079
L9.7595 49.7031
" />
<path d="M9.7595 49.7031
L9.7119 49.8460
" />
<path d="M9.7119 49.8460
L9.1405 50.4174
" />
<path d="M9.1405 50.4174
L9.7595 50.4174
" />
</g><g transform="rotate(-90.000000 10.9500 40.3000)">
<text x="10.9500" y="40.8000"
textLength="3.0798" font-size="1.3333" lengthAdjust="spacingAndGlyphs"
text-anchor="middle" opacity="0">D14</text>
</g>
<g class="stroked-text"><desc>D14</desc>
<path d="M11.3174 41.5143
L10.3174 41.5143
" />
<path d="M10.3174 41.5143
L10.3174 41.2762
" />
<path d="M10.3174 41.2762
L10.3650 41.1333
" />
<path d="M10.3650 41.1333
L10.4602 41.0381
" />
<path d="M10.4602 41.0381
L10.5555 40.9905
" />
<path d="M10.5555 40.9905
L10.7460 40.9429
" />
<path d="M10.7460 40.9429
L10.8888 40.9429
" />
<path d="M10.8888 40.9429
L11.0793 40.9905
" />
<path d="M11.0793 40.9905
L11.1745 41.0381
" />
<path d="M11.1745 41.0381
L11.2698 41.1333
" />
<path d="M11.2698 41.1333
L11.3174 41.2762
" />
<path d="M11.3174 41.2762
L11.3174 41.5143
" />
<path d="M11.3174 39.9905
L11.3174 40.5619
" />
<path d="M11.3174 40.2762
L10.3174 40.2762
" />
<path d="M10.3174 40.2762
L10.4602 40.3714
" />
<path d="M10.4602 40.3714
L10.5555 40.4667
" />
<path d="M10.5555 40.4667
L10.6031 40.5619
" />
<path d="M10.6507 39.1333
L11.3174 39.1333
" />
<path d="M10.2698 39.3714
L10.9840 39.6095
" />
<path d="M10.9840 39.6095
L10.9840 38.9905
" />
</g><text x="87.4500" y="50.5500"
textLength="2.1750" font-size="1.3333" lengthAdjust="spacingAndGlyphs"
text-anchor="middle" opacity="0">H3</text>
<g class="stroked-text"><desc>H3</desc>
<path d="M86.6881 50.4174
L86.6881 49.4174
" />
<path d="M86.6881 49.8936
L87.2595 49.8936
" />
<path d="M87.2595 50.4174
L87.2595 49.4174
" />
<path d="M87.6405 49.4174
L88.2595 49.4174
" />
<path d="M88.2595 49.4174
L87.9262 49.7983
" />
<path d="M87.9262 49.7983
L88.0690 49.7983
" />
<path d="M88.0690 49.7983
L88.1643 49.8460
" />
<path d="M88.1643 49.8460
L88.2119 49.8936
" />
<path d="M88.2119 49.8936
L88.2595 49.9888
" />
<path d="M88.2595 49.9888
L88.2595 50.2269
" />
<path d="M88.2595 50.2269
L88.2119 50.3221
" />
<path d="M88.2119 50.3221
L88.1643 50.3698
" />
<path d="M88.1643 50.3698
L88.0690 50.4174
" />
<path d="M88.0690 50.4174
L87.7833 50.4174
" />
<path d="M87.7833 50.4174
L87.6881 50.3698
" />
<path d="M87.6881 50.3698
L87.6405 50.3221
" />
</g><text x="87.4500" y="11.3000"
textLength="2.1750" font-size="1.3333" lengthAdjust="spacingAndGlyphs"
text-anchor="middle" opacity="0">H1</text>
<g class="stroked-text"><desc>H1</desc>
<path d="M86.6881 11.1674
L86.6881 10.1674
" />
<path d="M86.6881 10.6436
L87.2595 10.6436
" />
<path d="M87.2595 11.1674
L87.2595 10.1674
" />
<path d="M88.2595 11.1674
L87.6881 11.1674
" />
<path d="M87.9738 11.1674
L87.9738 10.1674
" />
<path d="M87.9738 10.1674
L87.8786 10.3102
" />
<path d="M87.8786 10.3102
L87.7833 10.4055
" />
<path d="M87.7833 10.4055
L87.6881 10.4531
" />
</g></g>
<g style="fill:#F2EDA1; fill-opacity:0.0; 
stroke:#F2EDA1; stroke-width:0.1200; stroke-opacity:1; 
stroke-linecap:round; stroke-linejoin:round;">
<path d="M77.0000 7.2500
L81.9000 7.2500
" />
<path d="M67.4000 9.4500
L68.0000 9.4500
" />
<path d="M68.0000 9.4500
L67.7000 9.7500
" />
<path d="M68.5000 19.8500
L68.5000 17.0500
" />
<path d="M67.7000 9.7500
L67.4000 9.4500
" />
<path d="M73.3000 7.2500
L68.5000 7.2500
" />
<path d="M74.7000 13.5500
L75.7000 13.5500
" />
<path d="M81.9000 19.8500
L77.0000 19.8500
" />
<path d="M81.9000 7.2500
L81.9000 19.8500
" />
<path d="M75.2000 13.0500
L75.2000 14.0500
" />
<path d="M73.4000 19.8500
L68.5000 19.8500
" />
<path d="M68.5000 7.2500
L68.5000 9.7500
" />
<circle cx="75.2000" cy="13.5500" r="3.0000" /> 
<path d="M9.9100 28.6150
L7.9900 28.6150
" />
<path d="M7.9900 28.6150
L7.9900 31.3000
" />
<path d="M9.9100 31.3000
L9.9100 28.6150
" />
</g>
<g style="fill:#F2EDA1; fill-opacity:0.0; 
stroke:#F2EDA1; stroke-width:0.1500; stroke-opacity:1; 
stroke-linecap:round; stroke-linejoin:round;">
<path d="M64.2000 53.3000
L64.2000 54.3000
" />
<path d="M64.2000 40.3000
L64.2000 41.3000
" />
<path d="M64.2000 40.3000
L63.2000 40.3000
" />
<path d="M63.2000 54.3000
L64.2000 54.3000
" />
<path d="M51.2000 40.3000
L50.2000 40.3000
" />
<path d="M50.2000 54.3000
L51.2000 54.3000
" />
<path d="M50.2000 54.3000
L50.2000 53.3000
" />
<path d="M50.2000 41.3000
L50.2000 40.3000
" />
<path d="M50.2000 40.3000
L51.2000 40.3000
" />
<path d="M32.2000 24.3000
L32.2000 23.3000
" />
<path d="M32.2000 37.3000
L32.2000 36.3000
" />
<path d="M32.2000 37.3000
L33.2000 37.3000
" />
<path d="M33.2000 23.3000
L32.2000 23.3000
" />
<path d="M45.2000 37.3000
L46.2000 37.3000
" />
<path d="M46.2000 23.3000
L45.2000 23.3000
" />
<path d="M46.2000 23.3000
L46.2000 24.3000
" />
<path d="M46.2000 36.3000
L46.2000 37.3000
" />
<path d="M46.2000 37.3000
L45.2000 37.3000
" />
<path d="M50.2000 24.3000
L50.2000 23.3000
" />
<path d="M50.2000 37.3000
L50.2000 36.3000
" />
<path d="M50.2000 37.3000
L51.2000 37.3000
" />
<path d="M51.2000 23.3000
L50.2000 23.3000
" />
<path d="M63.2000 37.3000
L64.2000 37.3000
" />
<path d="M64.2000 23.3000
L63.2000 23.3000
" />
<path d="M64.2000 23.3000
L64.2000 24.3000
" />
<path d="M64.2000 36.3000
L64.2000 37.3000
" />
<path d="M64.2000 37.3000
L63.2000 37.3000
" />
</g>
<g style="fill:#F2EDA1; fill-opacity:0.0; 
stroke:#F2EDA1; stroke-width:0.1200; stroke-opacity:1; 
stroke-linecap:round; stroke-linejoin:round;">
<path d="M9.9100 18.6150
L7.9900 18.6150
" />
<path d="M7.9900 18.6150
L7.9900 21.3000
" />
<path d="M9.9100 21.3000
L9.9100 18.6150
" />
</g>
<g style="fill:#F2EDA1; fill-opacity:0.0; 
stroke:#F2EDA1; stroke-width:0.1500; stroke-opacity:1; 
stroke-linecap:round; stroke-linejoin:round;">
<path d="M68.2000 24.3000
L68.2000 23.3000
" />
<path d="M68.2000 37.3000
L68.2000 36.3000
" />
<path d="M68.2000 37.3000
L69.2000 37.3000
" />
<path d="M69.2000 23.3000
L68.2000 23.3000
" />
<path d="M81.2000 37.3000
L82.2000 37.3000
" />
<path d="M82.2000 23.3000
L81.2000 23.3000
" />
<path d="M82.2000 23.3000
L82.2000 24.3000
" />
<path d="M82.2000 36.3000
L82.2000 37.3000
" />
<path d="M82.2000 37.3000
L81.2000 37.3000
" />
<path d="M64.2000 20.3000
L63.2000 20.3000
" />
<path d="M64.2000 19.3000
L64.2000 20.3000
" />
<path d="M64.2000 6.3000
L64.2000 7.3000
" />
<path d="M64.2000 6.3000
L63.2000 6.3000
" />
<path d="M63.2000 20.3000
L64.2000 20.3000
" />
<path d="M51.2000 6.3000
L50.2000 6.3000
" />
<path d="M50.2000 20.3000
L51.2000 20.3000
" />
<path d="M50.2000 20.3000
L50.2000 19.3000
" />
<path d="M50.2000 7.3000
L50.2000 6.3000
" />
<path d="M32.2000 7.3000
L32.2000 6.3000
" />
<path d="M32.2000 20.3000
L32.2000 19.3000
" />
<path d="M32.2000 20.3000
L33.2000 20.3000
" />
<path d="M33.2000 6.3000
L32.2000 6.3000
" />
<path d="M45.2000 20.3000
L46.2000 20.3000
" />
<path d="M46.2000 6.3000
L45.2000 6.3000
" />
<path d="M46.2000 6.3000
L46.2000 7.3000
" />
<path d="M46.2000 19.3000
L46.2000 20.3000
" />
<path d="M46.2000 20.3000
L45.2000 20.3000
" />
<path d="M82.2000 53.3000
L82.2000 54.3000
" />
<path d="M82.2000 40.3000
L82.2000 41.3000
" />
<path d="M82.2000 40.3000
L81.2000 40.3000
" />
<path d="M81.2000 54.3000
L82.2000 54.3000
" />
<path d="M69.2000 40.3000
L68.2000 40.3000
" />
<path d="M68.2000 54.3000
L69.2000 54.3000
" />
<path d="M68.2000 54.3000
L68.2000 53.3000
" />
<path d="M68.2000 41.3000
L68.2000 40.3000
" />
<path d="M68.2000 40.3000
L69.2000 40.3000
" />
<path d="M14.2000 7.3000
L14.2000 6.3000
" />
<path d="M14.2000 20.3000
L14.2000 19.3000
" />
<path d="M14.2000 20.3000
L15.2000 20.3000
" />
<path d="M15.2000 6.3000
L14.2000 6.3000
" />
<path d="M27.2000 20.3000
L28.2000 20.3000
" />
<path d="M28.2000 6.3000
L27.2000 6.3000
" />
<path d="M28.2000 6.3000
L28.2000 7.3000
" />
<path d="M28.2000 19.3000
L28.2000 20.3000
" />
<path d="M28.2000 20.3000
L27.2000 20.3000
" />
</g>
<g style="fill:#F2EDA1; fill-opacity:0.0; 
stroke:#F2EDA1; stroke-width:0.1200; stroke-opacity:1; 
stroke-linecap:round; stroke-linejoin:round;">
<path d="M9.9100 38.6150
L7.9900 38.6150
" />
<path d="M7.9900 38.6150
L7.9900 41.3000
" />
<path d="M9.9100 41.3000
L9.9100 38.6150
" />
</g>
<g style="fill:#F2EDA1; fill-opacity:0.0; 
stroke:#F2EDA1; stroke-width:0.1500; stroke-opacity:1; 
stroke-linecap:round; stroke-linejoin:round;">
<path d="M14.2000 24.3000
L14.2000 23.3000
" />
<path d="M14.2000 37.3000
L14.2000 36.3000
" />
<path d="M14.2000 37.3000
L15.2000 37.3000
" />
<path d="M15.2000 23.3000
L14.2000 23.3000
" />
<path d="M27.2000 37.3000
L28.2000 37.3000
" />
<path d="M28.2000 23.3000
L27.2000 23.3000
" />
<path d="M28.2000 23.3000
L28.2000 24.3000
" />
<path d="M28.2000 36.3000
L28.2000 37.3000
" />
<path d="M28.2000 37.3000
L27.2000 37.3000
" />
<path d="M28.2000 53.3000
L28.2000 54.3000
" />
<path d="M28.2000 40.3000
L28.2000 41.3000
" />
<path d="M28.2000 40.3000
L27.2000 40.3000
" />
<path d="M27.2000 54.3000
L28.2000 54.3000
" />
<path d="M15.2000 40.3000
L14.2000 40.3000
" />
<path d="M14.2000 54.3000
L15.2000 54.3000
" />
<path d="M14.2000 54.3000
L14.2000 53.3000
" />
<path d="M14.2000 41.3000
L14.2000 40.3000
" />
<path d="M14.2000 40.3000
L15.2000 40.3000
" />
<path d="M46.2000 53.3000
L46.2000 54.3000
" />
<path d="M46.2000 40.3000
L46.2000 41.3000
" />
<path d="M46.2000 40.3000
L45.2000 40.3000
" />
<path d="M45.2000 54.3000
L46.2000 54.3000
" />
<path d="M33.2000 40.3000
L32.2000 40.3000
" />
<path d="M32.2000 54.3000
L33.2000 54.3000
" />
<path d="M32.2000 54.3000
L32.2000 53.3000
" />
<path d="M32.2000 41.3000
L32.2000 40.3000
" />
<path d="M32.2000 40.3000
L33.2000 40.3000
" />
<g >
</g>
<g >
</g>
<g >
</g>
<g >
</g>
<g >
</g>
<g >
</g>
<g >
</g>
<g >
</g>
<g >
</g>
<g >
</g>
<g >
</g>
<g >
</g>
<g >
</g>
<g >
</g>
<g >
</g>
<g >
</g>
<g >
</g>
<g >
</g>
<g >
</g>
<g >
</g>
<g >
</g>
<g >
</g>
<g >
</g>
<g >
</g>
<g >
</g>
<g >
</g>
<g >
</g>
<g >
</g>
<g >
</g>
<g >
</g>
<g >
</g>
<g >
</g>
<g >
</g>
<g >
</g>
<g >
</g>
<g >
</g>
<g >
</g>
<g >
</g>
<g >
</g>
<g >
</g>
<g >
</g>
<g >
</g>
<g >
</g>
<g >
</g>
<g >
</g>
<g >
</g>
<g >
</g>
<g >
</g>
<g >
</g>
<g >
</g>
<g >
</g>
<g >
</g>
<g >
</g>
<g >
</g>
<g >
</g>
<g >
</g>
</g>
<g style="fill:#000000; fill-opacity:0.0; 
stroke:#000000; stroke-width:0.1500; stroke-opacity:1; 
stroke-linecap:round; stroke-linejoin:round;">
</g>
<g style="fill:#D0D2CD; fill-opacity:0.0; 
stroke:#D0D2CD; stroke-width:0.1500; stroke-opacity:1; 
stroke-linecap:round; stroke-linejoin:round;">
<path d="M5.4500 53.8000 A3.5000 3.5000 0.0 0 0 8.9500 57.3000" />
<path d="M87.4500 57.3000 A3.5000 3.5000 0.0 0 0 90.9500 53.8000" />
<path d="M8.9500 3.3000
L87.4500 3.3000
" />
<path d="M5.4500 6.8000
L5.4500 53.8000
" />
<path d="M8.9500 3.3000 A3.5000 3.5000 0.0 0 0 5.4500 6.8000" />
<path d="M90.9500 53.8000
L90.9500 6.8000
" />
<path d="M8.9500 57.3000
L87.4500 57.3000
" />
<path d="M90.9500 6.8000 A3.5000 3.5000 0.0 0 0 87.4500 3.3000" />
<g >
</g>
<g >
</g>
<g >
</g>
<g >
</g>
<g >
</g>
<g >
</g>
<g >
</g>
<g >
</g>
<g >
</g>
<g >
</g>
<g >
</g>
<g >
</g>
<g >
</g>
<g >
</g>
<g >
</g>
<g >
</g>
<g >
</g>
<g >
</g>
<g >
</g>
<g >
</g>
<g >
</g>
<g >
</g>
<g >
</g>
<g >
</g>
<g >
</g>
<g >
</g>
<g >
</g>
<g >
</g>
<g >
</g>
<g >
</g>
<g >
</g>
<g >
</g>
<g >
</g>
<g >
</g>
<g >
</g>
<g >
</g>
<g >
</g>
<g >
</g>
<g >
</g>
<g >
</g>
<g >
</g>
<g >
</g>
<g >
</g>
<g >
</g>
<g >
</g>
<g >
</g>
<g >
</g>
<g >
</g>
<g >
</g>
<g >
</g>
<g >
</g>
<g >
</g>
<g >
</g>
<g >
</g>
<g >
</g>
<g >
</g>
</g> 
</svg>
