%TF.GenerationSoftware,KiCad,Pcbnew,(7.0.0)*%
%TF.CreationDate,2023-03-20T18:36:51-07:00*%
%TF.ProjectId,Credit Card PCB V1,43726564-6974-4204-9361-726420504342,rev?*%
%TF.SameCoordinates,Original*%
%TF.FileFunction,Legend,Top*%
%TF.FilePolarity,Positive*%
%FSLAX46Y46*%
G04 Gerber Fmt 4.6, Leading zero omitted, Abs format (unit mm)*
G04 Created by KiCad (PCBNEW (7.0.0)) date 2023-03-20 18:36:51*
%MOMM*%
%LPD*%
G01*
G04 APERTURE LIST*
%ADD10C,0.150000*%
%ADD11C,0.120000*%
G04 APERTURE END LIST*
D10*
%TO.C,H3*%
X165488095Y-112117380D02*
X165488095Y-111117380D01*
X165488095Y-111593571D02*
X166059523Y-111593571D01*
X166059523Y-112117380D02*
X166059523Y-111117380D01*
X166440476Y-111117380D02*
X167059523Y-111117380D01*
X167059523Y-111117380D02*
X166726190Y-111498333D01*
X166726190Y-111498333D02*
X166869047Y-111498333D01*
X166869047Y-111498333D02*
X166964285Y-111545952D01*
X166964285Y-111545952D02*
X167011904Y-111593571D01*
X167011904Y-111593571D02*
X167059523Y-111688809D01*
X167059523Y-111688809D02*
X167059523Y-111926904D01*
X167059523Y-111926904D02*
X167011904Y-112022142D01*
X167011904Y-112022142D02*
X166964285Y-112069761D01*
X166964285Y-112069761D02*
X166869047Y-112117380D01*
X166869047Y-112117380D02*
X166583333Y-112117380D01*
X166583333Y-112117380D02*
X166488095Y-112069761D01*
X166488095Y-112069761D02*
X166440476Y-112022142D01*
%TO.C,H2*%
X86988095Y-112117380D02*
X86988095Y-111117380D01*
X86988095Y-111593571D02*
X87559523Y-111593571D01*
X87559523Y-112117380D02*
X87559523Y-111117380D01*
X87988095Y-111212619D02*
X88035714Y-111165000D01*
X88035714Y-111165000D02*
X88130952Y-111117380D01*
X88130952Y-111117380D02*
X88369047Y-111117380D01*
X88369047Y-111117380D02*
X88464285Y-111165000D01*
X88464285Y-111165000D02*
X88511904Y-111212619D01*
X88511904Y-111212619D02*
X88559523Y-111307857D01*
X88559523Y-111307857D02*
X88559523Y-111403095D01*
X88559523Y-111403095D02*
X88511904Y-111545952D01*
X88511904Y-111545952D02*
X87940476Y-112117380D01*
X87940476Y-112117380D02*
X88559523Y-112117380D01*
%TO.C,H1*%
X165488095Y-72867380D02*
X165488095Y-71867380D01*
X165488095Y-72343571D02*
X166059523Y-72343571D01*
X166059523Y-72867380D02*
X166059523Y-71867380D01*
X167059523Y-72867380D02*
X166488095Y-72867380D01*
X166773809Y-72867380D02*
X166773809Y-71867380D01*
X166773809Y-71867380D02*
X166678571Y-72010238D01*
X166678571Y-72010238D02*
X166583333Y-72105476D01*
X166583333Y-72105476D02*
X166488095Y-72153095D01*
%TO.C,H0*%
X86988095Y-73117380D02*
X86988095Y-72117380D01*
X86988095Y-72593571D02*
X87559523Y-72593571D01*
X87559523Y-73117380D02*
X87559523Y-72117380D01*
X88226190Y-72117380D02*
X88321428Y-72117380D01*
X88321428Y-72117380D02*
X88416666Y-72165000D01*
X88416666Y-72165000D02*
X88464285Y-72212619D01*
X88464285Y-72212619D02*
X88511904Y-72307857D01*
X88511904Y-72307857D02*
X88559523Y-72498333D01*
X88559523Y-72498333D02*
X88559523Y-72736428D01*
X88559523Y-72736428D02*
X88511904Y-72926904D01*
X88511904Y-72926904D02*
X88464285Y-73022142D01*
X88464285Y-73022142D02*
X88416666Y-73069761D01*
X88416666Y-73069761D02*
X88321428Y-73117380D01*
X88321428Y-73117380D02*
X88226190Y-73117380D01*
X88226190Y-73117380D02*
X88130952Y-73069761D01*
X88130952Y-73069761D02*
X88083333Y-73022142D01*
X88083333Y-73022142D02*
X88035714Y-72926904D01*
X88035714Y-72926904D02*
X87988095Y-72736428D01*
X87988095Y-72736428D02*
X87988095Y-72498333D01*
X87988095Y-72498333D02*
X88035714Y-72307857D01*
X88035714Y-72307857D02*
X88083333Y-72212619D01*
X88083333Y-72212619D02*
X88130952Y-72165000D01*
X88130952Y-72165000D02*
X88226190Y-72117380D01*
%TO.C,SW1*%
X147966667Y-68369761D02*
X148109524Y-68417380D01*
X148109524Y-68417380D02*
X148347619Y-68417380D01*
X148347619Y-68417380D02*
X148442857Y-68369761D01*
X148442857Y-68369761D02*
X148490476Y-68322142D01*
X148490476Y-68322142D02*
X148538095Y-68226904D01*
X148538095Y-68226904D02*
X148538095Y-68131666D01*
X148538095Y-68131666D02*
X148490476Y-68036428D01*
X148490476Y-68036428D02*
X148442857Y-67988809D01*
X148442857Y-67988809D02*
X148347619Y-67941190D01*
X148347619Y-67941190D02*
X148157143Y-67893571D01*
X148157143Y-67893571D02*
X148061905Y-67845952D01*
X148061905Y-67845952D02*
X148014286Y-67798333D01*
X148014286Y-67798333D02*
X147966667Y-67703095D01*
X147966667Y-67703095D02*
X147966667Y-67607857D01*
X147966667Y-67607857D02*
X148014286Y-67512619D01*
X148014286Y-67512619D02*
X148061905Y-67465000D01*
X148061905Y-67465000D02*
X148157143Y-67417380D01*
X148157143Y-67417380D02*
X148395238Y-67417380D01*
X148395238Y-67417380D02*
X148538095Y-67465000D01*
X148871429Y-67417380D02*
X149109524Y-68417380D01*
X149109524Y-68417380D02*
X149300000Y-67703095D01*
X149300000Y-67703095D02*
X149490476Y-68417380D01*
X149490476Y-68417380D02*
X149728572Y-67417380D01*
X150633333Y-68417380D02*
X150061905Y-68417380D01*
X150347619Y-68417380D02*
X150347619Y-67417380D01*
X150347619Y-67417380D02*
X150252381Y-67560238D01*
X150252381Y-67560238D02*
X150157143Y-67655476D01*
X150157143Y-67655476D02*
X150061905Y-67703095D01*
%TO.C,D13*%
X90117380Y-93214285D02*
X89117380Y-93214285D01*
X89117380Y-93214285D02*
X89117380Y-92976190D01*
X89117380Y-92976190D02*
X89165000Y-92833333D01*
X89165000Y-92833333D02*
X89260238Y-92738095D01*
X89260238Y-92738095D02*
X89355476Y-92690476D01*
X89355476Y-92690476D02*
X89545952Y-92642857D01*
X89545952Y-92642857D02*
X89688809Y-92642857D01*
X89688809Y-92642857D02*
X89879285Y-92690476D01*
X89879285Y-92690476D02*
X89974523Y-92738095D01*
X89974523Y-92738095D02*
X90069761Y-92833333D01*
X90069761Y-92833333D02*
X90117380Y-92976190D01*
X90117380Y-92976190D02*
X90117380Y-93214285D01*
X90117380Y-91690476D02*
X90117380Y-92261904D01*
X90117380Y-91976190D02*
X89117380Y-91976190D01*
X89117380Y-91976190D02*
X89260238Y-92071428D01*
X89260238Y-92071428D02*
X89355476Y-92166666D01*
X89355476Y-92166666D02*
X89403095Y-92261904D01*
X89117380Y-91357142D02*
X89117380Y-90738095D01*
X89117380Y-90738095D02*
X89498333Y-91071428D01*
X89498333Y-91071428D02*
X89498333Y-90928571D01*
X89498333Y-90928571D02*
X89545952Y-90833333D01*
X89545952Y-90833333D02*
X89593571Y-90785714D01*
X89593571Y-90785714D02*
X89688809Y-90738095D01*
X89688809Y-90738095D02*
X89926904Y-90738095D01*
X89926904Y-90738095D02*
X90022142Y-90785714D01*
X90022142Y-90785714D02*
X90069761Y-90833333D01*
X90069761Y-90833333D02*
X90117380Y-90928571D01*
X90117380Y-90928571D02*
X90117380Y-91214285D01*
X90117380Y-91214285D02*
X90069761Y-91309523D01*
X90069761Y-91309523D02*
X90022142Y-91357142D01*
%TO.C,D12*%
X90117380Y-83214285D02*
X89117380Y-83214285D01*
X89117380Y-83214285D02*
X89117380Y-82976190D01*
X89117380Y-82976190D02*
X89165000Y-82833333D01*
X89165000Y-82833333D02*
X89260238Y-82738095D01*
X89260238Y-82738095D02*
X89355476Y-82690476D01*
X89355476Y-82690476D02*
X89545952Y-82642857D01*
X89545952Y-82642857D02*
X89688809Y-82642857D01*
X89688809Y-82642857D02*
X89879285Y-82690476D01*
X89879285Y-82690476D02*
X89974523Y-82738095D01*
X89974523Y-82738095D02*
X90069761Y-82833333D01*
X90069761Y-82833333D02*
X90117380Y-82976190D01*
X90117380Y-82976190D02*
X90117380Y-83214285D01*
X90117380Y-81690476D02*
X90117380Y-82261904D01*
X90117380Y-81976190D02*
X89117380Y-81976190D01*
X89117380Y-81976190D02*
X89260238Y-82071428D01*
X89260238Y-82071428D02*
X89355476Y-82166666D01*
X89355476Y-82166666D02*
X89403095Y-82261904D01*
X89212619Y-81309523D02*
X89165000Y-81261904D01*
X89165000Y-81261904D02*
X89117380Y-81166666D01*
X89117380Y-81166666D02*
X89117380Y-80928571D01*
X89117380Y-80928571D02*
X89165000Y-80833333D01*
X89165000Y-80833333D02*
X89212619Y-80785714D01*
X89212619Y-80785714D02*
X89307857Y-80738095D01*
X89307857Y-80738095D02*
X89403095Y-80738095D01*
X89403095Y-80738095D02*
X89545952Y-80785714D01*
X89545952Y-80785714D02*
X90117380Y-81357142D01*
X90117380Y-81357142D02*
X90117380Y-80738095D01*
%TO.C,D14*%
X90117380Y-103214285D02*
X89117380Y-103214285D01*
X89117380Y-103214285D02*
X89117380Y-102976190D01*
X89117380Y-102976190D02*
X89165000Y-102833333D01*
X89165000Y-102833333D02*
X89260238Y-102738095D01*
X89260238Y-102738095D02*
X89355476Y-102690476D01*
X89355476Y-102690476D02*
X89545952Y-102642857D01*
X89545952Y-102642857D02*
X89688809Y-102642857D01*
X89688809Y-102642857D02*
X89879285Y-102690476D01*
X89879285Y-102690476D02*
X89974523Y-102738095D01*
X89974523Y-102738095D02*
X90069761Y-102833333D01*
X90069761Y-102833333D02*
X90117380Y-102976190D01*
X90117380Y-102976190D02*
X90117380Y-103214285D01*
X90117380Y-101690476D02*
X90117380Y-102261904D01*
X90117380Y-101976190D02*
X89117380Y-101976190D01*
X89117380Y-101976190D02*
X89260238Y-102071428D01*
X89260238Y-102071428D02*
X89355476Y-102166666D01*
X89355476Y-102166666D02*
X89403095Y-102261904D01*
X89450714Y-100833333D02*
X90117380Y-100833333D01*
X89069761Y-101071428D02*
X89784047Y-101309523D01*
X89784047Y-101309523D02*
X89784047Y-100690476D01*
D11*
%TO.C,SW1*%
X146200000Y-71150000D02*
X146800000Y-71150000D01*
X146500000Y-71450000D02*
X146200000Y-71150000D01*
X146800000Y-71150000D02*
X146500000Y-71450000D01*
X147300000Y-68950000D02*
X147300000Y-71450000D01*
X147300000Y-81550000D02*
X147300000Y-78750000D01*
X152100000Y-68950000D02*
X147300000Y-68950000D01*
X152200000Y-81550000D02*
X147300000Y-81550000D01*
X153500000Y-75250000D02*
X154500000Y-75250000D01*
X154000000Y-74750000D02*
X154000000Y-75750000D01*
X155800000Y-68950000D02*
X160700000Y-68950000D01*
X160700000Y-68950000D02*
X160700000Y-81550000D01*
X160700000Y-81550000D02*
X155800000Y-81550000D01*
X157000000Y-75250000D02*
G75*
G03*
X157000000Y-75250000I-3000000J0D01*
G01*
%TO.C,D13*%
X88710000Y-90315000D02*
X86790000Y-90315000D01*
X86790000Y-90315000D02*
X86790000Y-93000000D01*
X88710000Y-93000000D02*
X88710000Y-90315000D01*
D10*
%TO.C,MX9*%
X143000000Y-115000000D02*
X143000000Y-116000000D01*
X143000000Y-102000000D02*
X143000000Y-103000000D01*
X143000000Y-102000000D02*
X142000000Y-102000000D01*
X142000000Y-116000000D02*
X143000000Y-116000000D01*
X130000000Y-102000000D02*
X129000000Y-102000000D01*
X129000000Y-116000000D02*
X130000000Y-116000000D01*
X129000000Y-116000000D02*
X129000000Y-115000000D01*
X129000000Y-103000000D02*
X129000000Y-102000000D01*
X129000000Y-102000000D02*
X130000000Y-102000000D01*
%TO.C,MX4*%
X111000000Y-86000000D02*
X111000000Y-85000000D01*
X111000000Y-99000000D02*
X111000000Y-98000000D01*
X111000000Y-99000000D02*
X112000000Y-99000000D01*
X112000000Y-85000000D02*
X111000000Y-85000000D01*
X124000000Y-99000000D02*
X125000000Y-99000000D01*
X125000000Y-85000000D02*
X124000000Y-85000000D01*
X125000000Y-85000000D02*
X125000000Y-86000000D01*
X125000000Y-98000000D02*
X125000000Y-99000000D01*
X125000000Y-99000000D02*
X124000000Y-99000000D01*
%TO.C,MX5*%
X129000000Y-86000000D02*
X129000000Y-85000000D01*
X129000000Y-99000000D02*
X129000000Y-98000000D01*
X129000000Y-99000000D02*
X130000000Y-99000000D01*
X130000000Y-85000000D02*
X129000000Y-85000000D01*
X142000000Y-99000000D02*
X143000000Y-99000000D01*
X143000000Y-85000000D02*
X142000000Y-85000000D01*
X143000000Y-85000000D02*
X143000000Y-86000000D01*
X143000000Y-98000000D02*
X143000000Y-99000000D01*
X143000000Y-99000000D02*
X142000000Y-99000000D01*
D11*
%TO.C,D12*%
X88710000Y-80315000D02*
X86790000Y-80315000D01*
X86790000Y-80315000D02*
X86790000Y-83000000D01*
X88710000Y-83000000D02*
X88710000Y-80315000D01*
D10*
%TO.C,MX6*%
X147000000Y-86000000D02*
X147000000Y-85000000D01*
X147000000Y-99000000D02*
X147000000Y-98000000D01*
X147000000Y-99000000D02*
X148000000Y-99000000D01*
X148000000Y-85000000D02*
X147000000Y-85000000D01*
X160000000Y-99000000D02*
X161000000Y-99000000D01*
X161000000Y-85000000D02*
X160000000Y-85000000D01*
X161000000Y-85000000D02*
X161000000Y-86000000D01*
X161000000Y-98000000D02*
X161000000Y-99000000D01*
X161000000Y-99000000D02*
X160000000Y-99000000D01*
%TO.C,MX2*%
X129000000Y-69000000D02*
X129000000Y-68000000D01*
X129000000Y-82000000D02*
X129000000Y-81000000D01*
X129000000Y-82000000D02*
X130000000Y-82000000D01*
X130000000Y-68000000D02*
X129000000Y-68000000D01*
X142000000Y-82000000D02*
X143000000Y-82000000D01*
X143000000Y-68000000D02*
X142000000Y-68000000D01*
X143000000Y-68000000D02*
X143000000Y-69000000D01*
X143000000Y-81000000D02*
X143000000Y-82000000D01*
X143000000Y-82000000D02*
X142000000Y-82000000D01*
%TO.C,MX1*%
X111000000Y-69000000D02*
X111000000Y-68000000D01*
X111000000Y-82000000D02*
X111000000Y-81000000D01*
X111000000Y-82000000D02*
X112000000Y-82000000D01*
X112000000Y-68000000D02*
X111000000Y-68000000D01*
X124000000Y-82000000D02*
X125000000Y-82000000D01*
X125000000Y-68000000D02*
X124000000Y-68000000D01*
X125000000Y-68000000D02*
X125000000Y-69000000D01*
X125000000Y-81000000D02*
X125000000Y-82000000D01*
X125000000Y-82000000D02*
X124000000Y-82000000D01*
%TO.C,MX10*%
X161000000Y-115000000D02*
X161000000Y-116000000D01*
X161000000Y-102000000D02*
X161000000Y-103000000D01*
X161000000Y-102000000D02*
X160000000Y-102000000D01*
X160000000Y-116000000D02*
X161000000Y-116000000D01*
X148000000Y-102000000D02*
X147000000Y-102000000D01*
X147000000Y-116000000D02*
X148000000Y-116000000D01*
X147000000Y-116000000D02*
X147000000Y-115000000D01*
X147000000Y-103000000D02*
X147000000Y-102000000D01*
X147000000Y-102000000D02*
X148000000Y-102000000D01*
%TO.C,MX0*%
X93000000Y-69000000D02*
X93000000Y-68000000D01*
X93000000Y-82000000D02*
X93000000Y-81000000D01*
X93000000Y-82000000D02*
X94000000Y-82000000D01*
X94000000Y-68000000D02*
X93000000Y-68000000D01*
X106000000Y-82000000D02*
X107000000Y-82000000D01*
X107000000Y-68000000D02*
X106000000Y-68000000D01*
X107000000Y-68000000D02*
X107000000Y-69000000D01*
X107000000Y-81000000D02*
X107000000Y-82000000D01*
X107000000Y-82000000D02*
X106000000Y-82000000D01*
D11*
%TO.C,D14*%
X88710000Y-100315000D02*
X86790000Y-100315000D01*
X86790000Y-100315000D02*
X86790000Y-103000000D01*
X88710000Y-103000000D02*
X88710000Y-100315000D01*
D10*
%TO.C,MX3*%
X93000000Y-86000000D02*
X93000000Y-85000000D01*
X93000000Y-99000000D02*
X93000000Y-98000000D01*
X93000000Y-99000000D02*
X94000000Y-99000000D01*
X94000000Y-85000000D02*
X93000000Y-85000000D01*
X106000000Y-99000000D02*
X107000000Y-99000000D01*
X107000000Y-85000000D02*
X106000000Y-85000000D01*
X107000000Y-85000000D02*
X107000000Y-86000000D01*
X107000000Y-98000000D02*
X107000000Y-99000000D01*
X107000000Y-99000000D02*
X106000000Y-99000000D01*
%TO.C,MX7*%
X107000000Y-115000000D02*
X107000000Y-116000000D01*
X107000000Y-102000000D02*
X107000000Y-103000000D01*
X107000000Y-102000000D02*
X106000000Y-102000000D01*
X106000000Y-116000000D02*
X107000000Y-116000000D01*
X94000000Y-102000000D02*
X93000000Y-102000000D01*
X93000000Y-116000000D02*
X94000000Y-116000000D01*
X93000000Y-116000000D02*
X93000000Y-115000000D01*
X93000000Y-103000000D02*
X93000000Y-102000000D01*
X93000000Y-102000000D02*
X94000000Y-102000000D01*
%TO.C,MX8*%
X125000000Y-115000000D02*
X125000000Y-116000000D01*
X125000000Y-102000000D02*
X125000000Y-103000000D01*
X125000000Y-102000000D02*
X124000000Y-102000000D01*
X124000000Y-116000000D02*
X125000000Y-116000000D01*
X112000000Y-102000000D02*
X111000000Y-102000000D01*
X111000000Y-116000000D02*
X112000000Y-116000000D01*
X111000000Y-116000000D02*
X111000000Y-115000000D01*
X111000000Y-103000000D02*
X111000000Y-102000000D01*
X111000000Y-102000000D02*
X112000000Y-102000000D01*
%TD*%
M02*
